<svg xmlns="http://www.w3.org/2000/svg" xmlns:xlink="http://www.w3.org/1999/xlink" xml:space="preserve" version="1.1" style="shape-rendering:geometricPrecision;text-rendering:geometricPrecision;image-rendering:optimizeQuality;" viewBox="0 0 35138 36500" x="0px" y="0px" fill-rule="evenodd" clip-rule="evenodd"><defs><style type="text/css">
   
    .fil0 {fill:black}
    .fil1 {fill:black;fill-rule:nonzero}
   
  </style></defs><g><g><path class="fil0" d="M7990 0l17555 0c1204,0 2188,985 2188,2188l0 5128 -1215 1191 -925 -749 0 -2664 -17651 0 0 2908c-50,-6 -102,-9 -154,-9 -682,0 -1347,75 -1987,216l0 -6021c0,-1203 985,-2188 2189,-2188zm19743 12372l0 21663c0,1203 -984,2188 -2188,2188l-17555 0c-1204,0 -2189,-985 -2189,-2188l0 -7835c640,141 1305,215 1987,215 52,0 103,-1 154,-2l0 4716 17651 0 0 -18724 487 394c380,308 923,283 1274,-58l379 -369zm-10966 20155c679,0 1230,550 1230,1229 0,679 -551,1229 -1230,1229 -678,0 -1229,-550 -1229,-1229 0,-679 551,-1229 1229,-1229zm-2091 -30429l4183 0c589,0 589,891 0,891l-4183 0c-589,0 -589,-891 0,-891z"/><g><path class="fil0" d="M15577 17204c0,4302 -3487,7789 -7789,7789 -4301,0 -7788,-3487 -7788,-7789 0,-4301 3487,-7788 7788,-7788l0 7788 7789 0z"/><path class="fil0" d="M8818 9484c3478,459 6231,3213 6691,6690l-6691 0 0 -6690z"/></g><polygon class="fil1" points="16329,13751 22581,7525 23119,6990 23708,7467 26579,9792 31469,4999 29680,3205 35138,2315 34170,7706 32666,6198 27224,11528 26685,12053 26100,11580 23234,9259 17520,14950 "/><path class="fil0" d="M21361 18035c565,149 1061,448 1447,896 476,553 714,1269 723,1995 1,68 0,137 -3,206 -6,124 -112,220 -236,214l-1410 -66c-123,-6 -220,-112 -214,-236 1,-32 3,-64 2,-97 -3,-287 -87,-583 -276,-804 -211,-245 -524,-342 -838,-357 -41,-2 -83,-3 -125,-3 -314,4 -621,95 -853,316 -144,138 -247,315 -301,507 -48,173 -57,362 -10,536 41,150 124,282 256,365l1322 729 1378 730c3,2 6,4 10,6l28 16c562,338 957,858 1129,1491 135,498 123,1032 -16,1528 -145,514 -425,984 -811,1353 -343,327 -752,559 -1202,693l0 1180c0,123 -101,225 -225,225l-1416 0c-124,0 -225,-102 -225,-225l0 -1158c-564,-149 -1061,-448 -1446,-896 -476,-554 -715,-1270 -723,-1995 -1,-68 -1,-137 3,-206 5,-124 111,-220 235,-214l1410 66c124,6 220,112 215,235 -2,33 -3,65 -3,97 4,288 87,584 277,805 210,245 524,342 838,357 41,2 83,3 124,3 315,-4 622,-95 853,-316 145,-138 248,-316 301,-508 49,-172 58,-361 10,-536 -39,-146 -120,-276 -248,-360l-1370 -726 -20 -10 -1331 -734c-6,-4 -11,-7 -17,-10l-11 -8c-565,-334 -954,-857 -1125,-1488 -136,-498 -123,-1032 16,-1528 144,-514 424,-984 811,-1353 342,-327 751,-560 1201,-693l0 -1180c0,-124 101,-225 225,-225l1416 0c124,0 225,101 225,225l0 1158z"/></g></g></svg>