<svg xmlns:dc="http://purl.org/dc/elements/1.1/" xmlns:cc="http://creativecommons.org/ns#" xmlns:rdf="http://www.w3.org/1999/02/22-rdf-syntax-ns#" xmlns:svg="http://www.w3.org/2000/svg" xmlns="http://www.w3.org/2000/svg" xmlns:sodipodi="http://sodipodi.sourceforge.net/DTD/sodipodi-0.dtd" xmlns:inkscape="http://www.inkscape.org/namespaces/inkscape" version="1.1" x="0px" y="0px" viewBox="0 10 100 75"><g transform="translate(0,-952.36218)"><path style="text-indent:0;text-transform:none;direction:ltr;block-progression:tb;baseline-shift:baseline;color:#000000;enable-background:accumulate;" d="m 14.665657,983.80609 c -0.09429,0.57923 0.179291,0.85438 0.315709,1.01082 0.407409,0.41467 0.97774,0.68868 1.403327,0.93861 0.835724,0.44304 2.024397,1.00838 3.438283,1.62452 0.465591,0.20309 1.09878,0.43186 1.613728,0.64982 -0.895783,0.23581 -1.904279,0.58699 -3.227669,1.04691 l -1.122661,0.3971 0.526287,1.08302 6.455374,12.96011 c -1.690087,-0.071 -3.30502,-0.135 -4.80639,-0.1444 -1.856232,-0.012 -3.577039,0.034 -5.087161,0.1444 -3.020067,0.2201 -5.2673387,0.5996 -6.7008545,1.7689 l -1.4736259,1.2274 1.7892992,0.5776 c 2.075492,0.6964 13.0255512,3.3302 15.6823582,3.935 -0.03143,0.037 -0.07522,0.072 -0.10552,0.1083 -0.552472,0.6748 -0.984578,1.415 -0.947303,2.3104 0.03366,0.7091 0.406382,1.4134 0.947303,1.8051 0.540886,0.3916 1.18024,0.5549 1.8945,0.6498 1.38841,0.1843 3.146173,0.049 5.26252,-0.3249 1.559374,2.6225 2.902535,4.5741 5.052012,6.3898 0.727724,0.6127 1.478444,0.3983 2.140051,0.1444 0.661925,-0.254 1.335968,-0.6895 1.999807,-1.2997 1.327783,-1.2202 2.58998,-3.1647 2.771539,-5.6677 0.08642,-1.109 0.161646,-1.9327 0.245622,-2.7798 1.289409,-0.4079 2.628071,-0.8861 3.964394,-1.3357 l 0.701645,0.1083 c 0.74165,0.1299 2.25815,0.7011 4.069701,1.0469 1.811657,0.3458 3.996035,0.4857 6.209823,-0.2888 0.760145,-0.2738 5.362086,-1.8889 8.735811,-3.0324 l 0.210401,-0.072 c 2.20135,1.1247 4.698496,2.4502 7.262327,3.8627 3.013122,1.6601 6.032551,3.3512 8.455074,4.6931 2.407217,1.3333 4.087063,2.2915 4.981961,2.6353 0,10e-4 0.03143,0 0.0348,0 1.059697,0.4275 2.637815,0.78 4.104709,0.4332 0.738141,-0.1744 1.541409,-0.6553 1.859456,-1.5523 0.317729,-0.8962 0.08646,-1.8642 -0.491138,-2.9602 -0.595381,-1.1029 -1.333311,-2.2217 -1.894535,-3.1408 -1.07472,-1.7471 -2.482086,-4.0303 -3.894201,-6.3176 -1.412326,-2.2873 -2.845736,-4.5977 -3.92935,-6.3537 -0.8055,-1.30501 -1.112457,-1.83551 -1.403327,-2.31041 0.03593,-0.013 0.215681,-0.098 0.245516,-0.1083 1.319811,-0.4668 4.950213,-1.8299 7.89385,-3.64615 1.471252,-0.90813 2.768953,-1.90668 3.543378,-3.14074 0.387213,-0.61704 0.667878,-1.3565 0.596339,-2.12994 -0.07072,-0.77344 -0.496772,-1.47232 -1.122662,-2.05773 -2.341204,-2.17935 -5.055484,-2.98795 -7.753393,-2.99635 -1.226268,-0.003 -2.429787,0.17889 -3.613642,0.43321 -3.787653,0.81387 -7.356189,2.59647 -9.823358,3.50175 -1.090665,0.43128 -2.178531,0.91104 -3.262712,1.37183 l -0.421021,-0.0722 c -12.772949,-2.47209 -40.916586,-6.23702 -51.362148,-6.5703 -1.047792,0.008 -1.842875,0.70317 -1.964658,1.44402 z M 18.56,984.5281 c 10.642322,0.62446 33.691782,3.68319 46.380188,5.95659 l -14.208732,6.0288 -0.245658,-0.036 C 38.970582,992.53017 30.944389,989.65064 20.594708,985.46682 19.817023,985.12768 19.15524,984.80977 18.56,984.5282 z m 66.833892,1.22742 c 1.474724,0.0282 2.902783,0.34137 4.245059,1.08302 l -0.245551,0.10824 -0.947197,0.361 0.736689,1.94943 0.947338,-0.3971 0.736689,-0.28881 0.736689,-0.2888 c 0.281693,0.29174 0.334772,0.51162 0.350929,0.68591 0.01687,0.1904 -0.0247,0.44165 -0.245622,0.79421 -0.442559,0.70513 -1.529185,1.62332 -2.876846,2.45484 -2.695181,1.66301 -6.317256,3.06803 -7.542886,3.50173 -1.47933,0.5226 -7.211232,2.8893 -14.700011,5.81221 -7.231004,2.8223 -15.976736,6.1119 -23.716417,8.5919 -0.01346,-0.5353 -0.07296,-1.0403 -0.210508,-1.5162 -0.23935,-0.8282 -0.867366,-1.5852 -1.683992,-1.9494 -0.816626,-0.3643 -1.775055,-0.4627 -3.052205,-0.5054 -0.390118,-0.029 -0.691228,0.1874 -0.947303,0.361 -0.231165,0.1464 -0.530822,0.3672 -0.912189,0.6137 -2.545086,1.6546 -5.150338,3.3687 -7.577999,4.9458 0.279637,0.5226 0.63496,1.0995 0.912153,1.5523 -1.659756,0.2514 -3.018862,0.3328 -3.894307,0.2166 -0.518457,-0.069 -0.851882,-0.1944 -0.982346,-0.2888 -0.126851,-0.092 -0.09992,-0.061 -0.10552,-0.1805 l 0,-0.036 c 0,-0.048 0.102154,-0.3552 0.491138,-0.8303 0.390366,-0.4768 0.995279,-1.088 1.789334,-1.6968 1.587437,-1.2175 3.812599,-2.5402 6.10441,-3.7905 4.581708,-2.4989 9.493618,-4.6569 10.419838,-5.0541 11.005299,-4.68551 19.104909,-8.09488 29.189409,-12.41858 2.657834,-0.98015 6.040098,-2.65599 9.472535,-3.39345 0.862795,-0.18537 1.720169,-0.31281 2.561031,-0.361 0.315496,-0.018 0.635989,-0.0421 0.947339,-0.0361 z m -62.062546,4.07936 c 0.23811,-0.009 0.414461,-0.009 0.596339,0.036 0.849649,0.21332 1.901019,1.18719 4.245059,3.24905 3.829535,3.33706 6.520677,6.60676 11.577649,8.15877 -2.100402,0.9544 -4.834559,2.2303 -7.89385,3.8988 -1.261418,0.688 -2.500973,1.3749 -3.648685,2.0939 l -8.244532,-16.60631 c 1.619682,-0.54124 2.652414,-0.80244 3.36802,-0.83031 z m 5.64835,1.26352 c 0.503646,0.19542 0.961689,0.38148 1.47352,0.57761 6.482622,2.4838 13.298917,4.91128 17.261043,6.13708 l -4.841504,2.0577 -0.631488,-0.1083 c -5.902689,-1.0901 -8.279043,-4.3164 -12.770397,-8.23088 -0.182871,-0.16089 -0.322406,-0.2825 -0.491174,-0.43321 z m 50.76581,7.43669 c 0.267662,0.4423 0.759614,1.1739 1.684028,2.67151 1.084039,1.7566 2.482086,4.0306 3.8942,6.3176 1.412079,2.2869 2.820933,4.5726 3.894201,6.3175 0.53674,0.8725 1.006937,1.6313 1.333276,2.1661 0.163027,0.2673 0.29211,0.494 0.385866,0.6498 0.09429,0.1558 0.173905,0.2808 0.14035,0.2166 0.435933,0.8268 0.373394,1.2359 0.350823,1.2996 -0.02246,0.064 -0.05503,0.1302 -0.421016,0.2166 -0.731516,0.1729 -2.296204,-0.096 -2.947004,-0.361 -0.402697,-0.153 -2.358283,-1.1543 -4.771346,-2.4909 -2.413063,-1.3367 -5.431819,-3.0635 -8.455039,-4.7292 -3.023469,-1.6657 -6.052571,-3.2836 -8.525339,-4.5126 -1.090665,-0.542 -2.042822,-0.9815 -2.876846,-1.3357 1.304185,-0.5012 2.631543,-1.0009 3.859157,-1.4801 5.831965,-2.2763 9.999744,-3.97251 12.454689,-4.94581 z m -60.51901,6.93131 c 1.819523,0.011 3.810791,0.079 5.929193,0.1805 l 1.368177,2.7798 c -0.345437,0.2416 -0.703807,0.4815 -1.017461,0.722 -0.07749,0.06 -0.135071,0.1209 -0.210401,0.1805 l -0.245623,-0.072 c -0.311669,-0.064 -8.768054,-2.0738 -13.542236,-3.2852 0.804402,-0.1556 1.751599,-0.2841 2.806689,-0.361 1.438583,-0.1048 3.092174,-0.1557 4.911662,-0.1444 z m 40.837144,0.7942 0.771839,0 c -0.01797,0 0.685382,0.1328 1.508634,0.4693 0.480614,0.1966 1.057358,0.4637 1.684027,0.7582 -2.920181,1.0018 -6.34546,2.177 -7.016704,2.4187 -1.764284,0.6172 -3.537992,0.5257 -5.157319,0.2166 -0.533622,-0.1019 -1.028941,-0.1948 -1.508634,-0.3249 3.257185,-1.143 6.539669,-2.3373 9.718157,-3.5379 z m -21.927223,1.9856 c 1.002224,0.052 1.68098,0.167 2.034956,0.3249 0.387673,0.173 0.457618,0.2548 0.561331,0.6137 0.207142,0.7177 -0.03926,2.7013 -0.280665,5.8122 -0.136382,1.8767 -1.070575,3.3413 -2.069965,4.2598 -0.499713,0.4593 -1.013209,0.8024 -1.368319,0.9386 -0.170752,0.066 -0.281232,0.036 -0.315673,0.036 -2.217047,-1.9206 -3.496004,-4.0571 -5.473027,-7.4728 2.482547,-1.6478 4.567358,-3.0401 6.84131,-4.4764 0.0382,-0.025 0.0382,-0.016 0.06963,-0.036 z" fill="#000000" fill-opacity="1" fill-rule="evenodd" stroke="none" marker="none" visibility="visible" display="inline" overflow="visible"/><path style="text-indent:0;text-transform:none;direction:ltr;block-progression:tb;baseline-shift:baseline;color:#000000;enable-background:accumulate;" d="m 81.184018,990.32011 c -0.848126,0.35861 -1.274811,0.5017 -2.122406,0.86172 l 1.504985,3.94296 c 0.848445,-0.35851 1.275519,-0.50138 2.123681,-0.86048 z" fill="#000000" fill-opacity="1" fill-rule="evenodd" stroke="none" marker="none" visibility="visible" display="inline" overflow="visible"/><path style="text-indent:0;text-transform:none;direction:ltr;block-progression:tb;baseline-shift:baseline;color:#000000;enable-background:accumulate;" d="m 77.689219,991.62058 c -0.97891,0.41064 -1.578331,0.66366 -2.446441,1.0246 l 0.744201,1.908 c 1.144346,-0.47376 1.54435,-0.63775 2.483149,-1.02759 z" fill="#000000" fill-opacity="1" fill-rule="evenodd" stroke="none" marker="none" visibility="visible" display="inline" overflow="visible"/><path style="text-indent:0;text-transform:none;direction:ltr;block-progression:tb;baseline-shift:baseline;color:#000000;enable-background:accumulate;" d="m 73.930195,993.33583 c -1.063523,0.44175 -1.368283,0.56751 -2.499094,1.03379 l 0.779705,1.92367 c 1.128011,-0.4737 1.529007,-0.6456 2.445236,-1.0246 z" fill="#000000" fill-opacity="1" fill-rule="evenodd" stroke="none" marker="none" visibility="visible" display="inline" overflow="visible"/><path style="text-indent:0;text-transform:none;direction:ltr;block-progression:tb;baseline-shift:baseline;color:#000000;enable-background:accumulate;" d="m 69.968459,994.85075 c -0.979724,0.46514 -1.497862,0.68794 -2.417102,1.09574 l 0.805039,1.8762 c 1.121634,-0.5022 1.347697,-0.5986 2.44389,-1.0973 z" fill="#000000" fill-opacity="1" fill-rule="evenodd" stroke="none" marker="none" visibility="visible" display="inline" overflow="visible"/><path style="text-indent:0;text-transform:none;direction:ltr;block-progression:tb;baseline-shift:baseline;color:#000000;enable-background:accumulate;" d="m 66.185802,996.50349 c -1.077874,0.4466 -1.482378,0.611 -2.464441,1.0096 l 0.772193,1.9321 c 1.02274,-0.4512 1.498358,-0.6367 2.445236,-1.0246 z" fill="#000000" fill-opacity="1" fill-rule="evenodd" stroke="none" marker="none" visibility="visible" display="inline" overflow="visible"/><path style="text-indent:0;text-transform:none;direction:ltr;block-progression:tb;baseline-shift:baseline;color:#000000;enable-background:accumulate;" d="m 62.311408,998.00689 c -0.877464,0.3947 -1.544563,0.6663 -2.464582,1.0468 l 0.74746,1.89671 c 0.997016,-0.4136 1.556681,-0.6089 2.492717,-1.01441 z" fill="#000000" fill-opacity="1" fill-rule="evenodd" stroke="none" marker="none" visibility="visible" display="inline" overflow="visible"/><path style="text-indent:0;text-transform:none;direction:ltr;block-progression:tb;baseline-shift:baseline;color:#000000;enable-background:accumulate;" d="m 58.517164,999.55699 c -0.914775,0.3734 -1.643775,0.67711 -2.548736,1.06441 l 0.72535,1.9392 c 0.91024,-0.3776 1.682185,-0.7014 2.548737,-1.0643 z" fill="#000000" fill-opacity="1" fill-rule="evenodd" stroke="none" marker="none" visibility="visible" display="inline" overflow="visible"/><path style="text-indent:0;text-transform:none;direction:ltr;block-progression:tb;baseline-shift:baseline;color:#000000;enable-background:accumulate;" d="m 54.577255,1001.0761 c -0.86191,0.3469 -1.565929,0.663 -2.446441,1.0246 l 0.744201,1.917 c 1.026496,-0.3972 1.50307,-0.6005 2.44807,-1.0095 z" fill="#000000" fill-opacity="1" fill-rule="evenodd" stroke="none" marker="none" visibility="visible" display="inline" overflow="visible"/><path style="text-indent:0;text-transform:none;direction:ltr;block-progression:tb;baseline-shift:baseline;color:#000000;enable-background:accumulate;" d="m 50.837826,1002.7067 c -0.873036,0.3387 -1.718044,0.7242 -2.587181,1.0695 l 0.727689,1.9384 c 0.873106,-0.3387 1.718078,-0.7242 2.587252,-1.0695 z" fill="#000000" fill-opacity="1" fill-rule="evenodd" stroke="none" marker="none" visibility="visible" display="inline" overflow="visible"/><path style="text-indent:0;text-transform:none;direction:ltr;block-progression:tb;baseline-shift:baseline;color:#000000;enable-background:accumulate;" d="m 46.983062,1004.3187 -0.941067,0.3761 -0.716031,0.2865 -0.942237,0.3774 0.733394,1.9366 0.941067,-0.376 0.716032,-0.2866 0.941031,-0.3773 -0.732189,-1.9367 z" fill="#000000" fill-opacity="1" fill-rule="evenodd" stroke="none" marker="none" visibility="visible" display="inline" overflow="visible"/></g></svg>