<?xml version="1.0" encoding="UTF-8" standalone="no"?>
<!-- Generator: Adobe Illustrator 22.0.1, SVG Export Plug-In . SVG Version: 6.00 Build 0)  -->

<svg
   xmlns:dc="http://purl.org/dc/elements/1.1/"
   xmlns:cc="http://creativecommons.org/ns#"
   xmlns:rdf="http://www.w3.org/1999/02/22-rdf-syntax-ns#"
   xmlns:svg="http://www.w3.org/2000/svg"
   xmlns="http://www.w3.org/2000/svg"
   xmlns:sodipodi="http://sodipodi.sourceforge.net/DTD/sodipodi-0.dtd"
   xmlns:inkscape="http://www.inkscape.org/namespaces/inkscape"
   version="1.1"
   id="Layer_1"
   x="0px"
   y="0px"
   viewBox="0 0 437.1 94.5"
   xml:space="preserve"
   sodipodi:docname="candriam-logo.svg"
   inkscape:version="0.92.3 (2405546, 2018-03-11)"><metadata
   id="metadata57"><rdf:RDF><cc:Work
       rdf:about=""><dc:format>image/svg+xml</dc:format><dc:type
         rdf:resource="http://purl.org/dc/dcmitype/StillImage" /><dc:title></dc:title></cc:Work></rdf:RDF></metadata><defs
   id="defs55" /><sodipodi:namedview
   pagecolor="##ffffff"
   bordercolor="#000000"
   borderopacity="1"
   objecttolerance="10"
   gridtolerance="10"
   guidetolerance="10"
   inkscape:pageopacity="0"
   inkscape:pageshadow="2"
   inkscape:window-width="1920"
   inkscape:window-height="1017"
   id="namedview53"
   showgrid="false"
   fit-margin-top="0"
   fit-margin-left="0"
   fit-margin-right="0"
   fit-margin-bottom="0"
   inkscape:zoom="0.712"
   inkscape:cx="240.64944"
   inkscape:cy="8.85618"
   inkscape:window-x="-8"
   inkscape:window-y="0"
   inkscape:window-maximized="1"
   inkscape:current-layer="Layer_1" />
<style
   type="text/css"
   id="style2">
	.st0{fill:none;}
	.st1{fill:url(#000000_4_2_);}
	.st2{fill:url(#000000_3_2_);}
	.st3{fill:url(#000000_2_2_);}
	.st4{fill:url(#000000_1_2_);}
	.st5{fill:#000000;}
	.st6{fill:#000000;}
</style>
<rect
   id="Clear_space_1_"
   x="-8.550561"
   y="-1.6561797"
   class="st0"
   width="496.20001"
   height="165"
   style="fill:none" />
<g
   id="g50"
   transform="translate(-24.8,-47.8)">
	<g
   id="g45">
		<linearGradient
   id="Symbol_4_2_"
   gradientUnits="userSpaceOnUse"
   x1="416.77219"
   y1="72.139"
   x2="425.50739"
   y2="61.200298">
			<stop
   offset="0"
   style="stop-color:#000000"
   id="stop5" />
			<stop
   offset="0.2818"
   style="stop-color:#000000"
   id="stop7" />
			<stop
   offset="0.7598"
   style="stop-color:#000000"
   id="stop9" />
			<stop
   offset="1"
   style="stop-color:#000000"
   id="stop11" />
		</linearGradient>
		<path
   id="Symbol_4_1_"
   class="st1"
   d="m 434.2,68.5 c -1,1.3 -2,2.5 -3.2,3.6 -1.1,1.1 -2.4,2.2 -3.6,3.2 -0.2,0.2 -0.6,0.5 -1.4,1 -0.8,0.6 -1.7,1.1 -2.5,1.6 -0.3,0.2 -1,0.6 -1.6,0.9 -1,0.5 -2,1 -3,1.4 -0.6,0.3 -1.1,0.4 -2.1,0.8 -1.4,0.5 -2.8,0.8 -4.2,1.1 -0.1,0 -0.1,0 -0.2,0.1 -0.6,0.2 -2.7,0.5 -4.1,0.6 -0.2,0 -0.4,0 -0.6,0.1 0,0 -0.3,-1.4 -0.4,-1.7 8.5,-0.5 16.5,-4.1 22.6,-10.2 1.2,-1.2 2.3,-2.5 3.3,-3.8 0.3,0.4 0.7,0.8 1,1.3 z m -7.4,-0.7 c -5.4,5.4 -12.4,8.5 -20,9 0,0.6 0.1,1.1 0.1,1.7 8,-0.4 15.4,-3.8 21.1,-9.4 1.3,-1.4 2.6,-2.8 3.7,-4.4 -0.3,-0.5 -0.6,-1.1 -0.9,-1.6 -1.3,1.6 -2.6,3.2 -4,4.7 m -3.2,-3.2 c -4.5,4.5 -10.4,7.2 -16.7,7.6 -0.1,0.6 -0.1,1.1 -0.1,1.7 6.8,-0.4 13.2,-3.3 18.1,-8.1 1.8,-1.8 3.3,-3.8 4.5,-5.9 -0.3,-0.7 -0.5,-1.4 -0.8,-2.1 -1.3,2.5 -3,4.8 -5,6.8 m 3.1,-15.8 c -0.6,4.8 -2.8,9.2 -6.2,12.7 -3.5,3.5 -7.9,5.6 -12.7,6.2 -0.2,0.6 -0.3,1.1 -0.4,1.7 5.4,-0.5 10.4,-2.9 14.3,-6.8 2.6,-2.6 4.6,-5.8 5.7,-9.3 -0.4,-1.4 -0.6,-3 -0.7,-4.5 0,0 0,0 0,0 m -4.9,1.9 c -0.8,2.9 -2.3,5.5 -4.4,7.6 -2.2,2.2 -4.8,3.7 -7.6,4.5 -0.3,0.6 -0.6,1.3 -0.9,1.9 3.7,-0.7 7,-2.5 9.7,-5.2 2.7,-2.7 4.5,-6 5.2,-9.7 -0.8,0.3 -1.4,0.6 -2,0.9"
   inkscape:connector-curvature="0"
   style="fill:url(#000000_4_2_)" />
		<linearGradient
   id="Symbol_3_2_"
   gradientUnits="userSpaceOnUse"
   x1="441.3866"
   y1="55.3619"
   x2="448.29941"
   y2="70.888397">
			<stop
   offset="0"
   style="stop-color:#000000"
   id="stop15" />
			<stop
   offset="0.2818"
   style="stop-color:#000000"
   id="stop17" />
			<stop
   offset="0.7598"
   style="stop-color:#000000"
   id="stop19" />
			<stop
   offset="1"
   style="stop-color:#000000"
   id="stop21" />
		</linearGradient>
		<path
   id="Symbol_3_1_"
   class="st2"
   d="m 426.7,48.8 c 0,0 1.3,-0.3 1.6,-0.4 0.5,8.5 4.1,16.5 10.2,22.6 1.2,1.2 2.5,2.3 3.9,3.3 -0.5,0.3 -0.9,0.7 -1.4,1 -1.3,-1 -2.5,-2 -3.6,-3.2 -1.1,-1.1 -2.2,-2.4 -3.2,-3.6 -0.2,-0.3 -0.7,-0.9 -1,-1.4 -0.6,-0.8 -1.1,-1.7 -1.6,-2.5 -0.3,-0.6 -0.6,-1 -0.9,-1.6 -0.5,-1 -1,-2 -1.4,-3 -0.3,-0.9 -0.5,-1.4 -0.8,-2.1 -0.5,-1.4 -0.9,-2.9 -1.2,-4.4 -0.4,-1.8 -0.6,-4.7 -0.6,-4.7 m 4.4,-0.9 c 0.4,8 3.8,15.4 9.4,21.1 1.3,1.3 2.8,2.6 4.4,3.7 0.5,-0.3 1.1,-0.6 1.6,-0.9 -1.7,-1.2 -3.4,-2.5 -4.9,-3.9 -5.4,-5.4 -8.5,-12.5 -9,-20 -0.4,-0.1 -0.9,-0.1 -1.5,0 m 4.5,-0.1 c 0.4,6.8 3.3,13.2 8.1,18.1 1.8,1.8 3.8,3.3 5.9,4.5 0.7,-0.3 1.4,-0.5 2.1,-0.8 -2.5,-1.3 -4.8,-2.9 -6.8,-4.9 -4.5,-4.5 -7.2,-10.4 -7.6,-16.7 -0.6,-0.2 -1.2,-0.2 -1.7,-0.2 z m 4.5,0.5 c 0.5,5.4 2.9,10.4 6.8,14.3 2.6,2.6 5.8,4.5 9.2,5.7 1.5,-0.3 3.1,-0.5 4.6,-0.6 v 0 c -4.8,-0.6 -9.2,-2.8 -12.7,-6.2 -3.5,-3.5 -5.6,-7.9 -6.2,-12.7 -0.6,-0.2 -1.2,-0.3 -1.7,-0.5 z m 4.7,1.5 c 0.7,3.6 2.5,7 5.2,9.7 2.7,2.7 6,4.5 9.7,5.2 -0.3,-0.7 -0.6,-1.3 -0.9,-1.9 -2.9,-0.8 -5.5,-2.3 -7.6,-4.4 -2.1,-2.1 -3.7,-4.8 -4.4,-7.6 -0.7,-0.4 -1.4,-0.7 -2,-1 z"
   inkscape:connector-curvature="0"
   style="fill:url(#000000_3_2_)" />
		<linearGradient
   id="Symbol_2_2_"
   gradientUnits="userSpaceOnUse"
   x1="455.5271"
   y1="84.737503"
   x2="435.1636"
   y2="84.737503">
			<stop
   offset="0"
   style="stop-color:#000000"
   id="stop25" />
			<stop
   offset="0.2818"
   style="stop-color:#000000"
   id="stop27" />
			<stop
   offset="0.7598"
   style="stop-color:#000000"
   id="stop29" />
			<stop
   offset="1"
   style="stop-color:#000000"
   id="stop31" />
		</linearGradient>
		<path
   id="Symbol_2_1_"
   class="st3"
   d="m 440.5,81.6 c 5.7,-5.7 13.1,-9 21.1,-9.4 0.1,0.6 0.1,1.1 0.1,1.7 -7.6,0.4 -14.6,3.6 -20,9 -1.5,1.5 -2.8,3.1 -3.9,4.8 -0.3,-0.6 -0.6,-1.1 -0.9,-1.6 1.1,-1.7 2.3,-3.2 3.6,-4.5 m 3.2,3.1 c -1.8,1.8 -3.3,3.8 -4.5,5.9 0.3,0.7 0.5,1.4 0.8,2.1 1.3,-2.5 2.9,-4.8 4.9,-6.8 4.5,-4.5 10.4,-7.2 16.7,-7.6 0.1,-0.6 0.1,-1.1 0.1,-1.7 -6.8,0.4 -13.1,3.2 -18,8.1 m 3.1,3.2 c -2.6,2.6 -4.6,5.8 -5.7,9.3 0.3,1.5 0.5,2.8 0.6,4.6 0,0 0,0 0,0 0.6,-4.8 2.8,-9.2 6.2,-12.7 3.5,-3.5 7.9,-5.6 12.7,-6.2 0.2,-0.6 0.3,-1.1 0.4,-1.7 -5.3,0.4 -10.3,2.8 -14.2,6.7 M 450,91 c -2.7,2.7 -4.5,6 -5.2,9.7 v 0 c 0.7,-0.3 1.3,-0.6 1.9,-0.9 0.8,-2.9 2.3,-5.5 4.4,-7.6 2.2,-2.2 4.8,-3.7 7.6,-4.5 0.3,-0.6 0.6,-1.3 0.9,-1.9 -3.6,0.7 -6.9,2.5 -9.6,5.2 m 10.7,-23.3 c -1.3,0.1 -3.7,0.4 -4.6,0.6 -1.5,0.3 -3,0.7 -4.4,1.2 -1.1,0.4 -1.3,0.5 -2.1,0.8 -1,0.4 -2,0.9 -3,1.4 -0.7,0.4 -0.9,0.5 -1.6,0.9 -0.9,0.5 -1.7,1 -2.5,1.6 -0.6,0.5 -0.7,0.5 -1.4,1 -1.2,1 -2.4,2 -3.6,3.1 -1.1,1.1 -2.2,2.4 -3.2,3.7 0.4,0.5 0.7,0.9 1,1.4 1,-1.4 2.2,-2.7 3.4,-3.9 6.1,-6.1 14,-9.7 22.5,-10.2 -0.1,-0.3 -0.4,-1.2 -0.5,-1.6 z"
   inkscape:connector-curvature="0"
   style="fill:url(#000000_2_2_)" />
		<linearGradient
   id="Symbol_1_2_"
   gradientUnits="userSpaceOnUse"
   x1="432.20609"
   y1="102.3078"
   x2="419.11411"
   y2="79.631798">
			<stop
   offset="0"
   style="stop-color:#000000"
   id="stop35" />
			<stop
   offset="0.2818"
   style="stop-color:#000000"
   id="stop37" />
			<stop
   offset="0.7598"
   style="stop-color:#000000"
   id="stop39" />
			<stop
   offset="1"
   style="stop-color:#000000"
   id="stop41" />
		</linearGradient>
		<path
   id="Symbol_1_1_"
   class="st4"
   d="m 421.9,78.8 c 0.6,-0.3 1.1,-0.6 1.6,-0.9 1.6,1.1 3,2.3 4.4,3.7 5.7,5.7 9,13.1 9.4,21.1 -0.6,0.1 -1.1,0.1 -1.7,0.1 -0.4,-7.6 -3.6,-14.6 -9,-20 -1.3,-1.5 -3,-2.8 -4.7,-4 m -5.1,2.2 c 2.5,1.3 4.8,2.9 6.8,4.9 4.5,4.5 7.2,10.4 7.6,16.7 0.6,0.1 1.1,0.1 1.7,0.1 -0.4,-6.8 -3.3,-13.2 -8.1,-18.1 -1.8,-1.8 -3.8,-3.3 -5.9,-4.5 -0.7,0.4 -1.4,0.6 -2.1,0.9 m -7.1,6.7 c 2.9,0.8 5.5,2.3 7.6,4.4 2.1,2.1 3.7,4.8 4.4,7.6 0.6,0.3 1.3,0.6 1.9,0.9 v 0 c -0.7,-3.6 -2.5,-7 -5.2,-9.7 -2.7,-2.7 -6,-4.5 -9.7,-5.2 0.4,0.8 0.7,1.4 1,2 m 16.4,-11.4 v 0 c 0.3,0.3 0.7,0.5 1,0.8 0,0 0,0 0,0 0.3,0.3 0.6,0.5 0.9,0.8 0.1,0.1 0.2,0.1 0.2,0.2 0.2,0.2 0.5,0.4 0.7,0.6 0.3,0.3 0.6,0.6 0.9,0.9 6.1,6.1 9.7,14 10.2,22.6 0.4,-0.1 1.3,-0.3 1.6,-0.4 -0.1,-1.2 -0.3,-3.1 -0.6,-4.6 -0.3,-1.5 -0.7,-3 -1.2,-4.4 -0.2,-0.6 -0.6,-1.8 -0.8,-2.1 -0.4,-1 -0.9,-2 -1.4,-3 -0.3,-0.6 -0.7,-1.2 -0.9,-1.6 -0.5,-0.8 -1,-1.7 -1.6,-2.5 -0.3,-0.4 -0.7,-1 -1,-1.4 -1,-1.3 -2,-2.5 -3.2,-3.6 -0.3,-0.3 -0.6,-0.6 -0.9,-0.9 -0.2,-0.2 -0.4,-0.4 -0.6,-0.6 -0.1,-0.1 -0.2,-0.1 -0.2,-0.2 -0.3,-0.2 -0.6,-0.5 -0.9,-0.7 0,0 0,0 0,0 -0.3,-0.3 -0.6,-0.5 -0.9,-0.7 -0.4,0.1 -0.9,0.5 -1.3,0.8 m -17.8,6.5 c 4.6,0.7 8.8,2.8 12.1,6.1 3.5,3.5 5.6,7.9 6.2,12.7 0.6,0.2 1.1,0.3 1.7,0.4 -0.5,-5.4 -2.9,-10.4 -6.8,-14.3 -2.5,-2.5 -5.6,-4.4 -9,-5.6 -0.1,0 -0.1,0 -0.2,0.1 -0.6,0.1 -2.6,0.4 -4,0.6 z"
   inkscape:connector-curvature="0"
   style="fill:url(#000000_1_2_)" />
	</g>
	<path
   id="Descriptor_Line_1_"
   class="st5"
   d="m 31.6,126.9 h 2.9 l 5.7,14.9 H 37 L 35.7,138 h -5.6 l -1.3,3.8 h -3 z m 3.3,8.8 -2,-5.8 -2,5.8 z m 11,-8.8 h 2.8 l 7.2,10.6 v -10.6 h 2.8 v 14.9 H 56 L 48.7,131 v 10.8 h -2.8 z m 16,0 h 9.7 v 2.5 h -6.9 v 3.5 h 5 v 2.5 h -5 v 3.9 h 7.4 v 2.5 H 61.9 Z m 11.4,0 h 3.1 l 2.4,11.2 2.9,-10.8 h 2.6 l 2.9,10.8 2.4,-11.2 h 3 l -3.9,14.9 h -3 l -2.8,-9.9 -2.8,9.9 h -2.9 z m 28.8,8.3 -5.2,-8.4 h 3.1 l 3.6,6 3.6,-6 h 3 l -5.2,8.4 v 6.6 h -2.9 z m 15.7,7 c -1.1,0 -2.1,-0.2 -3,-0.6 -0.9,-0.4 -1.8,-1 -2.5,-1.7 -0.7,-0.7 -1.3,-1.6 -1.7,-2.5 -0.4,-1 -0.6,-2 -0.6,-3.1 0,-1.1 0.2,-2.1 0.6,-3.1 0.4,-1 1,-1.8 1.6,-2.5 0.7,-0.7 1.5,-1.3 2.5,-1.7 0.9,-0.4 2,-0.6 3.1,-0.6 1.1,0 2.1,0.2 3,0.6 0.9,0.4 1.8,1 2.5,1.7 0.7,0.7 1.3,1.5 1.7,2.5 0.4,1 0.6,2 0.6,3.1 0,1.1 -0.2,2.1 -0.6,3.1 -0.4,1 -1,1.8 -1.7,2.5 -0.7,0.7 -1.5,1.3 -2.5,1.7 -0.9,0.4 -1.9,0.6 -3,0.6 z m 0,-2.7 c 0.7,0 1.4,-0.1 2,-0.4 0.6,-0.3 1.1,-0.7 1.5,-1.2 0.4,-0.5 0.7,-1 1,-1.7 0.2,-0.6 0.3,-1.3 0.3,-2 0,-0.7 -0.1,-1.4 -0.3,-2 -0.2,-0.6 -0.5,-1.2 -1,-1.7 -0.4,-0.5 -0.9,-0.9 -1.5,-1.1 -0.6,-0.3 -1.3,-0.4 -2,-0.4 -0.7,0 -1.4,0.1 -2,0.4 -0.6,0.3 -1.1,0.7 -1.5,1.1 -0.4,0.5 -0.7,1 -1,1.7 -0.2,0.6 -0.3,1.3 -0.3,2 0,0.7 0.1,1.4 0.3,2 0.2,0.6 0.5,1.2 1,1.7 0.4,0.5 0.9,0.9 1.5,1.2 0.6,0.3 1.2,0.4 2,0.4 z m 10.3,-12.6 h 5 c 0.9,0 1.7,0.1 2.4,0.4 0.7,0.3 1.2,0.6 1.6,1.1 0.4,0.4 0.7,0.9 0.9,1.4 0.2,0.5 0.3,1 0.3,1.5 0,0.9 -0.2,1.8 -0.6,2.5 -0.4,0.7 -1,1.3 -1.9,1.7 l 3.5,6.3 H 136 l -3,-5.9 h -2.1 v 5.9 h -2.7 v -14.9 z m 5,6.7 c 0.7,0 1.3,-0.2 1.7,-0.6 0.4,-0.4 0.6,-0.9 0.6,-1.5 0,-0.6 -0.2,-1.2 -0.6,-1.6 -0.4,-0.4 -1,-0.6 -1.6,-0.6 h -2.3 v 4.3 z m 8.1,-6.7 h 2.8 v 6.1 l 5.5,-6.1 h 3.2 l -5.5,6.1 6.1,8.8 H 150 l -4.5,-6.8 -1.4,1.5 v 5.2 h -2.8 v -14.8 z m 18,0 h 2.8 v 12.4 h 7.4 v 2.5 h -10.2 z m 12.4,0 h 2.8 v 14.9 h -2.8 z m 6,0 h 9.7 v 2.5 h -6.8 v 3.9 h 5.1 v 2.5 h -5.1 v 6.1 h -2.8 v -15 z m 11.9,0 h 9.7 v 2.5 h -6.9 v 3.5 h 5 v 2.5 h -5 v 3.9 h 7.4 v 2.5 h -10.2 z m 16.8,0 h 2.8 v 14.9 h -2.8 z m 6,0 h 2.8 l 7.2,10.6 v -10.6 h 2.8 v 14.9 h -2.8 L 215,131 v 10.8 h -2.8 v -14.9 z m 14.5,0 h 3.1 l 4,11.4 4,-11.4 h 3 l -5.6,14.9 h -2.9 z m 15.7,0 h 9.7 v 2.5 h -6.9 v 3.5 h 5 v 2.5 h -5 v 3.9 h 7.4 v 2.5 h -10.2 z m 13.8,10.7 c 0.2,0.2 0.4,0.4 0.6,0.7 0.2,0.2 0.5,0.4 0.8,0.6 0.3,0.2 0.6,0.4 1,0.5 0.4,0.1 0.8,0.2 1.3,0.2 0.9,0 1.5,-0.2 2,-0.6 0.4,-0.4 0.6,-0.9 0.6,-1.5 0,-0.3 -0.1,-0.6 -0.2,-0.8 -0.1,-0.2 -0.3,-0.5 -0.6,-0.6 -0.3,-0.2 -0.7,-0.4 -1.1,-0.5 -0.5,-0.1 -1,-0.3 -1.7,-0.4 -0.7,-0.1 -1.3,-0.3 -1.8,-0.6 -0.5,-0.3 -0.9,-0.6 -1.2,-1 -0.3,-0.4 -0.6,-0.8 -0.7,-1.3 -0.2,-0.5 -0.2,-1 -0.2,-1.4 0,-0.6 0.1,-1.1 0.3,-1.6 0.2,-0.5 0.5,-1 1,-1.4 0.4,-0.4 1,-0.7 1.6,-1 0.6,-0.2 1.4,-0.4 2.3,-0.4 0.8,0 1.5,0.1 2,0.3 0.6,0.2 1,0.4 1.4,0.6 0.4,0.2 0.7,0.5 0.9,0.7 0.2,0.2 0.4,0.4 0.4,0.5 l -1.9,1.7 c -0.1,-0.1 -0.2,-0.2 -0.4,-0.3 -0.2,-0.2 -0.4,-0.3 -0.6,-0.5 -0.2,-0.1 -0.5,-0.3 -0.9,-0.4 -0.3,-0.1 -0.7,-0.2 -1.2,-0.2 -0.4,0 -0.7,0.1 -1,0.2 -0.3,0.1 -0.5,0.2 -0.7,0.4 -0.2,0.2 -0.3,0.3 -0.4,0.5 -0.1,0.2 -0.1,0.4 -0.1,0.6 0,0.3 0,0.5 0.1,0.7 0.1,0.2 0.3,0.4 0.5,0.6 0.2,0.2 0.5,0.3 1,0.5 0.4,0.1 0.9,0.3 1.5,0.4 0.6,0.1 1.1,0.3 1.7,0.5 0.5,0.2 1,0.5 1.4,0.9 0.4,0.4 0.7,0.8 1,1.4 0.2,0.5 0.4,1.2 0.4,2 0,0.7 -0.1,1.3 -0.4,1.8 -0.3,0.6 -0.6,1 -1.1,1.5 -0.5,0.4 -1,0.7 -1.7,1 -0.7,0.2 -1.4,0.3 -2.2,0.3 -0.7,0 -1.4,-0.1 -2,-0.3 -0.6,-0.2 -1.2,-0.4 -1.6,-0.7 -0.5,-0.3 -0.9,-0.6 -1.3,-0.9 -0.4,-0.3 -0.6,-0.6 -0.9,-0.9 z m 15.3,-8.3 h -5.1 v -2.5 h 12.9 v 2.5 h -5.1 v 12.5 h -2.8 v -12.5 z m 10.3,-2.4 h 2.6 l 4.1,7.1 4.1,-7.1 h 2.6 l 0.7,14.9 h -2.8 l -0.5,-10.4 -3.6,6.1 h -1.3 l -3.6,-5.9 -0.5,10.2 h -2.6 z m 17.1,0 h 9.7 v 2.5 h -6.9 v 3.5 h 5 v 2.5 h -5 v 3.9 h 7.4 v 2.5 H 299 Z m 12.7,0 h 2.8 l 7.2,10.6 v -10.6 h 2.8 v 14.9 h -2.8 L 314.4,131 v 10.8 h -2.8 v -14.9 z m 20,2.4 h -5.1 v -2.5 h 12.9 v 2.5 h -5.1 v 12.5 h -2.8 v -12.5 z m 10.5,8.3 c 0.2,0.2 0.4,0.4 0.6,0.7 0.2,0.2 0.5,0.4 0.8,0.6 0.3,0.2 0.6,0.4 1,0.5 0.4,0.1 0.8,0.2 1.3,0.2 0.9,0 1.5,-0.2 2,-0.6 0.4,-0.4 0.6,-0.9 0.6,-1.5 0,-0.3 -0.1,-0.6 -0.2,-0.8 -0.1,-0.2 -0.3,-0.5 -0.6,-0.6 -0.3,-0.2 -0.7,-0.4 -1.1,-0.5 -0.5,-0.1 -1,-0.3 -1.7,-0.4 -0.7,-0.1 -1.3,-0.3 -1.8,-0.6 -0.5,-0.3 -0.9,-0.6 -1.2,-1 -0.3,-0.4 -0.6,-0.8 -0.7,-1.3 -0.2,-0.5 -0.2,-1 -0.2,-1.4 0,-0.6 0.1,-1.1 0.3,-1.6 0.2,-0.5 0.5,-1 1,-1.4 0.4,-0.4 1,-0.7 1.6,-1 0.6,-0.2 1.4,-0.4 2.3,-0.4 0.8,0 1.5,0.1 2,0.3 0.6,0.2 1,0.4 1.4,0.6 0.4,0.2 0.7,0.5 0.9,0.7 0.2,0.2 0.4,0.4 0.4,0.5 l -1.9,1.7 c -0.1,-0.1 -0.2,-0.2 -0.4,-0.3 -0.2,-0.2 -0.4,-0.3 -0.6,-0.5 -0.2,-0.1 -0.5,-0.3 -0.9,-0.4 -0.3,-0.1 -0.7,-0.2 -1.2,-0.2 -0.4,0 -0.7,0.1 -1,0.2 -0.3,0.1 -0.5,0.2 -0.7,0.4 -0.2,0.2 -0.3,0.3 -0.4,0.5 -0.1,0.2 -0.1,0.4 -0.1,0.6 0,0.3 0,0.5 0.1,0.7 0.1,0.2 0.3,0.4 0.5,0.6 0.2,0.2 0.5,0.3 1,0.5 0.4,0.1 0.9,0.3 1.5,0.4 0.6,0.1 1.1,0.3 1.7,0.5 0.5,0.2 1,0.5 1.4,0.9 0.4,0.4 0.7,0.8 1,1.4 0.2,0.5 0.4,1.2 0.4,2 0,0.7 -0.1,1.3 -0.4,1.8 -0.3,0.6 -0.6,1 -1.1,1.5 -0.5,0.4 -1,0.7 -1.7,1 -0.7,0.2 -1.4,0.3 -2.2,0.3 -0.7,0 -1.4,-0.1 -2,-0.3 -0.6,-0.2 -1.2,-0.4 -1.6,-0.7 -0.5,-0.3 -0.9,-0.6 -1.3,-0.9 -0.4,-0.3 -0.6,-0.6 -0.9,-0.9 z m 29.4,1.5 c -0.2,0.3 -0.5,0.7 -0.9,1.1 -0.4,0.4 -0.9,0.7 -1.4,1 -0.5,0.3 -1.1,0.6 -1.8,0.8 -0.6,0.2 -1.3,0.3 -2,0.3 -1.1,0 -2.1,-0.2 -3.1,-0.6 -0.9,-0.4 -1.7,-0.9 -2.4,-1.6 -0.7,-0.7 -1.2,-1.5 -1.6,-2.5 -0.4,-0.9 -0.6,-2 -0.6,-3.1 0,-1.1 0.2,-2.1 0.6,-3.1 0.4,-1 0.9,-1.8 1.6,-2.5 0.7,-0.7 1.5,-1.3 2.4,-1.7 0.9,-0.4 2,-0.6 3.1,-0.6 0.7,0 1.4,0.1 2,0.2 0.6,0.2 1.2,0.4 1.7,0.6 0.5,0.3 0.9,0.6 1.3,1 0.4,0.4 0.7,0.8 1,1.2 l -2,1.8 c -0.5,-0.7 -1,-1.2 -1.7,-1.7 -0.6,-0.4 -1.4,-0.6 -2.4,-0.6 -0.7,0 -1.4,0.1 -2,0.4 -0.6,0.3 -1.1,0.7 -1.5,1.2 -0.4,0.5 -0.7,1.1 -0.9,1.7 -0.2,0.6 -0.3,1.3 -0.3,2.1 0,0.7 0.1,1.4 0.3,2 0.2,0.6 0.5,1.2 0.9,1.6 0.4,0.5 0.9,0.8 1.4,1.1 0.6,0.3 1.2,0.4 1.9,0.4 0.6,0 1.2,-0.1 1.6,-0.2 0.5,-0.1 0.8,-0.3 1.2,-0.6 0.3,-0.2 0.6,-0.5 0.8,-0.7 0.2,-0.2 0.4,-0.5 0.6,-0.6 z m 8.9,3.1 c -1.1,0 -2.1,-0.2 -3,-0.6 -0.9,-0.4 -1.8,-1 -2.5,-1.7 -0.7,-0.7 -1.3,-1.6 -1.7,-2.5 -0.4,-1 -0.6,-2 -0.6,-3.1 0,-1.1 0.2,-2.1 0.6,-3.1 0.4,-1 1,-1.8 1.6,-2.5 0.7,-0.7 1.5,-1.3 2.5,-1.7 0.9,-0.4 2,-0.6 3.1,-0.6 1.1,0 2.1,0.2 3,0.6 0.9,0.4 1.8,1 2.5,1.7 0.7,0.7 1.3,1.5 1.7,2.5 0.4,1 0.6,2 0.6,3.1 0,1.1 -0.2,2.1 -0.6,3.1 -0.4,1 -1,1.8 -1.7,2.5 -0.7,0.7 -1.5,1.3 -2.5,1.7 -0.9,0.4 -1.9,0.6 -3,0.6 z m 0,-2.7 c 0.7,0 1.4,-0.1 2,-0.4 0.6,-0.3 1.1,-0.7 1.5,-1.2 0.4,-0.5 0.7,-1 1,-1.7 0.2,-0.6 0.3,-1.3 0.3,-2 0,-0.7 -0.1,-1.4 -0.3,-2 -0.2,-0.6 -0.5,-1.2 -1,-1.7 -0.4,-0.5 -0.9,-0.9 -1.5,-1.1 -0.6,-0.3 -1.3,-0.4 -2,-0.4 -0.7,0 -1.4,0.1 -2,0.4 -0.6,0.3 -1.1,0.7 -1.5,1.1 -0.4,0.5 -0.7,1 -1,1.7 -0.2,0.6 -0.3,1.3 -0.3,2 0,0.7 0.1,1.4 0.3,2 0.2,0.6 0.5,1.2 1,1.7 0.4,0.5 0.9,0.9 1.5,1.2 0.6,0.3 1.2,0.4 2,0.4 z m 10.8,-12.6 h 2.6 l 4.1,7.1 4.1,-7.1 h 2.6 l 0.7,14.9 h -2.8 l -0.5,-10.4 -3.6,6.1 h -1.3 l -3.6,-5.9 -0.5,10.2 h -2.6 z m 17.2,0 h 4.8 c 1,0 1.9,0.2 2.6,0.5 0.7,0.3 1.2,0.7 1.6,1.2 0.4,0.5 0.7,1 0.8,1.5 0.1,0.5 0.2,1 0.2,1.5 0,0.8 -0.1,1.6 -0.4,2.2 -0.3,0.6 -0.7,1.1 -1.2,1.5 -0.5,0.4 -1,0.7 -1.6,0.8 -0.6,0.2 -1.2,0.3 -1.8,0.3 h -2.3 v 5.6 h -2.7 z m 4.7,7 c 0.7,0 1.3,-0.2 1.7,-0.6 0.4,-0.4 0.6,-1 0.6,-1.6 0,-0.7 -0.2,-1.3 -0.7,-1.7 -0.4,-0.4 -1,-0.7 -1.7,-0.7 h -2 v 4.6 z m 10.2,-7 h 2.9 l 5.7,14.9 h -3.1 L 427.6,138 H 422 l -1.3,3.8 h -3 z m 3.3,8.8 -2,-5.8 -2,5.8 z m 7,-8.8 h 2.8 l 7.2,10.6 v -10.6 h 2.8 v 14.9 h -2.8 L 436.4,131 v 10.8 h -2.8 v -14.9 z m 19.7,8.3 -5.2,-8.4 h 3.1 l 3.6,6 3.6,-6 h 3 l -5.2,8.4 v 6.6 h -2.9 z"
   inkscape:connector-curvature="0"
   style="fill:#000000" />
	<rect
   id="Rule_1_"
   x="27.299999"
   y="114.2"
   class="st5"
   width="434.60001"
   height="2.4000001"
   style="fill:#000000" />
	<path
   id="Candriam_wordmark_1_"
   class="st6"
   d="m 366.7,89.5 h -4.9 L 347.3,66.8 V 100 h -7.1 V 50.6 h 4.9 l 19.1,30.1 19.1,-30.1 h 4.9 V 100 h -7.1 V 66.8 Z M 326.2,100 h 7.3 L 313,50.6 h -4.9 L 287.7,100 h 7.3 l 5.2,-12.7 H 321 Z m -15.6,-37.7 7.6,18.4 H 303 Z M 273.9,100 H 281 V 50.6 h -7.1 z M 241.5,76.8 259,100 h 8.5 L 249.8,76.4 c 2.5,-0.4 4.2,-1.3 5.8,-2.6 3,-2.4 4.9,-6.1 4.9,-10.2 0,-4.1 -1.9,-7.8 -4.9,-10.2 -2.3,-1.8 -5.1,-2.9 -9.6,-2.9 H 228.7 V 100 h 7.1 V 76.8 Z M 235.8,70 V 57.3 h 9.9 c 3.2,0 4.8,0.7 5.9,1.8 1.1,1.1 1.8,2.8 1.8,4.5 0,1.8 -0.7,3.4 -1.8,4.5 -1.1,1.1 -2.8,1.8 -5.9,1.8 h -9.9 z m -42.7,30 c 7.8,0 13,-1.7 17,-4.7 6.1,-4.5 9.8,-11.9 9.8,-20 0,-8.2 -3.8,-15.5 -9.9,-20 -4,-3 -9.1,-4.7 -16.9,-4.7 H 178.3 V 100 Z m 13.8,-38.5 c 3.7,3.3 6,8.3 6,13.8 0,5.5 -2.3,10.5 -6,13.8 -3.1,2.7 -7.2,4.2 -14.1,4.2 h -7.4 v -36 h 7.4 c 6.9,0 11,1.5 14.1,4.2 M 160.7,100 h 4.9 V 50.6 h -7.1 V 86.9 L 128.9,50.6 H 124 V 100 h 7.1 V 63.8 Z m -50.8,0 h 7.3 L 96.8,50.6 H 91.9 L 71.4,100 h 7.3 l 5.2,-12.7 h 20.8 z M 94.3,62.3 101.9,80.7 H 86.7 Z M 49.8,49.9 c -14.3,0 -25,11.2 -25,25.4 0,14.6 10.9,25.4 25.6,25.4 7.6,0 15,-3.7 19.2,-9.2 L 64.6,87 C 61.8,90.3 57,94 50.4,94 39.9,94 31.8,86.4 31.8,75.3 31.8,64.6 39.6,56.6 49.7,56.6 55,56.6 60.1,59 63,62.2 l 4.7,-4.7 C 63.6,52.8 56.9,49.9 49.8,49.9"
   inkscape:connector-curvature="0"
   style="fill:#000000" />
</g>
</svg>