<?xml version="1.0" encoding="utf-8"?>
<!-- Generator: Adobe Illustrator 21.1.0, SVG Export Plug-In . SVG Version: 6.00 Build 0)  -->
<svg version="1.1" baseProfile="tiny" id="EH_logo_mono"
	 xmlns="http://www.w3.org/2000/svg" xmlns:xlink="http://www.w3.org/1999/xlink" x="0px" y="0px" viewBox="0 0 166 38"
	 xml:space="preserve">
<path id="EH" fill="#000000" d="M0,0v38h38V0H0z M7.6,10.6h9.1v1.5H9.1v13.7h7.6v1.5H7.6V10.6z M19.8,27.4h-1.5v-7.6h-7.6v-1.5h7.6
	v-7.6h1.5v7.6h7.6v1.5h-7.6V27.4z M30.4,10.6v16.7h-1.5V10.6H30.4z"/>
<polygon id="E" fill="#000000" points="45.6,12.7 52.5,12.7 52.3,14 47.1,14 47.1,18.1 51.4,18.1 51.4,19.4 47.1,19.4 47.1,24.1 
	52.7,24.1 52.7,25.4 45.6,25.4 "/>
<path id="U" fill="#000000" d="M54.9,12.6h1.5v8.2c0,0.9,0.1,1.6,0.1,2c0.2,1,1.1,1.6,2.6,1.6c1,0,1.8-0.3,2.2-0.8
	c0.4-0.5,0.5-1,0.5-2.2v-8.7h1.5v8.9c0,1.8-0.2,2.4-1,3.1c-0.8,0.7-1.8,1-3.3,1c-1.9,0-3.1-0.6-3.7-1.8c-0.3-0.6-0.4-0.8-0.4-2.2
	V12.6z"/>
<polygon id="L" fill="#000000" points="66.2,12.6 67.7,12.6 67.7,24.1 72.7,24.1 72.5,25.4 66.2,25.4 "/>
<polygon id="E2" fill="#000000" points="74.4,12.7 81.3,12.7 81.1,14 75.9,14 75.9,18.1 80.2,18.1 80.2,19.4 75.9,19.4 75.9,24.1 
	81.4,24.1 81.4,25.4 74.4,25.4 "/>
<path id="R" fill="#000000" d="M83.9,12.7h2.9c1.7,0,2.6,0.3,3.2,0.8c0.6,0.5,1.3,1.3,1.3,2.7c0,2.1-1.3,3.5-3.3,3.5h-0.2
	c0.6,0.5,1,1.1,1.3,1.4c0.3,0.4,0.6,0.9,1,1.5c0.5,0.7,1.9,2.8,1.9,2.8H90c-0.3-0.7-0.4-0.9-1-1.8c-0.8-1.2-1.6-2.3-2.2-3.2
	c-0.5-0.6-0.8-0.8-1.4-0.8v5.7h-1.5V12.7z M85.4,13.9v4.8h1.3c1.1,0,1.8-0.2,2.3-0.7c0.4-0.4,0.6-1.1,0.6-1.9c0-0.8-0.5-1.7-1.2-1.9
	c-0.4-0.2-0.9-0.3-1.6-0.3H85.4z"/>
<polygon id="H" fill="#000000" points="98.5,12.6 100,12.6 100,18 105.3,18 105.3,12.6 106.8,12.6 106.8,25.4 105.3,25.4 
	105.3,19.2 100,19.2 100,25.4 98.5,25.4 "/>
<polygon id="E3" fill="#000000" points="110.5,12.7 117.4,12.7 117.2,14 112,14 112,18.1 116.3,18.1 116.3,19.4 112,19.4 112,24.1 
	117.6,24.1 117.6,25.4 110.5,25.4 "/>
<path id="R2" fill="#000000" d="M120.4,12.7h2.9c1.7,0,2.6,0.3,3.2,0.8c0.6,0.5,1.2,1.3,1.2,2.7c0,2.1-1.3,3.5-3.3,3.5h-0.2
	c0.6,0.5,1,1.1,1.3,1.4c0.3,0.4,0.6,0.9,1,1.5c0.5,0.7,1.9,2.8,1.9,2.8h-1.9c-0.3-0.7-0.4-0.9-1-1.8c-0.8-1.2-1.6-2.3-2.2-3.2
	c-0.5-0.6-0.8-0.8-1.4-0.8v5.7h-1.5V12.7z M121.9,13.9v4.8h1.3c1.1,0,1.8-0.2,2.3-0.7c0.4-0.4,0.6-1.1,0.6-1.9
	c0-0.8-0.5-1.7-1.2-1.9c-0.4-0.2-0.9-0.3-1.6-0.3H121.9z"/>
<path id="M" fill="#000000" d="M131.5,12.6h2.2L136,21c0.2,0.9,0.3,1.2,0.5,2.2c0.2-1.1,0.3-1.4,0.5-2.1l2.4-8.5h2.2l1.1,12.8h-1.5
	l-0.7-9.4c-0.1-0.8-0.1-2.2-0.1-2.2c-0.1,0.6-0.3,1.5-0.5,2l-2.7,9.5h-1.3l-2.5-9.1c-0.3-1-0.4-1.6-0.6-2.5c0,0-0.1,1.7-0.1,2.5
	l-0.7,9.1h-1.4L131.5,12.6z"/>
<polygon id="E4" fill="#000000" points="145.4,12.7 152.3,12.7 152.1,14 147,14 147,18.1 151.3,18.1 151.3,19.4 147,19.4 147,24.1 
	152.5,24.1 152.5,25.4 145.4,25.4 "/>
<path id="S" fill="#000000" d="M162.5,13.6l-0.7,1.1c-1.2-0.8-2-1.1-3.1-1.1c-1.6,0-2.5,0.8-2.5,2.1c0,1,0.6,1.6,2.1,2.1l1.4,0.5
	c1.1,0.4,1.7,0.7,2.2,1.3c0.5,0.6,0.8,1.4,0.8,2.2c0,1.2-0.6,2.3-1.7,3.1c-0.8,0.5-1.7,0.8-2.8,0.8c-1.5,0-2.8-0.4-4-1.2l0.7-1.2
	c1,0.8,2.1,1.1,3.4,1.1c1,0,1.5-0.1,2-0.6c0.6-0.5,0.9-1.1,0.9-1.8c0-1.1-0.7-1.9-2.3-2.4l-1.3-0.4c-1.1-0.4-1.7-0.6-2.2-1.1
	c-0.5-0.6-0.8-1.3-0.8-2.1c0-2.2,1.6-3.7,4.1-3.7C160.1,12.4,161.3,12.8,162.5,13.6"/>
</svg>
