<svg id="svg" xmlns="http://www.w3.org/2000/svg" xmlns:xlink="http://www.w3.org/1999/xlink" viewBox="0, 0, 400,400"><g id="svgg"><path id="path0" d="M286.600 83.216 C 276.706 83.778,266.902 86.024,259.200 89.495 C 257.990 90.040,256.370 90.770,255.600 91.116 C 254.830 91.463,253.448 92.254,252.528 92.873 C 251.608 93.493,250.739 94.000,250.595 94.000 C 248.782 94.000,238.160 103.714,234.798 108.446 C 232.619 111.514,228.410 119.695,228.404 120.876 C 228.402 121.248,228.243 121.650,228.052 121.768 C 227.860 121.886,227.572 122.572,227.411 123.292 C 227.250 124.011,226.945 125.320,226.734 126.200 C 224.399 135.928,224.264 148.395,226.397 157.200 C 227.290 160.883,227.663 162.263,227.965 163.000 C 228.145 163.440,228.472 164.250,228.691 164.800 C 235.431 181.721,249.921 193.262,279.000 204.869 C 281.200 205.747,283.630 206.739,284.400 207.074 C 285.170 207.408,286.160 207.825,286.600 208.000 C 287.040 208.175,288.030 208.590,288.800 208.923 C 289.570 209.255,291.337 209.986,292.726 210.546 C 304.918 215.464,314.219 221.132,321.300 227.958 C 322.565 229.177,323.600 230.323,323.600 230.504 C 323.600 230.685,323.950 231.209,324.378 231.668 C 325.368 232.731,327.980 237.998,328.474 239.928 C 330.120 246.360,330.155 246.654,330.138 254.200 C 330.126 259.663,329.942 262.587,329.484 264.600 C 328.261 269.974,328.272 269.940,326.269 274.400 C 319.015 290.558,302.986 296.955,278.200 293.581 C 271.101 292.615,262.178 290.339,257.704 288.353 C 256.772 287.939,255.849 287.600,255.654 287.600 C 254.026 287.600,241.962 280.709,237.225 277.074 C 235.588 275.818,234.123 274.928,233.969 275.095 C 233.815 275.263,232.748 277.650,231.598 280.400 C 230.448 283.150,229.078 286.350,228.554 287.512 C 228.029 288.673,227.600 289.710,227.600 289.816 C 227.600 289.922,227.219 290.862,226.753 291.904 C 226.288 292.947,225.638 294.430,225.310 295.200 C 224.981 295.970,224.462 297.123,224.156 297.761 C 223.850 298.400,223.602 299.120,223.605 299.361 C 223.614 300.218,238.788 308.400,240.367 308.400 C 240.611 308.400,241.123 308.559,241.505 308.753 C 241.887 308.948,242.740 309.329,243.400 309.600 C 244.060 309.871,244.913 310.252,245.295 310.447 C 245.677 310.641,246.264 310.800,246.600 310.800 C 246.936 310.800,247.523 310.962,247.905 311.159 C 248.555 311.495,252.138 312.586,255.800 313.564 C 259.512 314.556,268.578 316.066,275.600 316.864 C 282.119 317.605,300.862 317.450,306.000 316.614 C 314.361 315.253,318.645 314.241,322.300 312.764 C 323.783 312.164,325.146 311.621,326.100 311.249 C 338.606 306.371,351.385 294.285,355.756 283.200 C 356.146 282.210,356.708 280.860,357.005 280.200 C 357.867 278.281,359.887 271.946,360.194 270.200 C 360.349 269.320,360.633 267.700,360.825 266.600 C 362.285 258.240,362.362 245.158,360.993 238.200 C 360.147 233.901,359.187 230.345,358.730 229.820 C 358.549 229.611,358.400 229.188,358.400 228.881 C 358.400 226.895,353.383 218.472,349.426 213.815 C 341.800 204.839,335.090 199.976,320.200 192.635 C 313.995 189.575,311.637 188.458,307.600 186.664 C 305.131 185.567,294.397 181.200,294.169 181.200 C 294.048 181.200,292.965 180.750,291.763 180.200 C 290.560 179.650,289.497 179.200,289.400 179.200 C 289.197 179.200,285.890 177.719,281.711 175.757 C 280.123 175.010,278.638 174.400,278.411 174.400 C 278.185 174.400,278.000 174.264,278.000 174.098 C 278.000 173.931,277.415 173.539,276.700 173.226 C 272.663 171.460,264.536 164.879,261.546 160.955 C 255.070 152.456,254.070 137.424,259.227 126.104 C 259.652 125.172,260.000 124.307,260.000 124.182 C 260.000 123.008,265.761 116.190,268.618 113.982 C 270.383 112.618,273.076 110.912,274.400 110.321 C 277.565 108.906,278.649 108.466,279.600 108.213 C 280.150 108.066,281.230 107.768,282.000 107.551 C 288.933 105.594,302.428 105.441,311.300 107.219 C 316.687 108.299,318.290 108.707,320.600 109.585 C 321.040 109.752,322.120 110.106,323.000 110.372 C 323.880 110.637,325.410 111.225,326.400 111.678 C 327.390 112.131,328.650 112.680,329.200 112.899 C 331.991 114.010,336.630 116.643,339.694 118.855 C 342.996 121.239,342.982 121.239,344.036 118.900 C 344.507 117.855,346.767 113.155,349.058 108.454 C 352.316 101.769,353.123 99.789,352.765 99.358 C 351.376 97.684,344.333 93.543,338.200 90.795 C 335.099 89.405,333.019 88.663,328.200 87.224 C 325.969 86.558,320.217 85.304,317.200 84.825 C 315.550 84.563,313.210 84.189,312.000 83.992 C 309.910 83.653,305.096 83.364,296.200 83.043 C 294.000 82.964,289.680 83.042,286.600 83.216 M38.400 200.401 L 38.400 314.061 71.300 313.841 C 105.273 313.615,111.741 313.352,121.600 311.799 C 125.371 311.205,131.538 309.996,132.800 309.604 C 133.350 309.433,134.610 309.064,135.600 308.785 C 158.164 302.416,173.413 289.969,179.198 273.200 C 179.463 272.430,179.822 271.440,179.995 271.000 C 180.522 269.657,181.373 266.223,182.374 261.400 C 183.949 253.818,183.556 239.197,181.616 233.200 C 181.438 232.650,181.061 231.390,180.777 230.400 C 180.493 229.410,180.112 228.429,179.930 228.220 C 179.749 228.011,179.600 227.595,179.600 227.295 C 179.600 226.586,177.347 221.853,176.028 219.793 C 175.463 218.910,174.820 217.900,174.600 217.550 C 169.222 208.982,159.833 200.983,149.722 196.357 C 144.582 194.005,143.974 193.774,140.400 192.805 C 139.410 192.536,138.187 192.155,137.681 191.958 C 137.176 191.761,136.276 191.597,135.681 191.594 C 134.583 191.588,131.824 190.758,131.360 190.294 C 131.220 190.154,131.622 189.922,132.253 189.780 C 143.796 187.171,156.826 179.061,163.289 170.463 C 175.836 153.771,174.060 123.413,159.624 107.831 C 156.378 104.328,155.279 103.343,151.515 100.563 C 148.697 98.482,141.053 94.674,137.600 93.630 C 136.830 93.397,135.300 92.921,134.200 92.573 C 133.100 92.225,131.390 91.763,130.400 91.547 C 129.410 91.331,127.790 90.976,126.800 90.758 C 120.259 89.322,113.393 88.376,103.600 87.562 C 100.850 87.333,85.055 87.055,68.500 86.944 L 38.400 86.742 38.400 200.401 M96.800 109.204 C 107.073 109.808,112.025 110.509,118.800 112.321 C 128.822 115.002,137.156 122.088,139.590 130.000 C 139.895 130.990,140.270 131.980,140.425 132.200 C 140.579 132.420,140.823 133.320,140.966 134.200 C 141.109 135.080,141.406 136.880,141.626 138.200 C 144.190 153.610,139.912 165.661,129.400 172.634 C 126.784 174.369,122.567 176.325,120.000 176.994 C 119.450 177.137,118.370 177.434,117.600 177.654 C 109.284 180.027,98.595 180.901,80.000 180.726 L 66.600 180.600 66.497 145.000 C 66.440 125.420,66.489 109.151,66.605 108.847 C 66.838 108.234,83.692 108.434,96.800 109.204 M112.400 205.521 C 113.610 205.758,115.950 206.170,117.600 206.437 C 119.250 206.704,122.310 207.362,124.400 207.900 C 126.490 208.438,128.608 208.972,129.106 209.087 C 129.604 209.202,130.110 209.454,130.230 209.648 C 130.349 209.841,130.719 210.000,131.050 210.000 C 133.076 210.000,141.299 214.855,144.145 217.732 C 152.999 226.680,156.232 243.487,152.505 261.200 C 149.563 275.180,140.995 283.712,125.600 287.992 C 124.610 288.268,123.350 288.637,122.800 288.813 C 122.250 288.989,121.080 289.254,120.200 289.402 C 119.320 289.549,117.790 289.839,116.800 290.045 C 110.089 291.445,101.194 291.939,82.100 291.972 L 66.400 292.000 66.400 248.356 L 66.400 204.713 88.300 204.902 C 101.483 205.015,111.076 205.262,112.400 205.521 " stroke="none" fill="#000" fill-rule="evenodd"></path><path id="path1" d="M30.300 0.290 C 29.475 0.377,28.800 0.617,28.800 0.824 C 28.800 1.031,28.260 1.200,27.600 1.200 C 26.940 1.200,26.400 1.380,26.400 1.600 C 26.400 1.820,25.860 2.000,25.200 2.000 C 24.540 2.000,24.000 2.180,24.000 2.400 C 24.000 2.620,23.640 2.800,23.200 2.800 C 22.760 2.800,22.400 2.980,22.400 3.200 C 22.400 3.420,22.040 3.600,21.600 3.600 C 21.160 3.600,20.800 3.780,20.800 4.000 C 20.800 4.220,20.440 4.400,20.000 4.400 C 19.560 4.400,19.200 4.580,19.200 4.800 C 19.200 5.020,18.957 5.200,18.659 5.200 C 18.362 5.200,17.554 5.740,16.863 6.400 C 16.172 7.060,15.411 7.600,15.171 7.600 C 14.602 7.600,7.600 14.602,7.600 15.171 C 7.600 15.411,7.060 16.172,6.400 16.863 C 5.740 17.554,5.200 18.362,5.200 18.659 C 5.200 18.957,5.020 19.200,4.800 19.200 C 4.580 19.200,4.400 19.560,4.400 20.000 C 4.400 20.440,4.220 20.800,4.000 20.800 C 3.780 20.800,3.600 21.160,3.600 21.600 C 3.600 22.040,3.420 22.400,3.200 22.400 C 2.980 22.400,2.800 22.760,2.800 23.200 C 2.800 23.640,2.620 24.000,2.400 24.000 C 2.180 24.000,2.000 24.540,2.000 25.200 C 2.000 25.860,1.820 26.400,1.600 26.400 C 1.380 26.400,1.200 26.925,1.200 27.567 C 1.200 28.208,0.975 28.808,0.700 28.900 C -0.036 29.145,-0.036 370.524,0.700 371.260 C 0.975 371.535,1.200 372.163,1.200 372.656 C 1.200 373.149,1.380 373.664,1.600 373.800 C 1.820 373.936,2.000 374.487,2.000 375.024 C 2.000 375.561,2.180 376.000,2.400 376.000 C 2.620 376.000,2.800 376.360,2.800 376.800 C 2.800 377.240,2.980 377.600,3.200 377.600 C 3.420 377.600,3.600 377.960,3.600 378.400 C 3.600 378.840,3.780 379.200,4.000 379.200 C 4.220 379.200,4.400 379.560,4.400 380.000 C 4.400 380.440,4.580 380.800,4.800 380.800 C 5.020 380.800,5.200 381.043,5.200 381.341 C 5.200 381.638,5.740 382.446,6.400 383.137 C 7.060 383.828,7.600 384.583,7.600 384.815 C 7.600 385.421,14.501 392.395,15.104 392.398 C 15.381 392.399,16.172 392.940,16.863 393.600 C 17.554 394.260,18.362 394.800,18.659 394.800 C 18.957 394.800,19.200 394.980,19.200 395.200 C 19.200 395.420,19.560 395.600,20.000 395.600 C 20.440 395.600,20.800 395.780,20.800 396.000 C 20.800 396.220,21.160 396.400,21.600 396.400 C 22.040 396.400,22.400 396.580,22.400 396.800 C 22.400 397.020,22.760 397.200,23.200 397.200 C 23.640 397.200,24.000 397.380,24.000 397.600 C 24.000 397.820,24.540 398.000,25.200 398.000 C 25.860 398.000,26.400 398.180,26.400 398.400 C 26.400 398.620,26.925 398.800,27.567 398.800 C 28.208 398.800,28.808 399.025,28.900 399.300 C 29.145 400.036,370.524 400.036,371.260 399.300 C 371.535 399.025,372.163 398.800,372.656 398.800 C 373.149 398.800,373.664 398.620,373.800 398.400 C 373.936 398.180,374.487 398.000,375.024 398.000 C 375.561 398.000,376.000 397.820,376.000 397.600 C 376.000 397.380,376.360 397.200,376.800 397.200 C 377.240 397.200,377.600 397.020,377.600 396.800 C 377.600 396.580,377.960 396.400,378.400 396.400 C 378.840 396.400,379.200 396.220,379.200 396.000 C 379.200 395.780,379.560 395.600,380.000 395.600 C 380.440 395.600,380.800 395.420,380.800 395.200 C 380.800 394.980,381.043 394.800,381.341 394.800 C 381.638 394.800,382.446 394.260,383.137 393.600 C 383.828 392.940,384.579 392.400,384.807 392.400 C 385.738 392.400,392.400 385.738,392.400 384.807 C 392.400 384.579,392.940 383.828,393.600 383.137 C 394.260 382.446,394.800 381.638,394.800 381.341 C 394.800 381.043,394.980 380.800,395.200 380.800 C 395.420 380.800,395.600 380.440,395.600 380.000 C 395.600 379.560,395.780 379.200,396.000 379.200 C 396.220 379.200,396.400 378.840,396.400 378.400 C 396.400 377.960,396.580 377.600,396.800 377.600 C 397.020 377.600,397.200 377.240,397.200 376.800 C 397.200 376.360,397.380 376.000,397.600 376.000 C 397.820 376.000,398.000 375.561,398.000 375.024 C 398.000 374.487,398.180 373.936,398.400 373.800 C 398.620 373.664,398.800 373.149,398.800 372.656 C 398.800 372.163,399.025 371.535,399.300 371.260 C 399.698 370.862,399.800 336.057,399.800 199.913 C 399.800 63.592,399.699 29.033,399.300 28.900 C 399.025 28.808,398.800 28.208,398.800 27.567 C 398.800 26.925,398.620 26.400,398.400 26.400 C 398.180 26.400,398.000 25.860,398.000 25.200 C 398.000 24.540,397.820 24.000,397.600 24.000 C 397.380 24.000,397.200 23.640,397.200 23.200 C 397.200 22.760,397.020 22.400,396.800 22.400 C 396.580 22.400,396.400 22.040,396.400 21.600 C 396.400 21.160,396.220 20.800,396.000 20.800 C 395.780 20.800,395.600 20.440,395.600 20.000 C 395.600 19.560,395.420 19.200,395.200 19.200 C 394.980 19.200,394.800 18.957,394.800 18.659 C 394.800 18.362,394.260 17.554,393.600 16.863 C 392.940 16.172,392.399 15.381,392.398 15.104 C 392.395 14.501,385.421 7.600,384.815 7.600 C 384.583 7.600,383.828 7.060,383.137 6.400 C 382.446 5.740,381.638 5.200,381.341 5.200 C 381.043 5.200,380.800 5.020,380.800 4.800 C 380.800 4.580,380.440 4.400,380.000 4.400 C 379.560 4.400,379.200 4.220,379.200 4.000 C 379.200 3.780,378.840 3.600,378.400 3.600 C 377.960 3.600,377.600 3.420,377.600 3.200 C 377.600 2.980,377.240 2.800,376.800 2.800 C 376.360 2.800,376.000 2.620,376.000 2.400 C 376.000 2.180,375.561 2.000,375.024 2.000 C 374.487 2.000,373.936 1.820,373.800 1.600 C 373.664 1.380,373.149 1.200,372.656 1.200 C 372.163 1.200,371.535 0.975,371.260 0.700 C 370.787 0.227,34.721 -0.177,30.300 0.290 M306.420 82.820 C 317.396 83.676,329.861 86.407,336.800 89.476 C 337.570 89.816,338.830 90.362,339.600 90.688 C 341.818 91.628,342.984 92.183,343.200 92.400 C 343.310 92.511,343.940 92.867,344.600 93.192 C 346.637 94.195,354.000 99.197,354.000 99.578 C 354.000 99.776,352.945 102.067,351.656 104.669 C 350.367 107.271,348.017 112.051,346.433 115.291 C 342.931 122.456,343.421 122.161,339.463 119.502 C 336.169 117.289,332.240 114.968,330.400 114.147 C 326.480 112.399,325.316 111.869,324.705 111.556 C 324.323 111.360,323.659 111.200,323.229 111.200 C 322.799 111.200,322.336 111.020,322.200 110.800 C 322.064 110.580,321.524 110.400,321.000 110.400 C 320.476 110.400,319.949 110.241,319.829 110.046 C 319.708 109.851,319.113 109.590,318.505 109.464 C 317.897 109.339,316.545 109.048,315.500 108.818 C 310.901 107.806,309.560 107.575,305.600 107.108 C 301.013 106.568,290.465 106.471,287.600 106.943 C 284.865 107.393,280.047 108.627,278.400 109.299 C 277.850 109.523,276.950 109.884,276.400 110.100 C 271.382 112.073,265.336 117.057,262.457 121.594 C 262.106 122.147,261.721 122.690,261.601 122.800 C 261.117 123.246,258.862 128.319,258.401 130.000 C 258.129 130.990,257.762 132.250,257.584 132.800 C 256.949 134.767,256.664 137.877,256.669 142.800 C 256.674 148.929,257.296 151.980,259.317 155.800 C 259.549 156.240,260.113 157.320,260.570 158.200 C 261.026 159.080,261.490 159.890,261.600 160.000 C 261.710 160.110,262.678 161.246,263.751 162.524 C 265.783 164.943,270.068 168.571,272.683 170.086 C 273.517 170.569,274.290 171.062,274.400 171.182 C 274.859 171.682,280.382 174.506,284.600 176.398 C 285.700 176.891,287.292 177.633,288.138 178.047 C 288.984 178.461,289.841 178.800,290.042 178.800 C 290.244 178.800,291.262 179.178,292.304 179.640 C 293.347 180.102,294.560 180.627,295.000 180.806 C 295.440 180.986,298.230 182.120,301.200 183.325 C 304.170 184.531,307.590 185.966,308.800 186.514 C 310.010 187.062,311.900 187.905,313.000 188.387 C 315.716 189.577,327.351 195.313,327.600 195.584 C 327.710 195.703,328.340 196.064,329.000 196.386 C 340.539 202.005,358.800 221.366,358.800 227.980 C 358.800 228.217,358.959 228.723,359.153 229.105 C 359.894 230.561,360.353 231.842,360.548 233.000 C 360.660 233.660,360.955 235.010,361.204 236.000 C 363.068 243.408,363.075 259.561,361.217 268.200 C 360.981 269.300,360.676 270.969,360.541 271.909 C 360.405 272.849,360.138 273.715,359.947 273.833 C 359.756 273.951,359.600 274.451,359.600 274.944 C 359.600 275.437,359.457 276.011,359.282 276.220 C 359.107 276.429,358.732 277.320,358.448 278.200 C 357.932 279.805,357.195 281.594,356.156 283.761 C 355.850 284.400,355.600 285.081,355.600 285.274 C 355.600 285.736,352.368 290.667,349.751 294.200 C 344.470 301.328,334.374 308.742,324.900 312.448 C 324.405 312.642,323.505 313.004,322.900 313.254 C 320.669 314.173,320.179 314.344,319.200 314.542 C 318.650 314.653,317.480 314.949,316.600 315.199 C 302.928 319.082,277.136 319.103,260.200 315.245 C 259.320 315.045,257.696 314.695,256.590 314.468 C 255.485 314.241,253.145 313.593,251.390 313.027 C 249.636 312.462,247.570 311.808,246.800 311.574 C 246.030 311.339,244.995 310.979,244.500 310.774 C 244.005 310.568,243.150 310.220,242.600 310.000 C 242.050 309.780,241.150 309.420,240.600 309.200 C 240.050 308.980,239.195 308.641,238.700 308.447 C 236.913 307.747,228.963 303.807,227.400 302.847 C 222.230 299.672,222.414 300.029,224.077 296.400 C 224.530 295.410,225.036 294.240,225.200 293.800 C 225.364 293.360,225.904 292.100,226.400 291.000 C 226.896 289.900,227.440 288.640,227.610 288.200 C 227.986 287.224,228.849 285.201,229.913 282.800 C 230.352 281.810,231.273 279.650,231.960 278.000 C 233.778 273.633,233.684 273.723,235.259 274.830 C 235.996 275.349,236.832 275.998,237.115 276.273 C 237.398 276.547,238.163 277.087,238.815 277.472 C 239.467 277.857,240.000 278.314,240.000 278.486 C 240.000 278.659,240.174 278.800,240.388 278.800 C 240.601 278.800,241.996 279.587,243.488 280.550 C 246.489 282.486,252.496 285.578,255.717 286.844 C 256.863 287.294,258.340 287.893,259.000 288.175 C 261.851 289.393,262.490 289.600,263.395 289.600 C 263.922 289.600,264.451 289.759,264.571 289.954 C 264.692 290.149,265.287 290.410,265.895 290.536 C 266.503 290.661,267.900 290.961,269.000 291.200 C 277.541 293.064,280.251 293.329,290.600 293.317 C 300.049 293.306,303.430 293.068,304.180 292.359 C 304.389 292.162,304.886 292.000,305.285 292.000 C 305.684 292.000,306.323 291.834,306.705 291.632 C 307.087 291.429,308.642 290.691,310.161 289.990 C 314.974 287.770,323.200 280.508,323.200 278.478 C 323.200 278.252,323.336 278.007,323.502 277.933 C 323.790 277.806,326.058 273.306,326.896 271.200 C 327.114 270.650,327.452 269.887,327.647 269.505 C 327.841 269.123,328.000 268.369,328.000 267.829 C 328.000 267.289,328.157 266.750,328.350 266.631 C 329.241 266.080,329.811 248.867,329.067 245.000 C 327.430 236.498,323.307 229.708,316.799 224.800 C 316.070 224.250,315.277 223.611,315.037 223.381 C 314.169 222.548,308.404 218.821,305.855 217.444 C 304.421 216.670,302.922 215.854,302.524 215.631 C 300.622 214.564,292.181 210.871,287.700 209.146 C 287.205 208.956,286.350 208.620,285.800 208.400 C 285.250 208.180,284.395 207.838,283.900 207.641 C 283.405 207.443,282.280 206.972,281.400 206.593 C 280.520 206.215,279.215 205.656,278.500 205.353 C 277.785 205.049,276.615 204.544,275.900 204.231 C 275.185 203.918,273.682 203.302,272.561 202.861 C 269.502 201.659,257.230 195.627,255.400 194.426 C 254.520 193.848,253.305 193.126,252.700 192.820 C 252.095 192.515,251.600 192.115,251.600 191.932 C 251.600 191.750,251.364 191.600,251.075 191.600 C 250.787 191.600,250.202 191.280,249.775 190.889 C 249.349 190.498,248.370 189.742,247.600 189.208 C 246.830 188.675,246.110 188.137,246.000 188.014 C 245.890 187.890,244.810 186.986,243.600 186.004 C 236.305 180.084,231.660 173.885,228.311 165.600 C 228.089 165.050,227.748 164.287,227.553 163.905 C 227.359 163.523,227.200 162.859,227.200 162.429 C 227.200 161.999,227.040 161.548,226.844 161.427 C 226.649 161.306,226.388 160.621,226.266 159.904 C 226.144 159.187,225.845 157.700,225.602 156.600 C 223.730 148.129,223.712 136.719,225.557 128.400 C 226.632 123.554,226.781 123.016,227.636 120.900 C 227.836 120.405,228.150 119.595,228.333 119.100 C 231.017 111.835,238.878 101.308,244.400 97.583 C 245.170 97.064,245.890 96.528,246.000 96.393 C 246.762 95.457,252.070 92.274,256.665 89.998 C 269.508 83.637,286.136 81.238,306.420 82.820 M91.600 86.423 C 98.090 86.632,105.110 86.974,107.200 87.185 C 113.659 87.835,118.114 88.390,120.200 88.804 C 121.300 89.022,123.100 89.373,124.200 89.584 C 126.715 90.066,129.284 90.628,131.600 91.203 C 132.590 91.448,133.897 91.749,134.505 91.871 C 135.113 91.993,135.708 92.251,135.829 92.446 C 135.949 92.641,136.476 92.800,137.000 92.800 C 137.524 92.800,138.064 92.980,138.200 93.200 C 138.336 93.420,138.709 93.600,139.028 93.600 C 140.198 93.600,147.828 97.253,150.800 99.236 C 155.163 102.147,159.944 106.745,162.815 110.790 C 163.357 111.554,164.007 112.404,164.261 112.679 C 165.131 113.623,168.285 120.201,169.305 123.200 C 170.287 126.086,170.640 127.510,171.607 132.486 C 172.175 135.408,172.186 149.858,171.622 151.342 C 171.390 151.952,171.200 152.916,171.200 153.483 C 171.200 154.499,169.894 159.441,169.213 161.000 C 169.021 161.440,168.419 162.814,167.875 164.054 C 165.764 168.868,160.273 175.662,155.793 179.006 C 154.917 179.660,154.108 180.318,153.995 180.467 C 153.584 181.013,146.463 185.037,143.572 186.357 C 138.545 188.653,134.903 189.966,133.372 190.034 C 132.002 190.095,135.865 191.179,139.904 191.866 C 140.621 191.988,141.306 192.249,141.427 192.444 C 141.548 192.640,142.076 192.800,142.600 192.800 C 143.124 192.800,143.664 192.980,143.800 193.200 C 143.936 193.420,144.399 193.600,144.829 193.600 C 145.259 193.600,145.923 193.764,146.305 193.964 C 146.687 194.165,148.710 195.162,150.800 196.179 C 159.197 200.269,163.883 203.863,171.071 211.730 C 173.037 213.882,175.647 217.650,177.173 220.542 C 177.771 221.674,178.450 222.960,178.683 223.400 C 178.916 223.840,179.308 224.695,179.553 225.300 C 179.799 225.905,180.173 226.805,180.384 227.300 C 185.065 238.279,185.094 261.435,180.440 271.800 C 180.242 272.240,179.864 273.230,179.598 274.000 C 178.713 276.567,176.651 280.568,174.650 283.600 C 171.538 288.316,169.178 290.961,163.914 295.637 C 159.736 299.348,149.776 304.897,143.800 306.842 C 142.920 307.129,142.029 307.507,141.820 307.682 C 141.611 307.857,141.037 308.000,140.544 308.000 C 140.051 308.000,139.536 308.180,139.400 308.400 C 139.264 308.620,138.634 308.800,138.000 308.800 C 137.366 308.800,136.736 308.980,136.600 309.200 C 136.464 309.420,135.834 309.600,135.200 309.600 C 134.566 309.600,133.948 309.760,133.827 309.956 C 133.706 310.151,133.021 310.414,132.304 310.539 C 131.587 310.664,130.100 310.939,129.000 311.149 C 113.927 314.031,110.775 314.200,72.000 314.200 L 37.800 314.200 37.699 200.642 C 37.625 117.029,37.717 86.941,38.048 86.542 C 38.595 85.883,72.441 85.808,91.600 86.423 M67.067 109.467 C 66.920 109.613,66.800 125.543,66.800 144.867 L 66.800 180.000 80.900 179.978 C 100.806 179.947,107.941 179.395,116.800 177.197 C 117.790 176.952,119.097 176.651,119.705 176.529 C 120.313 176.407,120.908 176.149,121.029 175.954 C 121.149 175.759,121.578 175.600,121.983 175.600 C 122.774 175.600,126.547 173.720,128.393 172.405 C 129.015 171.962,129.644 171.600,129.790 171.600 C 129.937 171.600,130.283 171.375,130.559 171.100 C 130.836 170.825,131.678 170.055,132.431 169.389 C 139.569 163.079,142.579 153.931,141.377 142.200 C 140.289 131.576,138.031 125.729,133.017 120.557 C 130.550 118.012,122.278 113.754,117.800 112.724 C 108.357 110.552,105.039 110.190,89.600 109.642 C 76.635 109.182,67.423 109.110,67.067 109.467 M66.800 248.381 L 66.800 291.200 85.079 291.200 C 102.184 291.200,105.133 291.068,113.000 289.953 C 130.675 287.446,141.959 281.727,147.477 272.477 C 151.531 265.682,152.963 259.188,152.963 247.600 C 152.963 227.455,146.931 216.685,132.600 211.247 C 131.280 210.746,129.887 210.170,129.505 209.968 C 129.123 209.766,128.459 209.600,128.029 209.600 C 127.599 209.600,127.148 209.440,127.027 209.244 C 126.906 209.049,126.221 208.788,125.504 208.666 C 124.787 208.544,123.300 208.246,122.200 208.004 C 113.438 206.074,111.287 205.929,88.500 205.741 L 66.800 205.562 66.800 248.381 " stroke="none" fill="#FFF" fill-rule="evenodd"></path><path id="path2" d="M290.078 82.698 C 292.431 82.769,296.391 82.769,298.878 82.699 C 301.365 82.629,299.440 82.571,294.600 82.570 C 289.760 82.570,287.725 82.628,290.078 82.698 M281.700 83.076 C 282.085 83.176,282.715 83.176,283.100 83.076 C 283.485 82.975,283.170 82.893,282.400 82.893 C 281.630 82.893,281.315 82.975,281.700 83.076 M306.705 83.083 C 307.202 83.179,307.922 83.175,308.305 83.075 C 308.687 82.975,308.280 82.896,307.400 82.901 C 306.520 82.905,306.207 82.987,306.705 83.083 M278.705 83.483 C 279.202 83.579,279.922 83.575,280.305 83.475 C 280.687 83.375,280.280 83.296,279.400 83.301 C 278.520 83.305,278.207 83.387,278.705 83.483 M310.105 83.487 C 310.714 83.579,311.614 83.577,312.105 83.482 C 312.597 83.387,312.100 83.311,311.000 83.314 C 309.900 83.317,309.497 83.395,310.105 83.487 M274.600 84.000 C 273.522 84.274,273.502 84.306,274.400 84.313 C 274.950 84.317,275.850 84.176,276.400 84.000 C 277.744 83.569,276.292 83.569,274.600 84.000 M314.400 83.980 C 315.399 84.320,317.882 84.532,317.567 84.251 C 317.475 84.169,316.500 83.999,315.400 83.872 C 314.051 83.716,313.726 83.751,314.400 83.980 M271.000 84.800 C 270.496 85.017,270.422 85.144,270.800 85.144 C 271.130 85.144,271.760 84.989,272.200 84.800 C 272.704 84.583,272.778 84.456,272.400 84.456 C 272.070 84.456,271.440 84.611,271.000 84.800 M268.000 85.600 C 267.176 85.864,267.141 85.926,267.800 85.954 C 268.240 85.973,268.870 85.813,269.200 85.600 C 269.901 85.147,269.414 85.147,268.000 85.600 M323.000 85.581 C 323.768 85.929,325.910 86.156,325.567 85.853 C 325.475 85.772,324.680 85.596,323.800 85.462 C 322.685 85.293,322.442 85.329,323.000 85.581 M38.048 86.542 C 37.717 86.941,37.625 117.029,37.699 200.642 L 37.800 314.200 71.200 314.300 C 89.570 314.355,105.677 314.265,106.993 314.100 C 108.309 313.935,93.324 313.853,73.692 313.918 L 37.999 314.036 38.099 200.318 L 38.200 86.600 61.000 86.395 L 83.800 86.190 61.149 86.095 C 42.497 86.017,38.419 86.096,38.048 86.542 M89.680 86.698 C 91.594 86.771,94.834 86.771,96.880 86.698 C 98.926 86.626,97.360 86.566,93.400 86.565 C 89.440 86.565,87.766 86.624,89.680 86.698 M329.365 87.227 C 330.666 87.654,331.797 87.936,331.880 87.853 C 332.075 87.658,328.214 86.392,327.525 86.425 C 327.236 86.439,328.064 86.800,329.365 87.227 M102.305 87.083 C 102.802 87.179,103.522 87.175,103.905 87.075 C 104.287 86.975,103.880 86.896,103.000 86.901 C 102.120 86.905,101.807 86.987,102.305 87.083 M105.891 87.489 C 106.601 87.577,107.861 87.579,108.691 87.492 C 109.521 87.405,108.940 87.333,107.400 87.331 C 105.860 87.329,105.181 87.400,105.891 87.489 M260.523 88.145 C 257.698 89.336,257.254 89.884,260.000 88.792 C 263.651 87.339,263.837 87.250,263.200 87.260 C 262.870 87.265,261.665 87.664,260.523 88.145 M113.233 88.144 C 113.325 88.223,114.660 88.384,116.200 88.501 C 117.827 88.625,118.581 88.581,118.000 88.397 C 117.011 88.083,112.912 87.866,113.233 88.144 M119.233 88.944 C 119.325 89.024,120.210 89.196,121.200 89.327 C 122.402 89.486,122.734 89.447,122.200 89.210 C 121.436 88.872,118.886 88.643,119.233 88.944 M124.033 89.743 C 124.125 89.821,124.830 90.001,125.600 90.142 C 126.585 90.323,126.822 90.282,126.400 90.006 C 125.858 89.650,123.637 89.403,124.033 89.743 M127.633 90.543 C 127.725 90.621,128.430 90.801,129.200 90.942 C 130.185 91.123,130.422 91.082,130.000 90.806 C 129.458 90.450,127.237 90.203,127.633 90.543 M131.233 91.344 C 131.325 91.423,131.940 91.608,132.600 91.756 C 133.476 91.952,133.638 91.915,133.200 91.618 C 132.660 91.253,130.832 90.998,131.233 91.344 M247.211 95.420 C 246.447 95.959,245.997 96.399,246.211 96.398 C 246.425 96.397,247.140 95.953,247.800 95.412 C 249.341 94.149,249.005 94.153,247.211 95.420 M352.583 98.548 L 353.766 99.562 353.090 100.981 C 352.274 102.691,352.526 102.890,353.390 101.220 C 354.233 99.590,354.180 99.374,352.700 98.394 L 351.400 97.534 352.583 98.548 M149.753 98.724 C 150.113 99.306,153.604 101.729,153.801 101.533 C 153.880 101.453,152.937 100.684,151.705 99.823 C 150.473 98.962,149.594 98.467,149.753 98.724 M238.144 103.398 C 236.434 105.267,234.867 107.112,234.664 107.498 C 234.460 107.884,234.989 107.390,235.840 106.400 C 236.690 105.410,238.362 103.565,239.554 102.300 C 240.746 101.035,241.616 100.000,241.488 100.000 C 241.359 100.000,239.854 101.529,238.144 103.398 M158.329 105.841 C 159.234 106.963,160.296 108.128,160.688 108.429 C 161.482 109.039,160.119 107.385,158.041 105.217 C 156.981 104.111,157.044 104.248,158.329 105.841 M287.400 106.800 C 286.311 107.077,286.293 107.107,287.200 107.125 C 287.750 107.135,288.560 106.989,289.000 106.800 C 289.986 106.376,289.066 106.376,287.400 106.800 M302.600 106.823 C 303.480 107.005,304.740 107.144,305.400 107.131 C 306.444 107.111,306.392 107.065,305.000 106.777 C 304.120 106.595,302.860 106.456,302.200 106.469 C 301.156 106.489,301.208 106.535,302.600 106.823 M283.200 107.600 C 282.667 107.945,282.667 107.988,283.200 107.988 C 283.530 107.988,284.070 107.813,284.400 107.600 C 284.933 107.255,284.933 107.212,284.400 107.212 C 284.070 107.212,283.530 107.387,283.200 107.600 M309.600 107.600 C 310.150 107.776,310.960 107.920,311.400 107.920 C 312.033 107.920,311.992 107.854,311.200 107.600 C 310.650 107.424,309.840 107.280,309.400 107.280 C 308.767 107.280,308.808 107.346,309.600 107.600 M313.600 108.394 C 313.930 108.611,314.635 108.791,315.167 108.794 C 316.451 108.802,316.125 108.575,314.400 108.258 C 313.415 108.077,313.178 108.118,313.600 108.394 M66.643 109.433 C 66.509 109.781,66.444 125.756,66.497 144.933 L 66.593 179.800 66.797 144.600 L 67.000 109.400 80.200 109.444 C 90.224 109.477,92.053 109.416,87.800 109.193 C 76.759 108.611,66.915 108.723,66.643 109.433 M99.800 110.001 C 101.394 110.353,105.084 110.536,104.767 110.249 C 104.675 110.165,103.160 109.996,101.400 109.873 C 99.050 109.708,98.625 109.742,99.800 110.001 M108.200 110.790 C 108.964 111.128,111.514 111.357,111.167 111.056 C 111.075 110.976,110.190 110.804,109.200 110.673 C 107.998 110.514,107.666 110.553,108.200 110.790 M322.200 110.800 C 322.336 111.020,322.842 111.187,323.324 111.172 C 324.169 111.145,324.171 111.131,323.400 110.800 C 322.299 110.327,321.908 110.327,322.200 110.800 M112.800 111.594 C 113.130 111.811,113.835 111.991,114.367 111.994 C 115.651 112.002,115.325 111.775,113.600 111.458 C 112.615 111.277,112.378 111.318,112.800 111.594 M116.400 112.394 C 116.730 112.611,117.435 112.791,117.967 112.794 C 119.251 112.802,118.925 112.575,117.200 112.258 C 116.215 112.077,115.978 112.118,116.400 112.394 M120.758 113.637 C 121.725 114.066,122.588 114.345,122.675 114.258 C 122.848 114.086,119.765 112.782,119.292 112.828 C 119.131 112.844,119.791 113.208,120.758 113.637 M268.098 114.910 C 265.593 117.003,261.600 121.664,261.600 122.495 C 261.600 122.738,262.135 122.141,262.789 121.169 C 264.222 119.038,266.755 116.331,269.200 114.318 C 270.190 113.503,270.910 112.832,270.800 112.828 C 270.690 112.823,269.474 113.760,268.098 114.910 M123.200 114.481 C 123.610 114.850,128.400 117.210,128.400 117.043 C 128.400 116.790,124.948 114.899,123.895 114.576 C 123.403 114.424,123.090 114.382,123.200 114.481 M334.800 116.466 C 335.570 116.934,337.280 118.027,338.600 118.894 C 340.111 119.887,340.593 120.095,339.900 119.455 C 338.798 118.436,334.202 115.594,333.679 115.607 C 333.525 115.610,334.030 115.997,334.800 116.466 M167.246 118.600 C 167.253 118.820,167.606 119.720,168.029 120.600 C 168.452 121.480,168.686 121.750,168.549 121.200 C 168.267 120.067,167.225 117.988,167.246 118.600 M134.000 121.370 C 134.000 121.636,135.767 124.104,136.871 125.380 C 137.807 126.461,136.997 125.073,135.600 123.200 C 134.720 122.021,134.000 121.197,134.000 121.370 M226.649 123.415 C 226.512 123.773,226.415 124.366,226.434 124.733 C 226.453 125.100,226.627 124.869,226.821 124.220 C 227.198 122.958,227.065 122.333,226.649 123.415 M225.849 126.615 C 225.712 126.973,225.615 127.566,225.634 127.933 C 225.653 128.300,225.827 128.069,226.021 127.420 C 226.398 126.158,226.265 125.533,225.849 126.615 M170.456 128.000 C 170.456 128.330,170.611 128.960,170.800 129.400 C 171.017 129.904,171.144 129.978,171.144 129.600 C 171.144 129.270,170.989 128.640,170.800 128.200 C 170.583 127.696,170.456 127.622,170.456 128.000 M225.049 130.215 C 224.912 130.573,224.818 131.346,224.840 131.933 C 224.873 132.791,224.952 132.695,225.246 131.440 C 225.622 129.839,225.495 129.053,225.049 130.215 M171.287 132.600 C 171.291 133.040,171.432 133.940,171.600 134.600 C 171.874 135.678,171.906 135.698,171.913 134.800 C 171.917 134.250,171.776 133.350,171.600 132.800 C 171.349 132.016,171.281 131.973,171.287 132.600 M140.406 135.233 C 140.409 135.765,140.589 136.470,140.806 136.800 C 141.082 137.222,141.123 136.985,140.942 136.000 C 140.625 134.275,140.398 133.949,140.406 135.233 M224.257 136.300 C 223.937 138.235,224.000 148.318,224.340 149.524 C 224.483 150.032,224.600 146.927,224.600 142.624 C 224.600 134.017,224.608 134.172,224.257 136.300 M256.622 136.222 C 256.472 137.025,256.438 137.772,256.548 137.882 C 256.658 137.992,256.872 137.425,257.022 136.622 C 257.173 135.819,257.206 135.073,257.096 134.963 C 256.986 134.853,256.773 135.419,256.622 136.222 M141.482 142.200 C 141.599 144.400,141.764 146.275,141.848 146.367 C 142.106 146.649,141.939 142.722,141.594 140.400 C 141.359 138.810,141.327 139.309,141.482 142.200 M256.434 148.000 C 256.446 148.330,256.611 148.960,256.800 149.400 L 257.144 150.200 257.166 149.400 C 257.178 148.960,257.013 148.330,256.800 148.000 C 256.455 147.467,256.415 147.467,256.434 148.000 M141.387 150.987 C 141.231 152.444,141.189 153.723,141.295 153.828 C 141.401 153.934,141.610 152.823,141.760 151.360 C 141.910 149.897,141.951 148.618,141.852 148.518 C 141.752 148.419,141.543 149.529,141.387 150.987 M171.450 150.450 C 171.117 152.117,171.440 152.440,171.800 150.800 C 171.952 150.109,171.993 149.459,171.891 149.358 C 171.789 149.256,171.591 149.747,171.450 150.450 M224.806 153.033 C 224.809 153.675,224.996 154.470,225.221 154.800 C 225.514 155.230,225.554 154.946,225.362 153.800 C 225.030 151.816,224.798 151.496,224.806 153.033 M170.629 155.029 C 170.481 155.615,170.438 156.172,170.532 156.266 C 170.627 156.360,170.824 155.958,170.971 155.371 C 171.119 154.785,171.162 154.228,171.068 154.134 C 170.973 154.040,170.776 154.442,170.629 155.029 M140.649 155.415 C 140.512 155.773,140.415 156.366,140.434 156.733 C 140.453 157.100,140.627 156.869,140.821 156.220 C 141.198 154.958,141.065 154.333,140.649 155.415 M225.606 157.033 C 225.609 157.455,225.795 158.070,226.018 158.400 C 226.315 158.838,226.352 158.676,226.156 157.800 C 225.827 156.329,225.598 156.010,225.606 157.033 M138.425 161.700 C 137.637 163.267,137.632 163.322,138.364 162.400 C 139.071 161.509,139.724 160.000,139.403 160.000 C 139.336 160.000,138.896 160.765,138.425 161.700 M166.921 165.200 C 165.148 168.670,164.969 169.420,166.562 166.700 C 167.574 164.973,168.916 162.000,168.683 162.000 C 168.613 162.000,167.820 163.440,166.921 165.200 M265.183 164.500 C 266.841 166.266,267.200 166.584,267.200 166.283 C 267.200 166.219,266.345 165.364,265.300 164.383 L 263.400 162.600 265.183 164.500 M135.625 165.945 C 134.649 167.185,133.061 168.875,132.098 169.700 C 131.134 170.525,130.471 171.200,130.624 171.200 C 131.412 171.200,137.965 164.209,137.542 163.820 C 137.464 163.748,136.601 164.704,135.625 165.945 M268.800 167.601 C 270.436 169.108,273.570 171.202,274.178 171.195 C 274.410 171.193,273.829 170.749,272.886 170.210 C 271.943 169.671,270.323 168.574,269.286 167.771 C 267.620 166.483,267.564 166.463,268.800 167.601 M162.463 171.972 C 160.677 174.090,160.123 175.294,161.823 173.362 C 163.118 171.891,164.505 170.000,164.290 170.000 C 164.199 170.000,163.377 170.887,162.463 171.972 M128.081 172.572 C 126.325 173.814,125.897 174.345,127.400 173.418 C 129.478 172.135,130.191 171.599,129.789 171.620 C 129.575 171.630,128.807 172.059,128.081 172.572 M275.200 172.022 C 276.233 172.726,278.800 174.025,278.800 173.842 C 278.800 173.633,275.205 171.597,274.850 171.606 C 274.712 171.609,274.870 171.796,275.200 172.022 M234.016 176.163 C 234.768 177.209,235.556 178.173,235.767 178.303 C 235.978 178.433,235.535 177.684,234.784 176.637 C 234.032 175.591,233.244 174.627,233.033 174.497 C 232.822 174.367,233.265 175.116,234.016 176.163 M157.000 177.494 C 155.460 178.957,154.740 179.777,155.400 179.317 C 156.973 178.219,160.582 174.795,160.142 174.817 C 159.954 174.827,158.540 176.031,157.000 177.494 M111.600 178.418 C 111.162 178.715,111.324 178.752,112.200 178.556 C 113.671 178.227,113.990 177.998,112.967 178.006 C 112.545 178.009,111.930 178.195,111.600 178.418 M105.800 179.200 C 104.137 179.623,105.774 179.642,107.800 179.223 C 109.145 178.945,109.209 178.892,108.200 178.893 C 107.540 178.894,106.460 179.032,105.800 179.200 M238.200 181.200 C 239.506 182.520,240.665 183.600,240.775 183.600 C 240.885 183.600,239.906 182.520,238.600 181.200 C 237.294 179.880,236.135 178.800,236.025 178.800 C 235.915 178.800,236.894 179.880,238.200 181.200 M81.800 180.000 L 66.600 180.214 81.600 180.260 C 89.850 180.286,97.770 180.175,99.200 180.014 L 101.800 179.722 99.400 179.754 C 98.080 179.771,90.160 179.882,81.800 180.000 M152.400 181.236 C 151.736 181.779,151.669 181.915,152.200 181.640 C 153.505 180.966,154.228 180.412,153.800 180.415 C 153.580 180.417,152.950 180.786,152.400 181.236 M302.000 183.789 C 302.000 184.106,304.900 185.233,305.128 185.005 C 305.241 184.892,305.235 184.800,305.116 184.800 C 304.996 184.800,304.246 184.528,303.449 184.195 C 302.652 183.862,302.000 183.679,302.000 183.789 M246.000 187.900 C 246.000 188.069,246.360 188.432,246.800 188.707 C 247.240 188.982,247.600 189.069,247.600 188.900 C 247.600 188.731,247.240 188.368,246.800 188.093 C 246.360 187.818,246.000 187.731,246.000 187.900 M132.627 190.355 C 133.052 190.744,135.529 191.396,135.154 191.020 C 135.019 190.886,134.311 190.604,133.581 190.395 C 132.851 190.185,132.422 190.168,132.627 190.355 M249.200 190.295 C 249.200 190.684,250.814 191.719,251.051 191.482 C 251.147 191.386,250.769 191.010,250.212 190.645 C 249.656 190.280,249.200 190.122,249.200 190.295 M136.433 191.344 C 136.525 191.423,137.140 191.608,137.800 191.756 C 138.676 191.952,138.838 191.915,138.400 191.618 C 137.860 191.253,136.032 190.998,136.433 191.344 M251.600 191.885 C 251.600 192.234,253.199 193.338,253.400 193.128 C 253.467 193.057,253.089 192.677,252.561 192.281 C 252.032 191.886,251.600 191.708,251.600 191.885 M140.200 192.400 C 141.301 192.873,141.692 192.873,141.400 192.400 C 141.264 192.180,140.758 192.013,140.276 192.028 C 139.431 192.055,139.429 192.069,140.200 192.400 M256.000 194.764 C 256.550 195.214,257.180 195.583,257.400 195.585 C 257.828 195.588,257.105 195.034,255.800 194.360 C 255.269 194.085,255.336 194.221,256.000 194.764 M259.600 196.596 C 259.600 196.870,262.049 198.084,262.232 197.901 C 262.319 197.814,261.762 197.444,260.995 197.078 C 260.228 196.712,259.600 196.495,259.600 196.596 M331.200 197.718 C 331.200 197.808,332.460 198.720,334.000 199.745 C 335.540 200.769,336.800 201.522,336.800 201.418 C 336.800 201.315,335.765 200.534,334.500 199.685 C 331.699 197.802,331.200 197.505,331.200 197.718 M157.600 200.133 C 157.600 200.350,160.715 202.400,161.045 202.400 C 161.190 202.400,160.879 202.067,160.354 201.660 C 159.268 200.817,157.600 199.892,157.600 200.133 M269.600 201.600 C 270.370 202.022,271.180 202.366,271.400 202.366 C 271.620 202.366,271.170 202.022,270.400 201.600 C 269.630 201.178,268.820 200.834,268.600 200.834 C 268.380 200.834,268.830 201.178,269.600 201.600 M338.800 202.904 C 338.800 202.998,339.745 203.863,340.900 204.826 C 342.055 205.790,342.747 206.261,342.438 205.874 C 341.818 205.096,338.800 202.632,338.800 202.904 M164.400 205.400 C 165.146 206.170,165.847 206.800,165.957 206.800 C 166.067 206.800,165.546 206.170,164.800 205.400 C 164.054 204.630,163.353 204.000,163.243 204.000 C 163.133 204.000,163.654 204.630,164.400 205.400 M76.128 205.500 C 81.368 205.563,89.828 205.563,94.928 205.500 C 100.027 205.436,95.740 205.385,85.400 205.385 C 75.060 205.385,70.887 205.437,76.128 205.500 M109.800 206.023 C 110.680 206.205,111.850 206.343,112.400 206.330 C 113.988 206.291,111.365 205.695,109.600 205.693 L 108.200 205.692 109.800 206.023 M66.597 248.800 L 66.600 291.400 84.200 291.406 L 101.800 291.412 84.302 291.302 L 66.804 291.192 66.699 248.696 L 66.595 206.200 66.597 248.800 M116.200 206.800 C 116.640 206.989,117.450 207.138,118.000 207.132 L 119.000 207.120 118.000 206.800 C 117.450 206.624,116.640 206.474,116.200 206.468 L 115.400 206.456 116.200 206.800 M120.400 207.600 C 120.730 207.813,121.360 207.978,121.800 207.966 L 122.600 207.944 121.800 207.600 C 120.604 207.086,119.605 207.086,120.400 207.600 M168.800 209.458 C 168.800 209.674,169.385 210.379,170.100 211.025 L 171.400 212.200 170.200 210.802 C 169.540 210.033,168.955 209.328,168.900 209.235 C 168.845 209.143,168.800 209.243,168.800 209.458 M348.404 211.886 C 348.407 212.059,349.262 213.112,350.304 214.226 C 352.241 216.297,351.966 215.795,349.678 213.086 C 348.975 212.253,348.402 211.713,348.404 211.886 M135.200 212.123 C 135.200 212.233,136.145 212.857,137.300 213.509 C 138.455 214.161,140.273 215.360,141.339 216.174 C 142.406 216.989,143.341 217.593,143.416 217.517 C 143.492 217.441,142.573 216.664,141.374 215.790 C 138.998 214.058,135.200 211.802,135.200 212.123 M171.600 212.702 C 171.600 212.899,172.090 213.497,172.688 214.030 C 173.486 214.742,173.619 214.787,173.188 214.202 C 172.250 212.928,171.600 212.314,171.600 212.702 M298.800 213.789 C 298.800 214.106,301.700 215.233,301.928 215.005 C 302.041 214.892,302.035 214.800,301.916 214.800 C 301.796 214.800,301.046 214.528,300.249 214.195 C 299.452 213.862,298.800 213.679,298.800 213.789 M174.218 216.300 C 175.956 218.992,176.800 220.164,176.800 219.887 C 176.800 219.505,173.950 215.200,173.697 215.200 C 173.593 215.200,173.828 215.695,174.218 216.300 M303.200 215.964 C 303.750 216.414,304.380 216.783,304.600 216.785 C 305.028 216.788,304.305 216.234,303.000 215.560 C 302.469 215.285,302.536 215.421,303.200 215.964 M306.000 217.379 C 306.000 217.489,306.540 217.859,307.200 218.200 C 307.860 218.541,308.400 218.731,308.400 218.621 C 308.400 218.511,307.860 218.141,307.200 217.800 C 306.540 217.459,306.000 217.269,306.000 217.379 M146.974 222.200 C 148.367 224.252,148.652 224.495,147.877 222.971 C 147.534 222.295,146.949 221.490,146.578 221.182 C 146.207 220.874,146.385 221.332,146.974 222.200 M177.960 222.600 C 178.634 223.905,179.188 224.628,179.185 224.200 C 179.183 223.980,178.814 223.350,178.364 222.800 C 177.821 222.136,177.685 222.069,177.960 222.600 M149.000 225.600 C 149.341 226.260,149.711 226.800,149.821 226.800 C 149.931 226.800,149.741 226.260,149.400 225.600 C 149.059 224.940,148.689 224.400,148.579 224.400 C 148.469 224.400,148.659 224.940,149.000 225.600 M321.018 228.400 C 321.892 229.390,323.214 231.152,323.955 232.315 C 324.696 233.479,325.380 234.354,325.473 234.260 C 325.767 233.966,322.461 229.413,320.909 227.973 L 319.428 226.600 321.018 228.400 M151.044 230.600 C 151.373 232.071,151.602 232.390,151.594 231.367 C 151.591 230.945,151.405 230.330,151.182 230.000 C 150.885 229.562,150.848 229.724,151.044 230.600 M359.628 231.076 C 359.718 232.115,360.344 232.996,360.372 232.124 C 360.387 231.642,360.220 231.136,360.000 231.000 C 359.780 230.864,359.613 230.898,359.628 231.076 M182.006 233.433 C 182.009 233.855,182.195 234.470,182.418 234.800 C 182.715 235.238,182.752 235.076,182.556 234.200 C 182.227 232.729,181.998 232.410,182.006 233.433 M360.644 235.000 C 360.973 236.471,361.202 236.790,361.194 235.767 C 361.191 235.345,361.005 234.730,360.782 234.400 C 360.485 233.962,360.448 234.124,360.644 235.000 M182.901 237.000 C 182.905 237.880,182.987 238.193,183.083 237.695 C 183.179 237.198,183.175 236.478,183.075 236.095 C 182.975 235.713,182.896 236.120,182.901 237.000 M361.459 239.000 C 361.599 240.100,361.777 241.075,361.856 241.167 C 362.199 241.564,361.950 238.141,361.597 237.600 C 361.330 237.190,361.286 237.635,361.459 239.000 M152.920 240.400 C 152.920 241.610,152.995 242.105,153.087 241.500 C 153.178 240.895,153.178 239.905,153.087 239.300 C 152.995 238.695,152.920 239.190,152.920 240.400 M183.765 248.600 C 183.766 252.560,183.826 254.126,183.898 252.080 C 183.971 250.034,183.971 246.794,183.898 244.880 C 183.824 242.966,183.765 244.640,183.765 248.600 M362.312 249.274 C 362.468 258.907,362.667 260.008,362.696 251.400 C 362.709 247.440,362.603 243.783,362.460 243.274 C 362.317 242.765,362.251 245.465,362.312 249.274 M328.828 244.433 C 328.844 244.965,329.019 245.760,329.219 246.200 C 329.471 246.758,329.507 246.515,329.338 245.400 C 329.055 243.543,328.787 243.036,328.828 244.433 M153.344 247.600 C 153.344 249.690,153.412 250.545,153.494 249.500 C 153.576 248.455,153.576 246.745,153.494 245.700 C 153.412 244.655,153.344 245.510,153.344 247.600 M329.751 254.000 C 329.751 256.530,329.816 257.565,329.896 256.300 C 329.975 255.035,329.975 252.965,329.896 251.700 C 329.816 250.435,329.751 251.470,329.751 254.000 M152.924 255.000 C 152.926 256.320,153.001 256.812,153.090 256.093 C 153.179 255.374,153.177 254.294,153.086 253.693 C 152.995 253.092,152.922 253.680,152.924 255.000 M182.909 260.400 C 182.909 261.390,182.987 261.795,183.082 261.300 C 183.178 260.805,183.178 259.995,183.082 259.500 C 182.987 259.005,182.909 259.410,182.909 260.400 M329.056 262.484 C 328.921 262.988,328.828 263.850,328.849 264.400 C 328.872 264.989,329.031 264.671,329.236 263.625 C 329.603 261.752,329.473 260.927,329.056 262.484 M182.256 263.284 C 182.121 263.788,182.027 264.560,182.046 265.000 C 182.065 265.440,182.245 265.098,182.446 264.240 C 182.836 262.578,182.670 261.740,182.256 263.284 M361.664 263.600 C 361.623 264.370,361.489 265.450,361.367 266.000 C 361.176 266.858,361.209 266.900,361.595 266.295 C 361.843 265.907,361.977 264.827,361.893 263.895 C 361.751 262.327,361.734 262.305,361.664 263.600 M360.849 268.200 C 360.816 268.640,360.696 269.450,360.583 270.000 L 360.377 271.000 360.806 270.019 C 361.042 269.479,361.161 268.669,361.072 268.219 C 360.913 267.421,360.907 267.421,360.849 268.200 M147.494 272.503 L 146.788 273.800 147.594 272.856 C 148.280 272.052,148.646 271.194,148.300 271.203 C 148.245 271.204,147.882 271.789,147.494 272.503 M360.046 272.267 C 360.021 272.524,359.884 273.064,359.741 273.467 C 359.540 274.036,359.594 274.097,359.979 273.742 C 360.252 273.491,360.389 272.951,360.284 272.542 C 360.179 272.134,360.072 272.010,360.046 272.267 M240.400 278.990 C 240.400 279.094,240.985 279.465,241.700 279.814 L 243.000 280.448 242.000 279.633 C 241.037 278.848,240.400 278.592,240.400 278.990 M322.018 280.300 C 321.556 280.905,319.968 282.657,318.489 284.193 C 316.169 286.603,316.551 286.428,319.425 283.764 C 320.511 282.758,323.358 279.200,323.077 279.200 C 322.957 279.200,322.480 279.695,322.018 280.300 M245.000 281.855 C 246.618 283.146,260.569 289.575,259.400 288.490 C 259.180 288.286,257.740 287.628,256.200 287.028 C 254.660 286.428,251.330 284.874,248.800 283.576 C 246.270 282.278,244.560 281.504,245.000 281.855 M133.600 284.400 C 132.830 284.822,132.344 285.174,132.520 285.183 C 132.944 285.205,135.200 284.032,135.200 283.790 C 135.200 283.528,135.177 283.537,133.600 284.400 M354.586 286.500 L 353.952 287.800 354.767 286.800 C 355.552 285.837,355.808 285.200,355.410 285.200 C 355.306 285.200,354.935 285.785,354.586 286.500 M127.200 286.800 C 125.990 287.211,125.270 287.556,125.600 287.568 C 126.309 287.592,129.065 286.668,129.459 286.274 C 129.818 285.916,129.774 285.926,127.200 286.800 M314.200 287.835 L 313.000 288.866 314.300 288.006 C 315.015 287.533,315.600 287.068,315.600 286.973 C 315.600 286.673,315.431 286.778,314.200 287.835 M121.600 288.418 C 121.162 288.715,121.324 288.752,122.200 288.556 C 123.671 288.227,123.990 287.998,122.967 288.006 C 122.545 288.009,121.930 288.195,121.600 288.418 M169.634 289.753 L 168.669 291.000 169.813 289.912 C 170.443 289.314,170.877 288.753,170.779 288.665 C 170.680 288.577,170.165 289.067,169.634 289.753 M117.800 289.219 C 117.242 289.471,117.485 289.507,118.600 289.338 C 119.480 289.204,120.275 289.028,120.367 288.947 C 120.710 288.644,118.568 288.871,117.800 289.219 M310.462 289.852 C 309.286 290.405,308.413 290.946,308.522 291.055 C 308.737 291.270,312.800 289.312,312.800 288.993 C 312.800 288.741,312.922 288.696,310.462 289.852 M112.800 290.013 C 112.154 290.229,112.580 290.266,114.000 290.119 C 115.210 289.994,116.275 289.826,116.367 289.746 C 116.687 289.465,113.791 289.683,112.800 290.013 M106.000 290.800 C 103.948 291.232,106.255 291.246,109.000 290.818 L 111.000 290.507 109.200 290.506 C 108.210 290.506,106.770 290.638,106.000 290.800 M268.433 291.343 C 268.525 291.421,269.230 291.601,270.000 291.742 C 270.985 291.923,271.222 291.882,270.800 291.606 C 270.258 291.250,268.037 291.003,268.433 291.343 M166.174 293.307 L 164.600 294.999 166.196 293.599 C 167.073 292.830,167.868 292.155,167.962 292.100 C 168.056 292.045,168.047 291.913,167.941 291.807 C 167.835 291.701,167.040 292.376,166.174 293.307 M273.200 292.400 C 274.742 292.894,275.564 292.894,274.800 292.400 C 274.470 292.187,273.750 292.027,273.200 292.046 L 272.200 292.080 273.200 292.400 M276.833 292.946 C 276.925 293.026,277.990 293.200,279.200 293.332 C 280.637 293.488,281.122 293.448,280.600 293.214 C 279.843 292.875,276.479 292.636,276.833 292.946 M300.400 293.206 C 299.978 293.482,300.215 293.523,301.200 293.342 C 302.925 293.025,303.251 292.798,301.967 292.806 C 301.435 292.809,300.730 292.989,300.400 293.206 M287.300 293.898 C 289.225 293.971,292.375 293.971,294.300 293.898 C 296.225 293.825,294.650 293.765,290.800 293.765 C 286.950 293.765,285.375 293.825,287.300 293.898 M346.023 298.126 C 342.867 301.559,342.823 301.629,345.353 299.200 C 347.639 297.005,349.975 294.333,349.527 294.426 C 349.457 294.441,347.880 296.106,346.023 298.126 M161.018 297.428 C 157.889 299.761,157.196 300.560,160.000 298.604 C 162.100 297.139,163.991 295.570,163.589 295.627 C 163.485 295.641,162.328 296.452,161.018 297.428 M222.800 299.496 C 222.800 299.876,224.434 301.168,225.900 301.949 C 227.319 302.704,226.949 302.157,225.389 301.193 C 224.614 300.714,223.714 300.056,223.389 299.732 C 223.065 299.408,222.800 299.302,222.800 299.496 M156.000 300.836 C 155.336 301.379,155.269 301.515,155.800 301.240 C 157.105 300.566,157.828 300.012,157.400 300.015 C 157.180 300.017,156.550 300.386,156.000 300.836 M138.200 308.400 C 137.429 308.731,137.431 308.745,138.276 308.772 C 138.758 308.787,139.264 308.620,139.400 308.400 C 139.692 307.927,139.301 307.927,138.200 308.400 M135.400 309.200 C 134.629 309.531,134.631 309.545,135.476 309.572 C 135.958 309.587,136.464 309.420,136.600 309.200 C 136.892 308.727,136.501 308.727,135.400 309.200 M132.600 310.000 C 131.829 310.331,131.831 310.345,132.676 310.372 C 133.158 310.387,133.664 310.220,133.800 310.000 C 134.092 309.527,133.701 309.527,132.600 310.000 M129.200 310.800 C 127.816 311.091,127.814 311.095,129.000 311.141 C 129.660 311.167,130.470 311.013,130.800 310.800 C 131.466 310.370,131.245 310.370,129.200 310.800 M125.000 311.600 C 123.911 311.877,123.893 311.907,124.800 311.925 C 125.350 311.935,126.160 311.789,126.600 311.600 C 127.586 311.176,126.666 311.176,125.000 311.600 M118.700 312.682 C 119.195 312.778,120.005 312.778,120.500 312.682 C 120.995 312.587,120.590 312.509,119.600 312.509 C 118.610 312.509,118.205 312.587,118.700 312.682 M113.000 313.200 L 110.600 313.466 112.800 313.493 C 114.010 313.508,115.450 313.376,116.000 313.200 C 117.214 312.811,116.513 312.811,113.000 313.200 M254.600 313.981 C 255.368 314.329,257.510 314.556,257.167 314.253 C 257.075 314.172,256.280 313.996,255.400 313.862 C 254.285 313.693,254.042 313.729,254.600 313.981 M319.800 314.000 L 318.600 314.305 319.676 314.353 C 320.268 314.379,320.864 314.220,321.000 314.000 C 321.136 313.780,321.192 313.621,321.124 313.647 C 321.056 313.673,320.460 313.832,319.800 314.000 M258.200 314.781 C 258.968 315.129,261.110 315.356,260.767 315.053 C 260.675 314.972,259.880 314.796,259.000 314.662 C 257.885 314.493,257.642 314.529,258.200 314.781 M316.800 314.800 C 315.976 315.064,315.941 315.126,316.600 315.154 C 317.040 315.173,317.670 315.013,318.000 314.800 C 318.701 314.347,318.214 314.347,316.800 314.800 M261.800 315.570 C 262.240 315.742,263.680 315.987,265.000 316.114 C 266.343 316.244,266.959 316.210,266.400 316.038 C 265.021 315.612,260.810 315.184,261.800 315.570 M313.245 315.632 C 312.279 315.822,311.386 316.081,311.260 316.207 C 310.926 316.541,314.490 315.954,315.200 315.559 C 315.913 315.161,315.580 315.174,313.245 315.632 M268.300 316.682 C 268.795 316.778,269.605 316.778,270.100 316.682 C 270.595 316.587,270.190 316.509,269.200 316.509 C 268.210 316.509,267.805 316.587,268.300 316.682 M308.900 316.676 C 309.285 316.776,309.915 316.776,310.300 316.676 C 310.685 316.575,310.370 316.493,309.600 316.493 C 308.830 316.493,308.515 316.575,308.900 316.676 M274.833 317.352 C 274.925 317.436,276.800 317.601,279.000 317.718 C 281.891 317.873,282.390 317.841,280.800 317.606 C 278.478 317.261,274.551 317.094,274.833 317.352 M302.505 317.487 C 303.114 317.579,304.014 317.577,304.505 317.482 C 304.997 317.387,304.500 317.311,303.400 317.314 C 302.300 317.317,301.897 317.395,302.505 317.487 M298.700 317.882 C 299.195 317.978,300.005 317.978,300.500 317.882 C 300.995 317.787,300.590 317.709,299.600 317.709 C 298.610 317.709,298.205 317.787,298.700 317.882 M289.312 318.295 C 290.364 318.377,291.984 318.376,292.912 318.292 C 293.840 318.208,292.980 318.141,291.000 318.142 C 289.020 318.143,288.260 318.212,289.312 318.295 " stroke="none" fill="#000" fill-rule="evenodd"></path><path id="path3" d="M286.313 83.095 C 287.476 83.176,289.276 83.176,290.313 83.093 C 291.351 83.011,290.400 82.945,288.200 82.946 C 286.000 82.947,285.151 83.014,286.313 83.095 M297.900 83.096 C 299.275 83.174,301.525 83.174,302.900 83.096 C 304.275 83.018,303.150 82.954,300.400 82.954 C 297.650 82.954,296.525 83.018,297.900 83.096 M282.100 83.476 C 282.485 83.576,283.115 83.576,283.500 83.476 C 283.885 83.375,283.570 83.293,282.800 83.293 C 282.030 83.293,281.715 83.375,282.100 83.476 M306.305 83.483 C 306.802 83.579,307.522 83.575,307.905 83.475 C 308.287 83.375,307.880 83.296,307.000 83.301 C 306.120 83.305,305.807 83.387,306.305 83.483 M277.000 84.000 C 275.981 84.438,277.032 84.438,278.400 84.000 C 279.204 83.743,279.243 83.677,278.600 83.668 C 278.160 83.662,277.440 83.811,277.000 84.000 M311.800 84.000 C 312.460 84.168,313.450 84.305,314.000 84.305 C 314.892 84.305,314.870 84.272,313.800 84.000 C 313.140 83.832,312.150 83.695,311.600 83.695 C 310.708 83.695,310.730 83.728,311.800 84.000 M272.600 84.800 C 271.581 85.238,272.632 85.238,274.000 84.800 C 274.804 84.543,274.843 84.477,274.200 84.468 C 273.760 84.462,273.040 84.611,272.600 84.800 M317.200 84.800 C 317.750 84.976,318.560 85.120,319.000 85.120 C 319.633 85.120,319.592 85.054,318.800 84.800 C 318.250 84.624,317.440 84.480,317.000 84.480 C 316.367 84.480,316.408 84.546,317.200 84.800 M269.400 85.600 C 268.896 85.817,268.822 85.944,269.200 85.944 C 269.530 85.944,270.160 85.789,270.600 85.600 C 271.104 85.383,271.178 85.256,270.800 85.256 C 270.470 85.256,269.840 85.411,269.400 85.600 M325.000 86.400 C 325.440 86.589,326.070 86.744,326.400 86.744 C 326.778 86.744,326.704 86.617,326.200 86.400 C 325.760 86.211,325.130 86.056,324.800 86.056 C 324.422 86.056,324.496 86.183,325.000 86.400 M38.197 200.400 C 38.197 262.990,38.243 288.595,38.300 257.300 C 38.357 226.005,38.357 174.795,38.300 143.500 C 38.243 112.205,38.197 137.810,38.197 200.400 M94.033 86.951 C 94.125 87.034,96.450 87.196,99.200 87.312 C 102.539 87.453,103.403 87.418,101.800 87.205 C 99.289 86.872,93.746 86.691,94.033 86.951 M108.600 88.000 C 109.260 88.168,110.430 88.306,111.200 88.307 L 112.600 88.308 111.000 87.977 C 108.845 87.531,106.834 87.551,108.600 88.000 M115.600 88.780 C 116.599 89.120,119.082 89.332,118.767 89.051 C 118.675 88.969,117.700 88.799,116.600 88.672 C 115.251 88.516,114.926 88.551,115.600 88.780 M125.200 90.382 C 125.530 90.605,126.145 90.791,126.567 90.794 C 127.590 90.802,127.271 90.573,125.800 90.244 C 124.924 90.048,124.762 90.085,125.200 90.382 M132.200 92.000 C 132.640 92.189,133.270 92.344,133.600 92.344 C 133.978 92.344,133.904 92.217,133.400 92.000 C 132.960 91.811,132.330 91.656,132.000 91.656 C 131.622 91.656,131.696 91.783,132.200 92.000 M346.800 94.924 C 346.800 95.093,349.637 97.093,350.792 97.740 C 351.127 97.927,350.860 97.626,350.200 97.072 C 348.894 95.975,346.800 94.652,346.800 94.924 M245.800 97.035 L 244.600 98.066 245.900 97.206 C 246.615 96.733,247.200 96.268,247.200 96.173 C 247.200 95.873,247.031 95.978,245.800 97.035 M242.894 99.212 C 242.175 99.865,241.737 100.400,241.919 100.400 C 242.101 100.400,242.768 99.860,243.400 99.200 C 244.870 97.665,244.586 97.672,242.894 99.212 M151.200 100.125 C 151.200 100.224,151.861 100.809,152.668 101.425 C 153.476 102.041,154.011 102.341,153.856 102.091 C 153.540 101.579,151.200 99.847,151.200 100.125 M239.578 102.300 L 238.200 103.800 239.700 102.422 C 241.096 101.138,241.384 100.800,241.078 100.800 C 241.012 100.800,240.337 101.475,239.578 102.300 M351.478 103.405 C 351.112 104.172,350.895 104.800,350.996 104.800 C 351.270 104.800,352.484 102.351,352.301 102.168 C 352.214 102.081,351.844 102.638,351.478 103.405 M236.164 106.119 C 234.146 108.686,232.000 111.842,232.000 112.243 C 232.000 112.408,232.916 111.205,234.035 109.571 C 235.154 107.937,236.629 106.015,237.313 105.300 C 237.997 104.585,238.387 104.009,238.178 104.019 C 237.970 104.029,237.064 104.974,236.164 106.119 M159.220 107.421 C 160.199 108.533,161.081 109.381,161.181 109.307 C 161.280 109.233,160.479 108.323,159.401 107.286 L 157.440 105.400 159.220 107.421 M289.911 106.293 C 290.851 106.378,292.291 106.377,293.111 106.291 C 293.930 106.205,293.160 106.136,291.400 106.137 C 289.640 106.139,288.970 106.209,289.911 106.293 M297.913 106.295 C 299.076 106.376,300.876 106.376,301.913 106.293 C 302.951 106.211,302.000 106.145,299.800 106.146 C 297.600 106.147,296.751 106.214,297.913 106.295 M283.200 107.206 C 282.778 107.482,283.015 107.523,284.000 107.342 C 285.725 107.025,286.051 106.798,284.767 106.806 C 284.235 106.809,283.530 106.989,283.200 107.206 M307.233 106.945 C 307.325 107.024,308.480 107.187,309.800 107.307 C 311.249 107.438,311.883 107.392,311.400 107.190 C 310.630 106.869,306.893 106.649,307.233 106.945 M280.400 108.018 C 279.962 108.315,280.124 108.352,281.000 108.156 C 282.471 107.827,282.790 107.598,281.767 107.606 C 281.345 107.609,280.730 107.795,280.400 108.018 M312.433 107.747 C 312.525 107.828,313.320 108.004,314.200 108.138 C 315.315 108.307,315.558 108.271,315.000 108.019 C 314.232 107.671,312.090 107.444,312.433 107.747 M66.664 108.700 C 66.564 108.865,72.178 109.003,79.141 109.007 C 86.452 109.011,90.364 108.901,88.400 108.747 C 83.640 108.373,66.886 108.337,66.664 108.700 M316.433 108.544 C 316.525 108.623,317.140 108.808,317.800 108.956 C 318.676 109.152,318.838 109.115,318.400 108.818 C 317.860 108.453,316.032 108.198,316.433 108.544 M96.200 109.399 C 96.420 109.474,98.310 109.612,100.400 109.705 C 102.490 109.798,103.750 109.741,103.200 109.577 C 102.243 109.292,95.374 109.118,96.200 109.399 M106.033 110.144 C 106.125 110.223,107.190 110.389,108.400 110.512 C 109.769 110.651,110.298 110.608,109.800 110.396 C 109.033 110.070,105.689 109.847,106.033 110.144 M112.800 111.200 C 114.342 111.694,115.164 111.694,114.400 111.200 C 114.070 110.987,113.350 110.827,112.800 110.846 L 111.800 110.880 112.800 111.200 M272.000 111.636 C 271.336 112.179,271.269 112.315,271.800 112.040 C 273.105 111.366,273.828 110.812,273.400 110.815 C 273.180 110.817,272.550 111.186,272.000 111.636 M116.200 112.000 C 117.396 112.514,118.395 112.514,117.600 112.000 C 117.270 111.787,116.640 111.622,116.200 111.634 L 115.400 111.656 116.200 112.000 M229.980 116.039 C 229.520 116.940,229.213 117.746,229.297 117.830 C 229.381 117.914,229.841 117.176,230.319 116.191 C 231.409 113.947,231.115 113.815,229.980 116.039 M265.367 116.900 C 263.187 119.226,262.216 120.400,262.469 120.400 C 262.562 120.400,263.765 119.140,265.144 117.600 C 268.074 114.327,268.227 113.848,265.367 116.900 M336.000 116.524 C 336.000 116.617,336.765 117.198,337.700 117.815 C 338.635 118.432,339.189 118.680,338.931 118.368 C 338.434 117.767,336.000 116.236,336.000 116.524 M133.400 120.400 C 134.259 121.280,135.052 122.000,135.162 122.000 C 135.272 122.000,134.659 121.280,133.800 120.400 C 132.941 119.520,132.148 118.800,132.038 118.800 C 131.928 118.800,132.541 119.520,133.400 120.400 M259.800 124.661 C 259.464 125.465,259.282 126.215,259.395 126.328 C 259.508 126.441,259.600 126.435,259.600 126.316 C 259.600 126.196,259.872 125.446,260.205 124.649 C 260.538 123.852,260.721 123.200,260.611 123.200 C 260.501 123.200,260.136 123.858,259.800 124.661 M226.446 126.067 C 226.421 126.434,226.296 127.064,226.170 127.467 C 225.952 128.162,225.963 128.163,226.397 127.487 C 226.648 127.096,226.773 126.466,226.673 126.087 C 226.511 125.468,226.488 125.466,226.446 126.067 M225.654 129.600 C 225.619 130.150,225.496 131.050,225.383 131.600 L 225.177 132.600 225.607 131.615 C 225.843 131.074,225.965 130.174,225.878 129.615 L 225.720 128.600 225.654 129.600 M170.901 132.200 C 170.905 133.080,170.987 133.393,171.083 132.895 C 171.179 132.398,171.175 131.678,171.075 131.295 C 170.975 130.913,170.896 131.320,170.901 132.200 M257.049 131.815 C 256.912 132.173,256.818 132.856,256.841 133.333 C 256.867 133.881,257.003 133.686,257.210 132.803 C 257.560 131.316,257.465 130.733,257.049 131.815 M140.028 132.276 C 140.118 133.315,140.744 134.196,140.772 133.324 C 140.787 132.842,140.620 132.336,140.400 132.200 C 140.180 132.064,140.013 132.098,140.028 132.276 M224.920 136.000 C 224.920 137.210,224.995 137.705,225.087 137.100 C 225.178 136.495,225.178 135.505,225.087 134.900 C 224.995 134.295,224.920 134.790,224.920 136.000 M141.044 136.200 C 141.373 137.671,141.602 137.990,141.594 136.967 C 141.591 136.545,141.405 135.930,141.182 135.600 C 140.885 135.162,140.848 135.324,141.044 136.200 M171.759 142.400 C 171.759 145.590,171.821 146.895,171.897 145.300 C 171.973 143.705,171.973 141.095,171.897 139.500 C 171.821 137.905,171.759 139.210,171.759 142.400 M256.134 139.600 C 256.134 141.250,256.205 141.925,256.291 141.100 C 256.378 140.275,256.378 138.925,256.291 138.100 C 256.205 137.275,256.134 137.950,256.134 139.600 M224.546 142.600 C 224.547 144.800,224.614 145.649,224.695 144.487 C 224.776 143.324,224.776 141.524,224.693 140.487 C 224.611 139.449,224.545 140.400,224.546 142.600 M141.800 146.600 C 141.800 150.256,141.917 152.832,142.060 152.324 C 142.203 151.816,142.320 149.240,142.320 146.600 C 142.320 143.960,142.203 141.384,142.060 140.876 C 141.917 140.368,141.800 142.944,141.800 146.600 M256.124 146.200 C 256.126 147.520,256.201 148.012,256.290 147.293 C 256.379 146.574,256.377 145.494,256.286 144.893 C 256.195 144.292,256.122 144.880,256.124 146.200 M224.920 149.200 C 224.920 150.410,224.995 150.905,225.087 150.300 C 225.178 149.695,225.178 148.705,225.087 148.100 C 224.995 147.495,224.920 147.990,224.920 149.200 M170.893 152.000 C 170.893 152.770,170.975 153.085,171.076 152.700 C 171.176 152.315,171.176 151.685,171.076 151.300 C 170.975 150.915,170.893 151.230,170.893 152.000 M225.287 153.000 C 225.291 153.440,225.432 154.340,225.600 155.000 C 225.874 156.078,225.906 156.098,225.913 155.200 C 225.917 154.650,225.776 153.750,225.600 153.200 C 225.349 152.416,225.281 152.373,225.287 153.000 M141.246 154.867 C 141.221 155.234,141.096 155.864,140.970 156.267 C 140.752 156.962,140.763 156.963,141.197 156.287 C 141.448 155.896,141.573 155.266,141.473 154.887 C 141.311 154.268,141.288 154.266,141.246 154.867 M226.244 157.800 C 226.573 159.271,226.802 159.590,226.794 158.567 C 226.791 158.145,226.605 157.530,226.382 157.200 C 226.085 156.762,226.048 156.924,226.244 157.800 M262.304 161.800 C 262.763 162.460,264.182 163.990,265.459 165.200 C 267.670 167.296,267.648 167.258,265.012 164.400 C 261.316 160.394,261.351 160.428,262.304 161.800 M138.253 162.900 L 137.533 164.200 138.358 163.200 C 139.089 162.313,139.414 161.600,139.086 161.600 C 139.024 161.600,138.649 162.185,138.253 162.900 M134.368 168.100 C 133.184 169.475,132.532 170.348,132.920 170.041 C 133.734 169.394,136.962 165.600,136.697 165.600 C 136.600 165.600,135.551 166.725,134.368 168.100 M165.386 167.300 L 164.752 168.600 165.567 167.600 C 166.352 166.637,166.608 166.000,166.210 166.000 C 166.106 166.000,165.735 166.585,165.386 167.300 M127.500 173.429 C 126.895 173.757,126.400 174.110,126.400 174.213 C 126.400 174.599,127.032 174.357,128.000 173.600 C 129.189 172.670,129.011 172.609,127.500 173.429 M124.000 175.200 C 123.230 175.622,122.780 175.966,123.000 175.966 C 123.220 175.966,124.030 175.622,124.800 175.200 C 125.570 174.778,126.020 174.434,125.800 174.434 C 125.580 174.434,124.770 174.778,124.000 175.200 M156.000 178.054 L 154.200 179.685 155.894 178.413 C 157.368 177.307,158.314 176.374,157.924 176.412 C 157.856 176.419,156.990 177.158,156.000 178.054 M235.200 177.325 C 235.200 177.394,235.785 177.979,236.500 178.625 L 237.800 179.800 236.625 178.500 C 235.530 177.288,235.200 177.016,235.200 177.325 M115.200 178.000 C 114.376 178.264,114.341 178.326,115.000 178.354 C 115.440 178.373,116.070 178.213,116.400 178.000 C 117.101 177.547,116.614 177.547,115.200 178.000 M111.200 178.800 C 109.833 179.088,109.828 179.095,111.000 179.119 C 111.660 179.133,112.560 178.989,113.000 178.800 C 113.962 178.387,113.164 178.387,111.200 178.800 M104.105 179.887 C 104.714 179.979,105.614 179.977,106.105 179.882 C 106.597 179.787,106.100 179.711,105.000 179.714 C 103.900 179.717,103.497 179.795,104.105 179.887 M66.745 180.505 C 66.912 180.673,73.879 180.762,82.225 180.705 L 97.400 180.600 81.920 180.400 C 73.406 180.290,66.577 180.337,66.745 180.505 M99.300 180.287 C 99.905 180.378,100.895 180.378,101.500 180.287 C 102.105 180.195,101.610 180.120,100.400 180.120 C 99.190 180.120,98.695 180.195,99.300 180.287 M292.000 180.231 C 292.000 180.501,294.078 181.256,294.276 181.057 C 294.367 180.967,293.892 180.701,293.220 180.467 C 292.549 180.233,292.000 180.127,292.000 180.231 M239.200 181.726 C 239.200 181.836,240.100 182.679,241.200 183.600 C 242.300 184.521,243.200 185.184,243.200 185.074 C 243.200 184.964,242.300 184.121,241.200 183.200 C 240.100 182.279,239.200 181.616,239.200 181.726 M147.800 183.600 C 147.140 184.037,146.780 184.392,147.000 184.388 C 147.401 184.382,149.576 182.823,149.200 182.812 C 149.090 182.808,148.460 183.163,147.800 183.600 M244.180 185.942 C 244.609 186.436,245.869 187.471,246.980 188.242 C 249.037 189.669,248.263 188.906,245.135 186.421 C 244.181 185.663,243.751 185.447,244.180 185.942 M135.816 188.664 C 134.945 188.978,134.135 189.331,134.017 189.450 C 133.701 189.766,136.009 189.153,137.400 188.551 C 139.000 187.858,137.817 187.943,135.816 188.664 M131.698 189.866 C 131.025 190.137,131.474 190.802,132.324 190.794 C 132.876 190.789,132.896 190.722,132.435 190.430 C 131.998 190.154,132.089 190.032,132.835 189.891 C 133.554 189.755,133.596 189.703,133.000 189.686 C 132.560 189.673,131.974 189.754,131.698 189.866 M249.200 189.782 C 249.200 189.885,250.235 190.666,251.500 191.515 C 254.301 193.398,254.800 193.695,254.800 193.482 C 254.800 193.392,253.540 192.480,252.000 191.455 C 250.460 190.431,249.200 189.678,249.200 189.782 M133.600 191.182 C 133.930 191.405,134.545 191.591,134.967 191.594 C 135.990 191.602,135.671 191.373,134.200 191.044 C 133.324 190.848,133.162 190.885,133.600 191.182 M319.910 192.401 C 321.608 193.437,322.164 193.436,320.600 192.400 C 319.940 191.963,319.220 191.605,319.000 191.604 C 318.780 191.604,319.189 191.962,319.910 192.401 M255.200 193.779 C 255.200 193.889,255.740 194.259,256.400 194.600 C 257.060 194.941,257.600 195.131,257.600 195.021 C 257.600 194.911,257.060 194.541,256.400 194.200 C 255.740 193.859,255.200 193.669,255.200 193.779 M145.397 194.395 C 145.535 194.618,145.828 194.800,146.050 194.800 C 146.271 194.800,147.791 195.418,149.426 196.174 C 152.560 197.622,153.510 197.783,150.820 196.410 C 148.341 195.145,145.121 193.949,145.397 194.395 M326.800 195.741 C 326.800 196.008,330.490 198.043,330.663 197.871 C 330.740 197.793,329.903 197.239,328.802 196.640 C 327.701 196.040,326.800 195.636,326.800 195.741 M331.400 198.256 C 332.226 199.087,336.000 201.587,335.995 201.299 C 335.992 201.135,335.407 200.626,334.695 200.168 C 332.021 198.451,331.012 197.865,331.400 198.256 M154.600 198.690 C 154.820 198.900,155.720 199.476,156.600 199.970 C 157.480 200.465,157.840 200.570,157.400 200.204 C 156.506 199.461,153.972 198.091,154.600 198.690 M158.400 200.925 C 158.400 201.024,159.061 201.609,159.868 202.225 C 160.676 202.841,161.211 203.141,161.056 202.891 C 160.740 202.379,158.400 200.647,158.400 200.925 M272.800 202.600 C 273.350 202.914,273.980 203.172,274.200 203.172 C 274.420 203.172,274.150 202.914,273.600 202.600 C 273.050 202.286,272.420 202.028,272.200 202.028 C 271.980 202.028,272.250 202.286,272.800 202.600 M339.400 203.963 C 340.226 204.917,342.400 206.592,342.400 206.275 C 342.400 206.177,341.545 205.409,340.500 204.568 C 339.455 203.728,338.960 203.455,339.400 203.963 M99.312 205.095 C 100.364 205.177,101.984 205.176,102.912 205.092 C 103.840 205.008,102.980 204.941,101.000 204.942 C 99.020 204.943,98.260 205.012,99.312 205.095 M163.600 204.925 C 163.600 204.994,164.185 205.579,164.900 206.225 L 166.200 207.400 165.025 206.100 C 163.930 204.888,163.600 204.616,163.600 204.925 M278.800 205.016 C 278.800 205.128,279.205 205.377,279.700 205.569 C 280.195 205.761,281.545 206.294,282.700 206.753 C 283.855 207.213,284.800 207.496,284.800 207.384 C 284.800 207.272,284.395 207.023,283.900 206.831 C 283.405 206.639,282.055 206.106,280.900 205.647 C 279.745 205.187,278.800 204.904,278.800 205.016 M106.900 205.491 C 107.725 205.578,109.075 205.578,109.900 205.491 C 110.725 205.405,110.050 205.334,108.400 205.334 C 106.750 205.334,106.075 205.405,106.900 205.491 M114.705 206.283 C 115.202 206.379,115.922 206.375,116.305 206.275 C 116.687 206.175,116.280 206.096,115.400 206.101 C 114.520 206.105,114.207 206.187,114.705 206.283 M119.233 206.947 C 119.325 207.028,120.120 207.204,121.000 207.338 C 122.115 207.507,122.358 207.471,121.800 207.219 C 121.032 206.871,118.890 206.644,119.233 206.947 M126.033 208.544 C 126.125 208.623,126.740 208.808,127.400 208.956 C 128.276 209.152,128.438 209.115,128.000 208.818 C 127.460 208.453,125.632 208.198,126.033 208.544 M349.199 213.599 C 350.119 214.698,351.081 215.726,351.336 215.883 C 351.591 216.039,350.923 215.140,349.851 213.884 C 348.780 212.628,347.818 211.600,347.714 211.600 C 347.610 211.600,348.279 212.499,349.199 213.599 M138.033 213.325 C 140.461 215.142,142.495 216.477,142.261 216.099 C 141.916 215.540,138.606 213.200,138.161 213.200 C 137.999 213.200,137.942 213.256,138.033 213.325 M302.400 214.979 C 302.400 215.089,302.940 215.459,303.600 215.800 C 304.260 216.141,304.800 216.331,304.800 216.221 C 304.800 216.111,304.260 215.741,303.600 215.400 C 302.940 215.059,302.400 214.869,302.400 214.979 M353.215 218.700 C 354.126 220.075,354.938 221.200,355.022 221.200 C 355.290 221.200,353.649 218.638,352.589 217.400 C 352.023 216.740,352.305 217.325,353.215 218.700 M307.400 217.807 C 307.840 218.166,308.560 218.635,309.000 218.851 L 309.800 219.244 309.000 218.593 C 308.560 218.234,307.840 217.765,307.400 217.549 L 306.600 217.156 307.400 217.807 M174.815 217.800 C 174.817 218.020,175.186 218.650,175.636 219.200 C 176.179 219.864,176.315 219.931,176.040 219.400 C 175.366 218.095,174.812 217.372,174.815 217.800 M313.600 221.714 C 313.600 221.806,314.725 222.733,316.100 223.773 C 317.475 224.814,317.970 225.097,317.200 224.403 C 315.593 222.955,313.600 221.466,313.600 221.714 M321.015 228.012 C 322.327 229.449,323.482 230.567,323.581 230.498 C 323.681 230.428,322.608 229.252,321.197 227.885 L 318.631 225.400 321.015 228.012 M324.000 231.328 C 324.000 231.501,324.450 232.305,325.000 233.114 C 325.550 233.923,326.000 234.444,326.000 234.272 C 326.000 234.099,325.550 233.295,325.000 232.486 C 324.450 231.677,324.000 231.156,324.000 231.328 M152.662 235.800 C 152.796 236.680,152.972 237.475,153.053 237.567 C 153.356 237.910,153.129 235.768,152.781 235.000 C 152.529 234.442,152.493 234.685,152.662 235.800 M182.244 235.800 C 182.573 237.271,182.802 237.590,182.794 236.567 C 182.791 236.145,182.605 235.530,182.382 235.200 C 182.085 234.762,182.048 234.924,182.244 235.800 M327.539 238.387 C 327.902 239.480,328.251 240.147,328.314 239.869 C 328.427 239.366,327.332 236.400,327.033 236.400 C 326.947 236.400,327.175 237.294,327.539 238.387 M360.828 237.633 C 360.844 238.165,361.019 238.960,361.219 239.400 C 361.471 239.958,361.507 239.715,361.338 238.600 C 361.055 236.743,360.787 236.236,360.828 237.633 M183.106 242.400 C 183.219 244.270,183.376 245.875,183.456 245.967 C 183.722 246.274,183.509 241.414,183.203 240.200 C 183.036 239.539,182.992 240.528,183.106 242.400 M153.400 247.600 C 153.400 252.085,153.514 255.225,153.653 254.577 C 153.792 253.930,153.905 250.790,153.905 247.600 C 153.905 244.410,153.792 241.270,153.653 240.623 C 153.514 239.975,153.400 243.115,153.400 247.600 M328.644 241.800 C 328.973 243.271,329.202 243.590,329.194 242.567 C 329.191 242.145,329.005 241.530,328.782 241.200 C 328.485 240.762,328.448 240.924,328.644 241.800 M361.882 245.600 C 362.003 247.690,362.169 249.475,362.251 249.567 C 362.529 249.878,362.343 245.410,362.002 243.600 C 361.764 242.338,361.728 242.937,361.882 245.600 M329.693 246.800 C 329.693 247.570,329.775 247.885,329.876 247.500 C 329.976 247.115,329.976 246.485,329.876 246.100 C 329.775 245.715,329.693 246.030,329.693 246.800 M330.124 251.000 C 330.126 252.320,330.201 252.812,330.290 252.093 C 330.379 251.374,330.377 250.294,330.286 249.693 C 330.195 249.092,330.122 249.680,330.124 251.000 M183.334 253.200 C 183.334 254.850,183.405 255.525,183.491 254.700 C 183.578 253.875,183.578 252.525,183.491 251.700 C 183.405 250.875,183.334 251.550,183.334 253.200 M361.877 256.551 C 361.707 258.944,361.648 260.981,361.746 261.079 C 362.004 261.338,362.501 254.814,362.330 253.400 C 362.251 252.740,362.047 254.158,361.877 256.551 M330.124 257.000 C 330.126 258.320,330.201 258.812,330.290 258.093 C 330.379 257.374,330.377 256.294,330.286 255.693 C 330.195 255.092,330.122 255.680,330.124 257.000 M152.650 259.250 C 152.317 260.917,152.640 261.240,153.000 259.600 C 153.152 258.909,153.193 258.259,153.091 258.158 C 152.989 258.056,152.791 258.547,152.650 259.250 M329.701 261.400 C 329.705 262.280,329.787 262.593,329.883 262.095 C 329.979 261.598,329.975 260.878,329.875 260.495 C 329.775 260.113,329.696 260.520,329.701 261.400 M182.250 261.650 C 181.917 263.317,182.240 263.640,182.600 262.000 C 182.752 261.309,182.793 260.659,182.691 260.558 C 182.589 260.456,182.391 260.947,182.250 261.650 M151.800 262.800 C 151.648 263.491,151.607 264.141,151.709 264.242 C 151.811 264.344,152.009 263.853,152.150 263.150 C 152.483 261.483,152.160 261.160,151.800 262.800 M361.018 265.018 C 360.865 266.039,360.822 266.955,360.922 267.055 C 361.022 267.155,361.229 266.402,361.382 265.382 C 361.535 264.361,361.578 263.445,361.478 263.345 C 361.378 263.245,361.171 263.998,361.018 265.018 M181.429 265.429 C 181.281 266.015,181.238 266.572,181.332 266.666 C 181.427 266.760,181.624 266.358,181.771 265.771 C 181.919 265.185,181.962 264.628,181.868 264.534 C 181.773 264.440,181.576 264.842,181.429 265.429 M328.846 266.067 C 328.821 266.434,328.696 267.064,328.570 267.467 C 328.352 268.162,328.363 268.163,328.797 267.487 C 329.048 267.096,329.173 266.466,329.073 266.087 C 328.911 265.468,328.888 265.466,328.846 266.067 M327.539 270.413 C 327.175 271.506,326.947 272.400,327.033 272.400 C 327.332 272.400,328.427 269.434,328.314 268.931 C 328.251 268.653,327.902 269.320,327.539 270.413 M148.152 272.100 C 147.784 272.815,146.970 274.026,146.342 274.791 C 145.714 275.556,145.200 276.335,145.200 276.522 C 145.200 276.709,145.818 276.051,146.574 275.062 C 147.993 273.203,149.372 270.800,149.021 270.800 C 148.911 270.800,148.520 271.385,148.152 272.100 M235.344 275.509 C 235.660 276.021,238.000 277.753,238.000 277.475 C 238.000 277.376,237.339 276.791,236.532 276.175 C 235.724 275.559,235.189 275.259,235.344 275.509 M324.200 277.600 C 323.859 278.260,323.669 278.800,323.779 278.800 C 323.889 278.800,324.259 278.260,324.600 277.600 C 324.941 276.940,325.131 276.400,325.021 276.400 C 324.911 276.400,324.541 276.940,324.200 277.600 M143.802 277.598 C 143.403 278.039,143.207 278.400,143.367 278.400 C 143.788 278.400,144.928 277.195,144.712 276.979 C 144.611 276.878,144.202 277.156,143.802 277.598 M231.800 279.061 C 231.464 279.865,231.282 280.615,231.395 280.728 C 231.508 280.841,231.600 280.835,231.600 280.716 C 231.600 280.596,231.872 279.846,232.205 279.049 C 232.538 278.252,232.721 277.600,232.611 277.600 C 232.501 277.600,232.136 278.258,231.800 279.061 M239.000 278.285 C 239.440 278.755,241.330 280.072,243.200 281.211 C 247.429 283.786,247.504 283.827,247.000 283.293 C 246.780 283.059,245.070 281.936,243.200 280.797 C 241.330 279.658,239.440 278.434,239.000 278.078 L 238.200 277.430 239.000 278.285 M141.399 279.912 C 140.739 280.510,139.659 281.415,138.999 281.922 C 138.340 282.429,138.160 282.665,138.600 282.447 C 139.648 281.927,143.388 278.797,142.944 278.812 C 142.755 278.818,142.060 279.313,141.399 279.912 M356.790 280.600 C 356.576 281.150,356.209 282.095,355.975 282.700 C 355.741 283.305,355.714 283.620,355.915 283.400 C 356.386 282.883,357.658 279.600,357.387 279.600 C 357.273 279.600,357.005 280.050,356.790 280.600 M319.627 283.709 C 318.155 285.396,317.941 285.748,318.962 284.800 C 320.304 283.554,322.260 281.185,321.927 281.209 C 321.857 281.214,320.822 282.339,319.627 283.709 M229.590 284.200 C 229.376 284.750,229.009 285.695,228.775 286.300 C 228.541 286.905,228.514 287.220,228.715 287.000 C 229.186 286.483,230.458 283.200,230.187 283.200 C 230.073 283.200,229.805 283.650,229.590 284.200 M353.152 288.100 C 352.890 288.595,352.415 289.450,352.096 290.000 C 351.539 290.959,351.543 290.967,352.188 290.200 C 352.986 289.252,354.105 287.200,353.824 287.200 C 353.716 287.200,353.414 287.605,353.152 288.100 M167.544 291.407 C 166.083 292.833,165.008 294.000,165.155 294.000 C 165.303 294.000,166.583 292.830,168.000 291.400 C 169.417 289.970,170.492 288.803,170.388 288.807 C 170.285 288.811,169.005 289.981,167.544 291.407 M112.800 290.400 L 111.400 290.695 112.800 290.719 C 113.570 290.733,114.560 290.589,115.000 290.400 L 115.800 290.056 115.000 290.081 C 114.560 290.094,113.570 290.238,112.800 290.400 M106.200 291.200 L 103.800 291.466 106.000 291.493 C 107.210 291.508,108.650 291.376,109.200 291.200 C 110.414 290.811,109.713 290.811,106.200 291.200 M66.400 291.700 C 66.400 291.865,73.915 291.960,83.100 291.912 C 92.285 291.863,97.190 291.774,94.000 291.713 C 79.266 291.433,66.399 291.427,66.400 291.700 M350.175 292.668 C 349.559 293.476,349.259 294.011,349.509 293.856 C 350.021 293.540,351.753 291.200,351.475 291.200 C 351.376 291.200,350.791 291.861,350.175 292.668 M269.600 291.994 C 269.930 292.211,270.635 292.391,271.167 292.394 C 272.451 292.402,272.125 292.175,270.400 291.858 C 269.415 291.677,269.178 291.718,269.600 291.994 M273.400 292.781 C 274.168 293.129,276.310 293.356,275.967 293.053 C 275.875 292.972,275.080 292.796,274.200 292.662 C 273.085 292.493,272.842 292.529,273.400 292.781 M280.300 293.882 C 280.795 293.978,281.605 293.978,282.100 293.882 C 282.595 293.787,282.190 293.709,281.200 293.709 C 280.210 293.709,279.805 293.787,280.300 293.882 M298.900 293.876 C 299.285 293.976,299.915 293.976,300.300 293.876 C 300.685 293.775,300.370 293.693,299.600 293.693 C 298.830 293.693,298.515 293.775,298.900 293.876 M285.700 294.291 C 286.525 294.378,287.875 294.378,288.700 294.291 C 289.525 294.205,288.850 294.134,287.200 294.134 C 285.550 294.134,284.875 294.205,285.700 294.291 M294.500 294.287 C 295.105 294.378,296.095 294.378,296.700 294.287 C 297.305 294.195,296.810 294.120,295.600 294.120 C 294.390 294.120,293.895 294.195,294.500 294.287 M346.024 297.722 C 343.422 300.589,343.338 300.724,345.355 298.800 C 347.325 296.922,349.540 294.351,349.127 294.422 C 349.057 294.434,347.661 295.919,346.024 297.722 M155.500 300.629 C 154.005 301.440,154.096 301.778,155.600 301.000 C 156.260 300.659,156.800 300.294,156.800 300.190 C 156.800 299.932,156.757 299.947,155.500 300.629 M224.600 300.607 C 225.040 300.966,225.760 301.435,226.200 301.651 L 227.000 302.044 226.200 301.393 C 225.760 301.034,225.040 300.565,224.600 300.349 L 223.800 299.956 224.600 300.607 M228.800 303.164 C 229.350 303.614,229.980 303.983,230.200 303.985 C 230.628 303.988,229.905 303.434,228.600 302.760 C 228.069 302.485,228.136 302.621,228.800 303.164 M338.785 303.926 C 337.787 304.737,336.527 305.723,335.985 306.117 C 335.030 306.813,335.039 306.814,336.289 306.137 C 337.501 305.482,341.234 302.424,340.800 302.443 C 340.690 302.448,339.783 303.115,338.785 303.926 M146.800 305.000 C 146.250 305.314,145.980 305.572,146.200 305.572 C 146.420 305.572,147.050 305.314,147.600 305.000 C 148.150 304.686,148.420 304.428,148.200 304.428 C 147.980 304.428,147.350 304.686,146.800 305.000 M129.400 310.400 C 128.381 310.838,129.432 310.838,130.800 310.400 C 131.604 310.143,131.643 310.077,131.000 310.068 C 130.560 310.062,129.840 310.211,129.400 310.400 M125.000 311.219 C 124.442 311.471,124.685 311.507,125.800 311.338 C 126.680 311.204,127.475 311.028,127.567 310.947 C 127.910 310.644,125.768 310.871,125.000 311.219 M120.200 312.000 L 119.400 312.344 120.200 312.325 C 120.640 312.314,121.540 312.168,122.200 312.000 L 123.400 311.695 122.200 311.675 C 121.540 311.665,120.640 311.811,120.200 312.000 M113.600 312.800 C 112.196 313.250,113.663 313.265,115.800 312.823 L 117.400 312.492 116.000 312.486 C 115.230 312.483,114.150 312.624,113.600 312.800 M101.800 313.600 L 98.600 313.853 101.600 313.883 C 103.250 313.900,105.680 313.779,107.000 313.615 L 109.400 313.318 107.200 313.332 C 105.990 313.340,103.560 313.461,101.800 313.600 M254.600 313.600 C 255.796 314.114,256.795 314.114,256.000 313.600 C 255.670 313.387,255.040 313.222,254.600 313.234 L 253.800 313.256 254.600 313.600 M262.000 315.200 C 262.550 315.376,263.360 315.520,263.800 315.520 C 264.433 315.520,264.392 315.454,263.600 315.200 C 263.050 315.024,262.240 314.880,261.800 314.880 C 261.167 314.880,261.208 314.946,262.000 315.200 M267.000 316.000 C 268.692 316.431,270.144 316.431,268.800 316.000 C 268.250 315.824,267.350 315.683,266.800 315.687 C 265.902 315.694,265.922 315.726,267.000 316.000 M309.800 316.000 L 309.000 316.344 309.800 316.344 C 310.240 316.344,310.960 316.189,311.400 316.000 L 312.200 315.656 311.400 315.656 C 310.960 315.656,310.240 315.811,309.800 316.000 M271.905 316.683 C 272.402 316.779,273.122 316.775,273.505 316.675 C 273.887 316.575,273.480 316.496,272.600 316.501 C 271.720 316.505,271.407 316.587,271.905 316.683 M275.105 317.083 C 275.602 317.179,276.322 317.175,276.705 317.075 C 277.087 316.975,276.680 316.896,275.800 316.901 C 274.920 316.905,274.607 316.987,275.105 317.083 M303.700 317.076 C 304.085 317.176,304.715 317.176,305.100 317.076 C 305.485 316.975,305.170 316.893,304.400 316.893 C 303.630 316.893,303.315 316.975,303.700 317.076 M285.696 317.750 C 289.061 317.949,293.612 317.949,296.296 317.750 C 300.454 317.441,299.770 317.400,290.400 317.400 C 280.121 317.400,279.978 317.411,285.696 317.750 " stroke="none" fill="#000" fill-rule="evenodd"></path><path id="path4" d="M50.300 86.700 C 56.955 86.761,67.845 86.761,74.500 86.700 C 81.155 86.638,75.710 86.588,62.400 86.588 C 49.090 86.588,43.645 86.638,50.300 86.700 M84.100 109.076 C 84.485 109.176,85.115 109.176,85.500 109.076 C 85.885 108.975,85.570 108.893,84.800 108.893 C 84.030 108.893,83.715 108.975,84.100 109.076 M93.905 109.483 C 94.402 109.579,95.122 109.575,95.505 109.475 C 95.887 109.375,95.480 109.296,94.600 109.301 C 93.720 109.305,93.407 109.387,93.905 109.483 M74.274 205.099 C 78.494 205.164,85.514 205.164,89.874 205.100 C 94.233 205.035,90.780 204.982,82.200 204.982 C 73.620 204.982,70.053 205.035,74.274 205.099 M344.200 208.000 C 345.059 208.880,345.852 209.600,345.962 209.600 C 346.072 209.600,345.459 208.880,344.600 208.000 C 343.741 207.120,342.948 206.400,342.838 206.400 C 342.728 206.400,343.341 207.120,344.200 208.000 M153.293 242.800 C 153.293 243.570,153.375 243.885,153.476 243.500 C 153.576 243.115,153.576 242.485,153.476 242.100 C 153.375 241.715,153.293 242.030,153.293 242.800 M153.293 252.400 C 153.293 253.170,153.375 253.485,153.476 253.100 C 153.576 252.715,153.576 252.085,153.476 251.700 C 153.375 251.315,153.293 251.630,153.293 252.400 M290.905 294.287 C 291.514 294.379,292.414 294.377,292.905 294.282 C 293.397 294.187,292.900 294.111,291.800 294.114 C 290.700 294.117,290.297 294.195,290.905 294.287 M283.500 317.882 C 283.995 317.978,284.805 317.978,285.300 317.882 C 285.795 317.787,285.390 317.709,284.400 317.709 C 283.410 317.709,283.005 317.787,283.500 317.882 " stroke="none" fill="#7c7c7c" fill-rule="evenodd"></path></g></svg>