<!DOCTYPE svg PUBLIC "-//W3C//DTD SVG 20010904//EN" "http://www.w3.org/TR/2001/REC-SVG-20010904/DTD/svg10.dtd">
<svg version="1.0" xmlns="http://www.w3.org/2000/svg" viewBox="0 0 8120 2880" preserveAspectRatio="xMidYMid meet">
<g id="layer101" fill="#000000" stroke="none">
 <path d="M4753 2440 c-13 -5 -23 -15 -23 -22 0 -7 -10 -18 -22 -23 -17 -7 -24 -20 -26 -45 -2 -29 3 -41 34 -70 24 -23 38 -31 41 -22 6 15 30 16 35 1 6 -17 38 2 38 22 0 10 5 19 11 19 17 0 38 32 39 56 0 23 -71 94 -93 93 -6 0 -22 -4 -34 -9z"/>
 <path d="M5143 2360 c-66 -40 -80 -110 -27 -130 13 -5 24 -16 24 -24 0 -7 7 -17 16 -20 33 -13 58 -5 89 28 42 45 42 92 0 136 -33 35 -58 37 -102 10z"/>
 <path d="M4350 2338 c-19 -13 -41 -36 -49 -52 -11 -25 -11 -32 5 -63 25 -47 37 -55 84 -59 35 -3 43 1 67 31 30 38 40 95 17 95 -8 0 -14 8 -14 19 0 45 -62 61 -110 29z"/>
 <path d="M5524 2192 c-6 -4 -13 -15 -17 -24 -3 -10 -15 -18 -26 -18 -21 0 -31 -18 -31 -60 0 -36 59 -90 99 -90 33 0 101 67 101 100 0 11 -16 38 -36 60 -35 38 -65 49 -90 32z"/>
 <path d="M4797 2140 c-19 -16 -40 -30 -46 -30 -6 0 -11 -5 -11 -11 0 -7 -9 -9 -24 -5 -13 3 -37 1 -54 -5 -25 -9 -36 -8 -54 5 -12 9 -31 16 -41 16 -22 0 -87 -61 -87 -82 0 -8 -20 -28 -44 -45 -38 -27 -50 -30 -90 -26 -42 5 -48 3 -53 -16 -3 -11 -13 -21 -22 -21 -9 0 -22 -14 -30 -31 -11 -26 -12 -38 -2 -66 11 -29 10 -37 -3 -52 -9 -10 -16 -22 -16 -27 -1 -16 -35 -51 -67 -68 -72 -37 -94 -110 -49 -163 20 -24 23 -35 18 -88 -4 -47 -11 -67 -33 -93 -16 -18 -29 -37 -29 -42 0 -23 21 -60 35 -60 9 0 20 -11 25 -25 5 -14 16 -25 23 -25 7 0 21 -18 31 -40 15 -34 16 -43 5 -56 -7 -9 -14 -34 -14 -55 -1 -51 47 -103 97 -102 44 1 102 -51 93 -84 -8 -32 4 -73 21 -73 8 0 14 -9 14 -20 0 -41 96 -66 131 -34 29 26 63 10 97 -44 33 -53 76 -78 117 -68 14 4 25 13 25 21 0 8 7 15 15 15 8 0 15 7 15 15 0 15 10 18 83 30 23 4 37 2 37 -5 0 -5 11 -10 24 -10 13 0 29 -6 35 -14 10 -11 38 -14 84 -7 4 1 7 10 7 20 0 14 17 28 62 49 61 30 88 32 88 6 0 -19 47 -29 76 -15 13 6 24 18 24 26 0 9 11 20 24 25 28 10 43 59 27 89 -7 13 -8 22 -1 26 5 3 10 15 10 26 0 10 6 19 14 19 7 0 19 6 25 14 6 7 22 11 35 9 16 -3 34 5 58 25 28 25 34 37 33 69 0 21 -4 44 -9 51 -9 16 32 144 50 155 8 4 14 17 14 27 0 11 4 20 9 20 5 0 11 17 14 38 3 26 -1 43 -13 57 -26 29 -36 138 -16 167 24 34 20 67 -9 78 -14 5 -25 16 -25 24 0 8 -6 19 -14 23 -20 11 -64 78 -72 107 -3 13 -1 27 5 30 24 15 11 59 -29 98 -36 37 -43 40 -76 34 -49 -10 -84 14 -84 55 0 23 -10 42 -39 70 -44 44 -84 51 -122 20 -21 -17 -27 -17 -63 -5 -22 8 -48 12 -58 8 -10 -3 -18 -1 -18 5 0 6 -7 11 -16 11 -9 0 -32 14 -51 30 -18 17 -45 30 -58 30 -13 0 -40 -13 -58 -30z m-21 -125 c4 -8 15 -15 25 -15 10 0 19 -6 19 -14 0 -9 12 -13 39 -11 48 3 61 11 61 37 0 19 4 20 54 14 72 -8 83 -13 90 -42 4 -14 18 -29 31 -34 14 -5 25 -16 25 -25 0 -27 50 -39 89 -20 31 15 36 15 50 1 10 -10 14 -30 12 -54 -4 -56 36 -102 88 -102 44 0 67 -20 86 -77 12 -35 12 -39 -6 -45 -34 -13 -23 -54 26 -103 39 -38 45 -48 39 -72 -4 -15 -21 -40 -39 -55 -25 -21 -32 -35 -33 -68 -2 -35 2 -42 23 -50 28 -11 31 -28 14 -96 -9 -35 -18 -47 -45 -60 -21 -10 -34 -24 -34 -35 0 -11 -4 -19 -10 -19 -5 0 -10 -19 -10 -43 0 -36 -6 -49 -33 -75 -28 -27 -38 -31 -64 -26 -35 7 -73 -10 -73 -31 0 -8 -7 -15 -16 -15 -21 0 -43 -29 -44 -57 0 -31 -64 -52 -89 -29 -27 24 -60 19 -91 -14 -24 -26 -35 -30 -81 -30 -48 0 -55 3 -89 40 -46 50 -91 54 -139 14 -25 -21 -34 -23 -51 -14 -11 6 -20 20 -20 30 0 11 -16 38 -36 59 -34 38 -37 40 -87 36 -47 -4 -55 -1 -84 27 -21 21 -29 35 -23 42 10 13 7 76 -4 95 -4 6 -14 11 -22 11 -8 0 -14 7 -14 15 0 9 -12 18 -29 21 -24 5 -33 15 -45 51 -15 43 -15 44 8 53 20 7 24 16 23 45 -1 29 -6 39 -24 46 -13 5 -23 15 -23 23 0 9 -9 20 -20 26 -26 14 -28 68 -2 76 41 12 68 32 94 69 35 52 35 76 -2 118 -35 40 -36 49 -12 89 14 24 22 28 45 24 41 -8 73 9 103 55 20 32 24 49 20 74 -6 30 -3 35 29 54 21 12 53 21 78 21 31 0 45 5 55 20 7 11 19 20 26 20 8 0 16 5 18 11 8 24 116 36 124 14z"/>
 <path d="M4049 2064 c-33 -36 -33 -78 1 -114 37 -39 68 -38 108 3 39 40 41 75 6 107 -35 34 -85 36 -115 4z"/>
 <path d="M288 2062 c-10 -2 -18 -8 -18 -13 0 -5 -12 -9 -26 -9 -52 0 -191 -117 -233 -197 -12 -23 -14 -65 -5 -99 5 -17 60 -56 115 -82 4 -2 9 6 12 18 3 11 11 20 19 20 7 0 27 22 45 49 42 65 89 100 146 107 62 9 111 -2 147 -33 38 -31 74 -103 60 -117 -5 -5 -10 -18 -10 -28 0 -59 -63 -127 -257 -281 -128 -103 -173 -152 -215 -237 -8 -15 -13 -65 -13 -120 0 -85 3 -100 27 -140 33 -57 117 -136 166 -157 24 -10 72 -16 136 -17 84 -1 107 2 148 21 50 23 138 100 191 167 27 34 29 39 14 48 -9 5 -17 15 -17 23 0 15 -99 95 -117 95 -5 0 -29 -23 -53 -51 -61 -72 -92 -89 -168 -89 -53 0 -67 4 -87 25 -21 20 -25 34 -25 82 0 57 2 60 48 105 26 25 97 84 157 130 128 99 218 192 258 267 38 69 48 183 23 257 -20 59 -80 144 -107 151 -10 3 -19 10 -19 16 0 13 -25 32 -85 64 -43 22 -63 26 -145 28 -52 0 -103 -1 -112 -3z"/>
 <path d="M3288 2062 c-10 -2 -18 -8 -18 -13 0 -5 -13 -9 -29 -9 -56 0 -174 -104 -244 -217 -31 -49 -33 -63 -11 -63 9 0 18 -8 21 -19 4 -15 62 -55 114 -79 4 -2 9 6 12 18 3 11 12 20 21 20 9 0 16 6 16 14 0 23 83 108 125 127 56 26 122 24 176 -4 54 -29 69 -56 69 -125 0 -96 -39 -145 -262 -320 -126 -100 -158 -136 -202 -225 -26 -52 -28 -64 -24 -140 5 -100 20 -131 102 -213 77 -76 132 -98 221 -85 40 6 62 5 67 -2 9 -15 83 9 133 43 52 36 165 154 164 172 -1 26 -35 71 -76 100 -41 30 -43 30 -75 15 -18 -9 -44 -30 -56 -47 -28 -38 -79 -70 -109 -70 -13 0 -23 -4 -23 -10 0 -5 -7 -10 -15 -10 -8 0 -15 5 -15 10 0 6 -11 10 -24 10 -46 0 -69 31 -74 99 -4 61 -4 63 34 103 22 22 82 72 134 111 133 98 259 227 296 302 26 53 29 71 29 150 0 75 -4 98 -24 139 -32 65 -124 157 -191 191 -48 25 -67 28 -150 29 -52 1 -103 0 -112 -2z"/>
 <path d="M948 2019 c-17 -9 -18 -50 -18 -621 l0 -611 26 -23 25 -24 355 0 c296 0 354 2 354 14 0 8 7 16 15 20 11 4 15 23 15 81 0 60 -3 75 -15 75 -8 0 -15 7 -15 15 0 13 -37 15 -270 15 l-270 0 0 140 0 140 261 0 c305 0 288 -6 288 105 0 111 17 105 -288 105 l-261 0 0 190 0 190 261 0 c238 0 263 2 275 18 17 22 19 153 2 170 -16 16 -714 17 -740 1z"/>
 <path d="M1873 2016 l-23 -11 0 -609 0 -609 26 -23 c28 -27 64 -32 64 -9 0 8 7 15 15 15 8 0 15 9 15 20 0 11 7 20 15 20 12 0 353 384 586 660 31 36 67 78 82 94 l27 29 0 -412 c0 -362 2 -411 15 -411 9 0 18 -7 21 -15 9 -23 132 -21 150 2 21 27 20 1245 0 1262 -28 24 -82 3 -123 -48 -31 -38 -524 -601 -630 -720 l-32 -36 -1 395 0 395 -27 13 c-33 15 -149 14 -180 -2z"/>
 <path d="M6620 2006 c0 -7 -9 -16 -20 -19 -11 -3 -20 -13 -20 -22 0 -9 -9 -28 -20 -42 -11 -14 -24 -42 -30 -63 -6 -20 -21 -54 -35 -74 -14 -20 -25 -40 -25 -44 -1 -4 -54 -112 -119 -241 -132 -262 -120 -256 -142 -74 -10 84 -15 102 -30 106 -11 3 -19 12 -19 21 0 23 -135 24 -144 1 -3 -8 -12 -15 -21 -15 -16 0 -21 -25 -6 -34 5 -3 7 -15 4 -26 -3 -11 0 -27 7 -35 6 -8 9 -19 5 -25 -6 -10 21 -222 32 -250 3 -8 5 -27 4 -42 -1 -14 2 -29 7 -32 5 -3 7 -16 5 -30 -3 -13 0 -27 6 -30 6 -4 8 -20 5 -35 -4 -16 -1 -32 5 -35 6 -4 9 -11 6 -16 -3 -5 0 -49 6 -97 10 -70 17 -93 36 -110 28 -27 53 -30 53 -7 0 9 8 18 18 21 15 4 188 341 403 788 61 128 60 127 93 53 29 -67 291 -603 307 -628 5 -8 32 -59 59 -113 28 -53 59 -106 70 -117 23 -23 50 -26 50 -6 0 7 9 25 21 40 11 14 19 36 18 48 -1 13 1 30 4 38 11 25 38 250 32 259 -3 5 0 13 6 17 6 3 9 19 5 35 -3 15 -1 31 5 35 6 3 9 18 8 32 -1 15 1 34 4 42 3 8 16 82 27 163 16 108 18 152 10 162 -8 9 -6 14 6 19 12 5 15 14 11 36 -4 16 -2 32 4 36 6 3 9 16 8 27 -1 12 1 29 4 37 3 8 8 29 10 45 2 17 5 -210 6 -504 l1 -534 26 -23 25 -24 355 0 354 0 0 110 0 110 -270 0 -270 0 0 135 0 135 264 0 264 0 6 23 c7 29 7 145 0 175 l-6 22 -264 0 -264 0 0 190 0 190 264 0 c231 0 265 2 270 16 8 20 8 158 0 178 -5 14 -46 16 -359 16 -261 0 -354 -3 -357 -12 -6 -16 -48 -18 -48 -1 0 20 -146 18 -154 -2 -3 -8 -12 -15 -20 -15 -20 0 -33 -95 -16 -115 10 -12 9 -15 -4 -15 -9 0 -16 -5 -16 -12 0 -6 -12 -97 -26 -202 -19 -143 -23 -195 -15 -208 9 -14 8 -18 -4 -18 -18 0 -20 -41 -3 -58 9 -9 8 -12 -5 -12 -12 0 -17 -8 -17 -30 0 -16 -4 -30 -8 -30 -4 0 -70 125 -146 278 -77 152 -149 295 -162 317 -13 22 -24 48 -24 57 0 30 -49 78 -81 78 -18 0 -29 -5 -29 -14z"/>
 <path d="M5718 1849 c-10 -5 -18 -15 -18 -22 0 -7 -10 -17 -22 -22 -16 -7 -24 -20 -26 -43 -3 -26 3 -39 31 -67 46 -46 117 -48 117 -4 0 12 10 23 25 29 38 15 34 63 -9 106 -35 35 -66 42 -98 23z"/>
 <path d="M3923 1773 c-7 -2 -13 -11 -13 -19 0 -8 -11 -19 -25 -24 -36 -14 -32 -51 9 -94 18 -20 41 -36 51 -36 10 0 33 16 51 36 41 43 45 80 10 93 -13 5 -26 19 -29 30 -5 20 -26 26 -54 14z"/>
 <path d="M5773 1493 c-7 -2 -13 -11 -13 -18 0 -8 -12 -20 -27 -27 -43 -20 -43 -60 0 -103 46 -46 78 -46 123 -1 45 45 45 81 1 124 -31 30 -55 37 -84 25z"/>
 <path d="M3828 1400 c-35 -35 -40 -44 -34 -72 11 -53 79 -114 97 -87 8 12 10 12 18 0 21 -32 91 44 91 99 0 23 -10 42 -34 66 -48 48 -86 47 -138 -6z"/>
 <path d="M5728 1206 c-10 -7 -18 -20 -18 -29 0 -8 -4 -17 -8 -19 -5 -1 -12 -15 -15 -29 -5 -20 0 -32 24 -55 25 -24 31 -26 39 -14 8 12 12 12 18 2 12 -18 34 -7 60 33 28 44 28 63 -2 74 -13 5 -26 19 -29 30 -6 24 -42 28 -69 7z"/>
 <path d="M4001 973 c-17 -21 -31 -41 -31 -45 0 -4 9 -23 21 -42 19 -32 25 -36 63 -36 32 0 48 6 66 25 18 19 21 28 12 37 -9 9 -9 15 0 26 10 12 6 20 -20 43 -44 40 -74 37 -111 -8z"/>
 <path d="M5601 925 c-41 -35 -45 -56 -21 -98 28 -48 82 -56 123 -19 38 36 37 82 -4 116 -38 33 -60 33 -98 1z"/>
 <path d="M4245 699 c-46 -41 -47 -75 -1 -123 41 -44 65 -45 111 -5 47 42 48 83 2 127 -41 40 -67 40 -112 1z"/>
 <path d="M5398 669 c-10 -5 -18 -16 -18 -24 0 -7 -8 -15 -17 -17 -26 -5 -27 -65 -2 -71 10 -3 22 -13 26 -24 16 -44 46 -43 89 4 43 46 43 71 1 111 -35 34 -51 38 -79 21z"/>
 <path d="M5020 573 c-8 -3 -30 -19 -47 -36 -43 -40 -46 -92 -8 -107 14 -5 25 -16 25 -25 0 -19 45 -38 71 -30 10 3 32 22 48 41 48 54 39 103 -26 146 -29 19 -38 20 -63 11z"/>
 <path d="M4560 505 c-36 -38 -35 -89 2 -120 38 -32 68 -32 100 3 42 44 43 65 7 106 -38 44 -75 47 -109 11z"/>
 </g>

</svg>