<?xml version="1.0" encoding="UTF-8"?>
<svg viewBox="0 0 166 41" version="1.1" xmlns="http://www.w3.org/2000/svg" xmlns:xlink="http://www.w3.org/1999/xlink">
    <!-- Generator: Sketch 52.4 (67378) - http://www.bohemiancoding.com/sketch -->
    <title>Logo</title>
    <desc>Created with Sketch.</desc>
    <g id="Home" stroke="none" stroke-width="1" fill="none" fill-rule="evenodd">
        <g id="Home-Black-V1" transform="translate(-155.000000, -2667.000000)">
            <g id="Group-5" transform="translate(-1.000000, 2563.000000)">
                <g id="Logo" transform="translate(156.000000, 104.000000)">
                    <path d="M59.6921229,28.7851228 C51.5989195,28.7851228 49.1208771,25.7682807 49.1208771,22.7745965 L53.7133093,22.7745965 C53.7133093,24.2489825 55.7362585,25.3598596 59.8968093,25.3598596 C64.0341483,25.3598596 65.1258093,24.6342456 65.1258093,23.4545965 C65.1258093,22.138807 64.3070636,21.7310877 60.4651483,21.3002105 C59.7146314,21.2321404 57.6459619,20.9830175 56.8729364,20.8693333 C51.4167415,20.2567018 49.3248602,18.6461754 49.3248602,15.7654737 C49.3248602,12.7261754 52.3944534,10.4356491 59.0555551,10.4356491 C66.2849958,10.4356491 69.0584619,13.2707368 69.0584619,16.2195088 L64.51175,16.2195088 C64.51175,14.7226667 62.8067331,13.8602105 58.7826398,13.8602105 C54.6453008,13.8602105 53.7583263,14.4279298 53.7583263,15.538807 C53.7583263,16.6952982 54.6678093,17.058807 59.0555551,17.5802105 C60.0557754,17.7163509 62.2841144,17.9654737 62.8974703,18.0342456 C67.5356229,18.5100351 69.6275042,20.1886316 69.6275042,23.1598596 C69.6275042,26.6981053 66.4439619,28.7851228 59.6921229,28.7851228 Z M74.8456017,28.5129825 L74.8456017,10.7073684 L79.2333475,10.7073684 L79.2333475,28.5129825 L74.8456017,28.5129825 Z M103.413217,12.4994386 C104.231963,13.406807 104.754581,14.881193 104.754581,16.9675088 C104.754581,18.7822456 104.367717,20.1436491 103.617903,21.0734737 C102.504437,22.5247018 100.594031,23.1829474 97.8887932,23.2054035 C97.5209203,23.2054035 91.3416407,23.1885614 91.3416407,23.1885614 L93.4532169,19.6215439 L96.9568017,19.6215439 C98.7300475,19.6215439 99.662039,19.2587368 100.09392,18.5555789 C100.344327,18.1703158 100.412556,17.6482105 100.412556,16.9450526 C100.412556,16.1969825 100.298607,15.5843509 100.09392,15.2664561 C99.6395305,14.5864561 98.6618186,14.2004912 97.0018186,14.2004912 L89.7498695,14.2004912 L89.772378,28.5127719 L85.4760729,28.5127719 L85.4760729,10.7071579 L97.8887932,10.7071579 C100.503293,10.7071579 102.390488,11.3197895 103.413217,12.4994386 Z M135.813111,23.5 C136.722594,22.6150877 137.063738,21.1182456 137.063738,19.5764912 C137.063738,18.0115789 136.722594,16.4684211 135.835619,15.6522807 C134.608204,14.5407018 133.084662,13.8831579 130.220458,13.8831579 C127.492009,13.8831579 125.718764,14.6087719 124.673526,15.6978947 C123.877289,16.5589474 123.445408,17.9884211 123.445408,19.5764912 C123.445408,21.3 123.854781,22.774386 124.945738,23.7042105 C126.173857,24.7477193 127.719908,25.2922807 130.242967,25.2922807 C132.993925,25.2922807 134.608204,24.6796491 135.813111,23.5 Z M139.405323,13.4291228 C140.859933,14.9722807 141.428272,16.9224561 141.428272,19.5084211 C141.428272,22.1849123 140.700967,24.2031579 139.382814,25.7007018 C137.632077,27.7421053 134.494255,28.7849123 130.242967,28.7849123 C126.083119,28.7849123 123.127475,27.6957895 121.262789,25.745614 C119.830687,24.2487719 119.057662,22.2073684 119.057662,19.5084211 C119.057662,17.0817544 119.671721,15.1301754 121.081314,13.6108772 C123.149984,11.3877193 125.946662,10.3449123 130.242967,10.3449123 C134.539975,10.3449123 137.426687,11.3652632 139.405323,13.4291228 Z M155.877236,28.7851228 C147.784032,28.7851228 145.30599,25.7682807 145.30599,22.7745965 L149.898422,22.7745965 C149.898422,24.2489825 151.921371,25.3598596 156.081922,25.3598596 C160.219261,25.3598596 161.310922,24.6342456 161.310922,23.4545965 C161.310922,22.138807 160.492176,21.7310877 156.650261,21.3002105 C155.899744,21.2321404 153.831075,20.9830175 153.058049,20.8693333 C147.601854,20.2567018 145.509973,18.6461754 145.509973,15.7654737 C145.509973,12.7261754 148.579566,10.4356491 155.240668,10.4356491 C162.470108,10.4356491 165.243575,13.2707368 165.243575,16.2195088 L160.696863,16.2195088 C160.696863,14.7226667 158.991846,13.8602105 154.967753,13.8602105 C150.830414,13.8602105 149.943439,14.4279298 149.943439,15.538807 C149.943439,16.6952982 150.852922,17.058807 155.240668,17.5802105 C156.240888,17.7163509 158.469227,17.9654737 159.083286,18.0342456 C163.720736,18.5100351 165.812617,20.1886316 165.812617,23.1598596 C165.812617,26.6981053 162.629075,28.7851228 155.877236,28.7851228 Z M109.723186,28.5129825 L109.723186,10.7073684 L114.110932,10.7073684 L114.110932,28.5129825 L109.723186,28.5129825 Z" id="Type" fill="#FFF"></path>
                    <g id="Icon" stroke="#FFF" stroke-linejoin="round" stroke-width="1.22807018">
                        <polygon id="Stroke-9" points="17.6683788 0.614175439 0.615395763 10.4366316 0.615395763 30.0899649 17.6683788 39.9124211 34.7213619 30.0815439 34.7213619 10.4366316"></polygon>
                        <polygon id="Stroke-10" points="34.7210805 30.0816842 0.615817797 30.0901053 17.6680975 39.9125614"></polygon>
                        <polygon id="Stroke-11" points="34.7210805 10.4367018 0.615817797 30.0900351 17.6680975 39.9124912"></polygon>
                        <polygon id="Stroke-12" points="0.61560678 30.0898947 17.6685898 0.614105263 17.6685898 39.9123509"></polygon>
                        <polygon id="Stroke-13" points="0.61560678 10.4367018 17.6685898 39.9124912 0.61560678 30.0900351"></polygon>
                    </g>
                </g>
            </g>
        </g>
    </g>
</svg>