<?xml version="1.0" encoding="utf-8"?>
<!-- Generator: Adobe Illustrator 23.0.1, SVG Export Plug-In . SVG Version: 6.00 Build 0)  -->
<svg version="1.1" id="Calque_1" xmlns="http://www.w3.org/2000/svg" xmlns:xlink="http://www.w3.org/1999/xlink" x="0px" y="0px"
	 viewBox="0 0 229.1 45.7" style="enable-background:new 0 0 229.1 45.7;" xml:space="preserve">
<style type="text/css">
	.st0{fill:#FFF;}
</style>
<polygon class="st0" points="3.2,7.6 15,7.6 15,44.6 24.2,44.6 24.2,7.6 36,7.6 36,0 3.2,0 "/>
<path class="st0" d="M60.3,11.4c-3.7,0-7.2,0.1-9.6,1.9V0h-8.8v44.8h8.8V26.2c0-5.8,1.5-7.2,7.3-7.2c6.6,0,7.2,1.3,7.2,6.9v18.9H74
	v-21c0-4.8-0.9-7.6-2.8-9.4C69.1,12.3,65.8,11.4,60.3,11.4z"/>
<path class="st0" d="M108.6,14.8c-2.4-2.4-6.1-3.4-13-3.4c-6.1,0-10.8,0.6-13.5,3.4c-2.7,2.8-3.1,7.5-3.1,13.6
	c0,13.8,3.3,17.1,16.8,17.1c6.6,0,10.3-0.7,12.7-2.5c2.8-2.1,3.1-5.1,3.1-8.4h-8.8c0,2.7,0,3.6-7.3,3.6c-3.1,0-4.9-0.3-5.8-1.3
	c-0.9-0.9-1.3-2.8-1.3-5.5h23.4v-0.6c0-0.4,0-0.7,0-1.2c0-0.7,0.1-1.5,0.1-2.2C111.8,21.7,111.2,17.4,108.6,14.8z M102.8,24.7v0.1
	H88.1c0.1-2.8,0.4-4.2,1.2-4.9c0,0,0.1-0.1,0.2-0.1c0-0.1,0.1-0.1,0.1-0.2c0.7-0.6,2.4-1,5.8-1c6.6,0,7.3,0.7,7.5,6h-0.2
	C102.8,24.6,102.8,24.7,102.8,24.7z"/>
<path class="st0" d="M147,14.8c-2.5-2.4-6.4-3.4-13.5-3.4s-10.9,1-13.5,3.4c-2.5,2.5-3.6,6.4-3.6,13.6c0,7.2,1,11.1,3.6,13.6
	c2.5,2.5,6.4,3.4,13.5,3.4s10.9-1,13.5-3.4c2.5-2.5,3.6-6.4,3.6-13.6C150.6,21.3,149.5,17.4,147,14.8z M140.1,36.5
	c-0.8,1.1-2.6,1.6-5.8,1.6c-0.3,0-0.5,0-0.8,0c-3.7,0-5.7-0.4-6.6-1.6c-1-1.2-1.5-3.4-1.5-8.1s0.4-6.9,1.5-8.1
	c0.9-1.2,2.8-1.6,6.6-1.6c3.7,0,5.7,0.4,6.6,1.6c1,1.2,1.5,3.4,1.5,8.1S141.1,35.3,140.1,36.5z"/>
<path class="st0" d="M179.6,0v13.3h-0.3c-2.2-1.8-5.7-1.9-9.9-1.9c-11.7,0-15,3.7-15,16.9c0,6.1,0.6,10.9,3.3,13.8
	c2.4,2.5,6.1,3.6,13.2,3.6c7.3,0,11.4-1,13.9-3.7c2.8-3,3.4-7.6,3.4-13.6V0H179.6z M170.8,38.3c-3.6,0-5.2-0.4-6-1.5c0,0,0,0,0,0
	c0,0-0.1-0.1-0.1-0.1c-1-1.3-1.2-4.2-1.2-8.5c0-3.9,0.3-6.7,1.3-8.1c0.9-1,2.4-1.5,6-1.5c2.4,0,4,0.3,5.1,0.7
	c0.7,0.3,1.3,0.6,1.8,1.1c1.2,1.2,1.6,3.6,1.6,7.9C179,37.4,177.7,38.3,170.8,38.3z"/>
<path class="st0" d="M222.3,14.8c-2.5-2.5-6.4-3.4-13.5-3.4s-10.9,1-13.5,3.4c-2.5,2.5-3.6,6.4-3.6,13.6c0,7.2,1,11.1,3.6,13.6
	c2.5,2.5,6.4,3.4,13.5,3.4s10.9-1,13.5-3.4c2.5-2.5,3.6-6.4,3.6-13.6C225.9,21.4,224.9,17.4,222.3,14.8z M215.4,36.5
	c-0.8,1.1-2.6,1.6-5.8,1.6c-0.3,0-0.5,0-0.8,0c-3.7,0-5.7-0.4-6.6-1.6c-1-1.2-1.5-3.4-1.5-8.1s0.4-6.9,1.5-8.1
	c0.9-1.2,2.8-1.6,6.6-1.6s5.7,0.4,6.6,1.6c1,1.2,1.5,3.4,1.5,8.1S216.5,35.3,215.4,36.5z"/>
</svg>
