<svg xmlns="http://www.w3.org/2000/svg" width="1440" height="900"><path d="M786,458L885,249L667,431Z" fill="#dcdfdd" stroke="#dcdfdd" stroke-width="1.51"/><path d="M726,141L611,402L667,431Z" fill="#e1e3e1" stroke="#e1e3e1" stroke-width="1.51"/><path d="M885,249L726,141L667,431Z" fill="#e1e3e1" stroke="#e1e3e1" stroke-width="1.51"/><path d="M726,141L582,119L611,402Z" fill="#e6e8e5" stroke="#e6e8e5" stroke-width="1.51"/><path d="M885,249L996,192L726,141Z" fill="#e3e4e2" stroke="#e3e4e2" stroke-width="1.51"/><path d="M1206,261L996,192L1205,469Z" fill="#d7d9d8" stroke="#d7d9d8" stroke-width="1.51"/><path d="M726,141L738,11L582,119Z" fill="#eaecea" stroke="#eaecea" stroke-width="1.51"/><path d="M996,192L738,11L726,141Z" fill="#e7e9e7" stroke="#e7e9e7" stroke-width="1.51"/><path d="M786,458L1205,469L885,249Z" fill="#d7dad9" stroke="#d7dad9" stroke-width="1.51"/><path d="M723,767L878,614L786,458Z" fill="#d3d6d6" stroke="#d3d6d6" stroke-width="1.51"/><path d="M723,767L786,458L667,431Z" fill="#d7dada" stroke="#d7dada" stroke-width="1.51"/><path d="M582,119L385,215L611,402Z" fill="#e8e9e6" stroke="#e8e9e6" stroke-width="1.51"/><path d="M529,-64L385,215L582,119Z" fill="#eff0ed" stroke="#eff0ed" stroke-width="1.51"/><path d="M996,192L1021,22L738,11Z" fill="#e6e7e6" stroke="#e6e7e6" stroke-width="1.51"/><path d="M611,402L448,610L667,431Z" fill="#dde0df" stroke="#dde0df" stroke-width="1.51"/><path d="M377,512L448,610L611,402Z" fill="#dfe1df" stroke="#dfe1df" stroke-width="1.51"/><path d="M309,291L377,512L611,402Z" fill="#e4e6e3" stroke="#e4e6e3" stroke-width="1.51"/><path d="M1021,22L1029,-14L738,11Z" fill="#e7e9e9" stroke="#e7e9e9" stroke-width="1.51"/><path d="M1305,-75L1029,-14L1021,22Z" fill="#e3e4e4" stroke="#e3e4e4" stroke-width="1.51"/><path d="M738,11L529,-64L582,119Z" fill="#edefed" stroke="#edefed" stroke-width="1.51"/><path d="M756,-249L529,-64L738,11Z" fill="#edeeed" stroke="#edeeed" stroke-width="1.51"/><path d="M385,215L309,291L611,402Z" fill="#e8e9e6" stroke="#e8e9e6" stroke-width="1.51"/><path d="M104,214L309,291L385,215Z" fill="#f0f0ec" stroke="#f0f0ec" stroke-width="1.51"/><path d="M448,610L723,767L667,431Z" fill="#d7dad9" stroke="#d7dad9" stroke-width="1.51"/><path d="M996,192L1219,232L1021,22Z" fill="#e0e1df" stroke="#e0e1df" stroke-width="1.51"/><path d="M1205,469L996,192L885,249Z" fill="#dadcda" stroke="#dadcda" stroke-width="1.51"/><path d="M878,614L1205,469L786,458Z" fill="#d4d7d7" stroke="#d4d7d7" stroke-width="1.51"/><path d="M723,767L955,729L878,614Z" fill="#cfd2d2" stroke="#cfd2d2" stroke-width="1.51"/><path d="M1206,261L1219,232L996,192Z" fill="#dbdcda" stroke="#dbdcda" stroke-width="1.51"/><path d="M955,729L1205,469L878,614Z" fill="#cfd2d2" stroke="#cfd2d2" stroke-width="1.51"/><path d="M1206,261L1303,421L1219,232Z" fill="#d6d7d6" stroke="#d6d7d6" stroke-width="1.51"/><path d="M1029,-14L828,-195L738,11Z" fill="#e9eaea" stroke="#e9eaea" stroke-width="1.51"/><path d="M1205,469L1303,421L1206,261Z" fill="#d2d4d3" stroke="#d2d4d3" stroke-width="1.51"/><path d="M1345,573L1303,421L1205,469Z" fill="#ced0d0" stroke="#ced0d0" stroke-width="1.51"/><path d="M448,610L523,829L723,767Z" fill="#d4d7d6" stroke="#d4d7d6" stroke-width="1.51"/><path d="M723,767L889,891L955,729Z" fill="#cccece" stroke="#cccece" stroke-width="1.51"/><path d="M329,725L523,829L448,610Z" fill="#d9dad8" stroke="#d9dad8" stroke-width="1.51"/><path d="M828,-195L756,-249L738,11Z" fill="#ebecec" stroke="#ebecec" stroke-width="1.51"/><path d="M685,1006L889,891L723,767Z" fill="#cacdcd" stroke="#cacdcd" stroke-width="1.51"/><path d="M955,729L1211,695L1205,469Z" fill="#cbcece" stroke="#cbcece" stroke-width="1.51"/><path d="M107,578L329,725L377,512Z" fill="#e1e3e1" stroke="#e1e3e1" stroke-width="1.51"/><path d="M377,512L329,725L448,610Z" fill="#dedfdd" stroke="#dedfdd" stroke-width="1.51"/><path d="M1172,964L1211,695L955,729Z" fill="#c6c8c8" stroke="#c6c8c8" stroke-width="1.51"/><path d="M340,939L548,899L523,829Z" fill="#d2d3d2" stroke="#d2d3d2" stroke-width="1.51"/><path d="M523,829L548,899L723,767Z" fill="#d0d2d1" stroke="#d0d2d1" stroke-width="1.51"/><path d="M1211,695L1345,573L1205,469Z" fill="#cbcdcd" stroke="#cbcdcd" stroke-width="1.51"/><path d="M309,291L72,419L377,512Z" fill="#e9eae7" stroke="#e9eae7" stroke-width="1.51"/><path d="M260,-126L104,214L385,215Z" fill="#f6f6f3" stroke="#f6f6f3" stroke-width="1.51"/><path d="M260,-126L385,215L529,-64Z" fill="#f4f5f2" stroke="#f4f5f2" stroke-width="1.51"/><path d="M265,-210L260,-126L529,-64Z" fill="#f5f6f4" stroke="#f5f6f4" stroke-width="1.51"/><path d="M1029,-14L1090,-347L828,-195Z" fill="#e6e7e7" stroke="#e6e7e7" stroke-width="1.51"/><path d="M828,-195L1090,-347L756,-249Z" fill="#e8eaea" stroke="#e8eaea" stroke-width="1.51"/><path d="M1219,232L1305,-75L1021,22Z" fill="#e0e1e0" stroke="#e0e1e0" stroke-width="1.51"/><path d="M1422,211L1305,-75L1219,232Z" fill="#dcdddb" stroke="#dcdddb" stroke-width="1.51"/><path d="M1422,211L1219,232L1303,421Z" fill="#d4d6d4" stroke="#d4d6d4" stroke-width="1.51"/><path d="M1452,363L1422,211L1303,421Z" fill="#d0d2d1" stroke="#d0d2d1" stroke-width="1.51"/><path d="M756,-249L592,-347L529,-64Z" fill="#eeefee" stroke="#eeefee" stroke-width="1.51"/><path d="M1090,-347L592,-347L756,-249Z" fill="#eaebeb" stroke="#eaebeb" stroke-width="1.51"/><path d="M1211,695L1299,732L1345,573Z" fill="#c7c9c9" stroke="#c7c9c9" stroke-width="1.51"/><path d="M1172,964L1299,732L1211,695Z" fill="#c4c6c6" stroke="#c4c6c6" stroke-width="1.51"/><path d="M104,214L72,419L309,291Z" fill="#eff0ed" stroke="#eff0ed" stroke-width="1.51"/><path d="M889,891L1172,964L955,729Z" fill="#c6c8c8" stroke="#c6c8c8" stroke-width="1.51"/><path d="M548,899L685,1006L723,767Z" fill="#cdcfce" stroke="#cdcfce" stroke-width="1.51"/><path d="M1445,552L1452,363L1303,421Z" fill="#cccece" stroke="#cccece" stroke-width="1.51"/><path d="M1445,552L1303,421L1345,573Z" fill="#cbcdcd" stroke="#cbcdcd" stroke-width="1.51"/><path d="M72,419L107,578L377,512Z" fill="#e8e9e7" stroke="#e8e9e7" stroke-width="1.51"/><path d="M329,725L340,939L523,829Z" fill="#d6d7d5" stroke="#d6d7d5" stroke-width="1.51"/><path d="M548,899L544,1080L685,1006Z" fill="#cdd0cf" stroke="#cdd0cf" stroke-width="1.51"/><path d="M1305,-75L1270,-179L1029,-14Z" fill="#e1e2e2" stroke="#e1e2e2" stroke-width="1.51"/><path d="M1456,-293L1270,-179L1305,-75Z" fill="#dedfdf" stroke="#dedfdf" stroke-width="1.51"/><path d="M20,-143L-63,74L104,214Z" fill="#fcfbfa" stroke="#fcfbfa" stroke-width="1.51"/><path d="M592,-347L265,-210L529,-64Z" fill="#f2f3f1" stroke="#f2f3f1" stroke-width="1.51"/><path d="M1299,732L1445,552L1345,573Z" fill="#c7c9c9" stroke="#c7c9c9" stroke-width="1.51"/><path d="M1270,-179L1090,-347L1029,-14Z" fill="#e3e4e4" stroke="#e3e4e4" stroke-width="1.51"/><path d="M185,805L340,939L329,725Z" fill="#d9dbd9" stroke="#d9dbd9" stroke-width="1.51"/><path d="M107,578L185,805L329,725Z" fill="#e0e1df" stroke="#e0e1df" stroke-width="1.51"/><path d="M1422,211L1476,64L1305,-75Z" fill="#dbdcdb" stroke="#dbdcdb" stroke-width="1.51"/><path d="M1712,294L1476,64L1422,211Z" fill="#d6d7d5" stroke="#d6d7d5" stroke-width="1.51"/><path d="M1489,-34L1476,64L1763,-28Z" fill="#dcdddd" stroke="#dcdddd" stroke-width="1.51"/><path d="M1299,732L1533,765L1445,552Z" fill="#c3c5c5" stroke="#c3c5c5" stroke-width="1.51"/><path d="M1078,1201L1172,964L889,891Z" fill="#c3c6c6" stroke="#c3c6c6" stroke-width="1.51"/><path d="M340,939L544,1080L548,899Z" fill="#d1d3d1" stroke="#d1d3d1" stroke-width="1.51"/><path d="M685,1006L771,1120L889,891Z" fill="#cacccc" stroke="#cacccc" stroke-width="1.51"/><path d="M544,1080L771,1120L685,1006Z" fill="#cccece" stroke="#cccece" stroke-width="1.51"/><path d="M1476,64L1489,-34L1305,-75Z" fill="#dcdddd" stroke="#dcdddd" stroke-width="1.51"/><path d="M1270,-179L1456,-293L1090,-347Z" fill="#e0e1e1" stroke="#e0e1e1" stroke-width="1.51"/><path d="M1712,294L1422,211L1452,363Z" fill="#d1d3d1" stroke="#d1d3d1" stroke-width="1.51"/><path d="M771,1120L833,1165L889,891Z" fill="#c9cbcb" stroke="#c9cbcb" stroke-width="1.51"/><path d="M544,1080L833,1165L771,1120Z" fill="#cbcdcd" stroke="#cbcdcd" stroke-width="1.51"/><path d="M104,214L-183,420L72,419Z" fill="#eff1ef" stroke="#eff1ef" stroke-width="1.51"/><path d="M72,419L-64,648L107,578Z" fill="#e8e9e9" stroke="#e8e9e9" stroke-width="1.51"/><path d="M20,-143L104,214L260,-126Z" fill="#fbfbfa" stroke="#fbfbfa" stroke-width="1.51"/><path d="M1172,964L1334,955L1299,732Z" fill="#bfc1c1" stroke="#bfc1c1" stroke-width="1.51"/><path d="M1346,1186L1334,955L1172,964Z" fill="#bfc1c1" stroke="#bfc1c1" stroke-width="1.51"/><path d="M48,-276L20,-143L265,-210Z" fill="#fcfbfa" stroke="#fcfbfa" stroke-width="1.51"/><path d="M265,-210L20,-143L260,-126Z" fill="#fbfaf8" stroke="#fbfaf8" stroke-width="1.51"/><path d="M-64,648L185,805L107,578Z" fill="#e3e4e3" stroke="#e3e4e3" stroke-width="1.51"/><path d="M-15,974L167,969L185,805Z" fill="#dadbda" stroke="#dadbda" stroke-width="1.51"/><path d="M185,805L167,969L340,939Z" fill="#d8d9d7" stroke="#d8d9d7" stroke-width="1.51"/><path d="M340,939L235,1161L544,1080Z" fill="#d4d5d3" stroke="#d4d5d3" stroke-width="1.51"/><path d="M-183,420L-64,648L72,419Z" fill="#eaecec" stroke="#eaecec" stroke-width="1.51"/><path d="M1697,533L1712,294L1452,363Z" fill="#cccfce" stroke="#cccfce" stroke-width="1.51"/><path d="M1334,955L1533,765L1299,732Z" fill="#bfc1c1" stroke="#bfc1c1" stroke-width="1.51"/><path d="M592,-347L48,-276L265,-210Z" fill="#f7f7f5" stroke="#f7f7f5" stroke-width="1.51"/><path d="M20,-143L-151,-125L-63,74Z" fill="#fdfdfd" stroke="#fdfdfd" stroke-width="1.51"/><path d="M1489,-34L1456,-293L1305,-75Z" fill="#dcdddd" stroke="#dcdddd" stroke-width="1.51"/><path d="M1334,955L1460,1016L1533,765Z" fill="#bbbdbd" stroke="#bbbdbd" stroke-width="1.51"/><path d="M833,1165L1078,1201L889,891Z" fill="#c6c9c9" stroke="#c6c9c9" stroke-width="1.51"/><path d="M-291,172L-183,420L-63,74Z" fill="#f5f6f4" stroke="#f5f6f4" stroke-width="1.51"/><path d="M-63,74L-183,420L104,214Z" fill="#f5f5f3" stroke="#f5f5f3" stroke-width="1.51"/><path d="M1489,-34L1768,-173L1456,-293Z" fill="#dcdddd" stroke="#dcdddd" stroke-width="1.51"/><path d="M1697,533L1452,363L1445,552Z" fill="#cacccc" stroke="#cacccc" stroke-width="1.51"/><path d="M-317,824L-61,815L-64,648Z" fill="#e1e2e2" stroke="#e1e2e2" stroke-width="1.51"/><path d="M-64,648L-61,815L185,805Z" fill="#e1e2e2" stroke="#e1e2e2" stroke-width="1.51"/><path d="M1694,715L1697,533L1445,552Z" fill="#c5c8c8" stroke="#c5c8c8" stroke-width="1.51"/><path d="M167,969L235,1161L340,939Z" fill="#d8d9d7" stroke="#d8d9d7" stroke-width="1.51"/><path d="M544,1080L235,1161L833,1165Z" fill="#cfd1d0" stroke="#cfd1d0" stroke-width="1.51"/><path d="M833,1165L-99,1235L1078,1201Z" fill="#cdd0cf" stroke="#cdd0cf" stroke-width="1.51"/><path d="M160,1176L235,1161L167,969Z" fill="#d9dad8" stroke="#d9dad8" stroke-width="1.51"/><path d="M1346,1186L1460,1016L1334,955Z" fill="#bcbebe" stroke="#bcbebe" stroke-width="1.51"/><path d="M1533,765L1694,715L1445,552Z" fill="#c3c5c5" stroke="#c3c5c5" stroke-width="1.51"/><path d="M-83,-327L-151,-125L20,-143Z" fill="#fdfdfd" stroke="#fdfdfd" stroke-width="1.51"/><path d="M-350,943L-15,974L-61,815Z" fill="#dcdddd" stroke="#dcdddd" stroke-width="1.51"/><path d="M-61,815L-15,974L185,805Z" fill="#dddedd" stroke="#dddedd" stroke-width="1.51"/><path d="M1717,860L1694,715L1533,765Z" fill="#bfc1c1" stroke="#bfc1c1" stroke-width="1.51"/><path d="M1885,94L1772,140L1906,420Z" fill="#d5d6d4" stroke="#d5d6d4" stroke-width="1.51"/><path d="M1712,294L1772,140L1476,64Z" fill="#d7d8d6" stroke="#d7d8d6" stroke-width="1.51"/><path d="M1838,-20L1772,140L1885,94Z" fill="#dadbda" stroke="#dadbda" stroke-width="1.51"/><path d="M-15,974L160,1176L167,969Z" fill="#dadbda" stroke="#dadbda" stroke-width="1.51"/><path d="M235,1161L160,1176L833,1165Z" fill="#d3d4d2" stroke="#d3d4d2" stroke-width="1.51"/><path d="M1460,1016L1717,860L1533,765Z" fill="#bcbebe" stroke="#bcbebe" stroke-width="1.51"/><path d="M1078,1201L1346,1186L1172,964Z" fill="#c0c3c3" stroke="#c0c3c3" stroke-width="1.51"/><path d="M-326,-28L-291,172L-63,74Z" fill="#fcfbfa" stroke="#fcfbfa" stroke-width="1.51"/><path d="M-183,420L-298,565L-64,648Z" fill="#e9eaea" stroke="#e9eaea" stroke-width="1.51"/><path d="M48,-276L-83,-327L20,-143Z" fill="#fdfdfd" stroke="#fdfdfd" stroke-width="1.51"/><path d="M-151,-125L-326,-28L-63,74Z" fill="#fdfdfd" stroke="#fdfdfd" stroke-width="1.51"/><path d="M592,-347L-83,-327L48,-276Z" fill="#fbfaf8" stroke="#fbfaf8" stroke-width="1.51"/><path d="M1772,140L1763,-28L1476,64Z" fill="#dadbda" stroke="#dadbda" stroke-width="1.51"/><path d="M-350,429L-298,565L-183,420Z" fill="#ebedec" stroke="#ebedec" stroke-width="1.51"/><path d="M1906,420L1712,294L1697,533Z" fill="#cccece" stroke="#cccece" stroke-width="1.51"/><path d="M1610,1130L1717,860L1460,1016Z" fill="#bbbdbd" stroke="#bbbdbd" stroke-width="1.51"/><path d="M-291,172L-350,429L-183,420Z" fill="#f0f1f0" stroke="#f0f1f0" stroke-width="1.51"/><path d="M1838,-20L1768,-173L1763,-28Z" fill="#dcdddd" stroke="#dcdddd" stroke-width="1.51"/><path d="M1763,-28L1768,-173L1489,-34Z" fill="#dcdddd" stroke="#dcdddd" stroke-width="1.51"/><path d="M1772,140L1838,-20L1763,-28Z" fill="#dbdcdc" stroke="#dbdcdc" stroke-width="1.51"/><path d="M1772,140L1712,294L1906,420Z" fill="#d1d3d1" stroke="#d1d3d1" stroke-width="1.51"/><path d="M-291,172L-326,-28L-350,429Z" fill="#f7f7f5" stroke="#f7f7f5" stroke-width="1.51"/><path d="M-330,-219L-326,-28L-151,-125Z" fill="#fdfdfd" stroke="#fdfdfd" stroke-width="1.51"/><path d="M1906,420L1697,533L1996,583Z" fill="#c9cbcb" stroke="#c9cbcb" stroke-width="1.51"/><path d="M1996,583L1697,533L1979,705Z" fill="#c5c8c8" stroke="#c5c8c8" stroke-width="1.51"/><path d="M1346,1186L1610,1130L1460,1016Z" fill="#bbbdbd" stroke="#bbbdbd" stroke-width="1.51"/><path d="M1979,705L1697,533L1694,715Z" fill="#c3c6c6" stroke="#c3c6c6" stroke-width="1.51"/><path d="M-350,429L-317,824L-298,565Z" fill="#e6e8e8" stroke="#e6e8e8" stroke-width="1.51"/><path d="M-298,565L-317,824L-64,648Z" fill="#e4e5e5" stroke="#e4e5e5" stroke-width="1.51"/><path d="M-15,974L-99,1235L160,1176Z" fill="#dcdddc" stroke="#dcdddc" stroke-width="1.51"/><path d="M1885,94L1855,-171L1838,-20Z" fill="#dcdddd" stroke="#dcdddd" stroke-width="1.51"/><path d="M1838,-20L1855,-171L1768,-173Z" fill="#dcdddd" stroke="#dcdddd" stroke-width="1.51"/><path d="M1768,-173L1855,-171L1456,-293Z" fill="#dcdddd" stroke="#dcdddd" stroke-width="1.51"/><path d="M-326,-28L-330,-219L-350,429Z" fill="#fcfbfa" stroke="#fcfbfa" stroke-width="1.51"/><path d="M-83,-327L-330,-219L-151,-125Z" fill="#fdfdfd" stroke="#fdfdfd" stroke-width="1.51"/><path d="M-341,1169L-99,1235L-15,974Z" fill="#dcdddd" stroke="#dcdddd" stroke-width="1.51"/><path d="M160,1176L-99,1235L833,1165Z" fill="#d6d7d5" stroke="#d6d7d5" stroke-width="1.51"/><path d="M1610,1130L1749,1092L1717,860Z" fill="#bbbdbd" stroke="#bbbdbd" stroke-width="1.51"/><path d="M1979,705L1694,715L1717,860Z" fill="#c0c2c2" stroke="#c0c2c2" stroke-width="1.51"/><path d="M1906,420L1996,583L1885,94Z" fill="#ced0cf" stroke="#ced0cf" stroke-width="1.51"/><path d="M1885,94L1996,583L1855,-171Z" fill="#d7d8d6" stroke="#d7d8d6" stroke-width="1.51"/><path d="M-317,824L-350,943L-61,815Z" fill="#dddede" stroke="#dddede" stroke-width="1.51"/><path d="M-350,429L-350,943L-317,824Z" fill="#e2e3e3" stroke="#e2e3e3" stroke-width="1.51"/><path d="M1947,1015L1979,705L1717,860Z" fill="#bcbebe" stroke="#bcbebe" stroke-width="1.51"/><path d="M1979,705L1995,1199L1996,583Z" fill="#bec0c0" stroke="#bec0c0" stroke-width="1.51"/><path d="M1749,1092L1947,1015L1717,860Z" fill="#bbbdbd" stroke="#bbbdbd" stroke-width="1.51"/><path d="M-350,943L-341,1169L-15,974Z" fill="#dcdddd" stroke="#dcdddd" stroke-width="1.51"/><path d="M1749,1092L1995,1199L1947,1015Z" fill="#bbbdbd" stroke="#bbbdbd" stroke-width="1.51"/><path d="M1947,1015L1995,1199L1979,705Z" fill="#bbbdbd" stroke="#bbbdbd" stroke-width="1.51"/><path d="M1610,1130L1995,1199L1749,1092Z" fill="#bbbdbd" stroke="#bbbdbd" stroke-width="1.51"/><path d="M1346,1186L1995,1199L1610,1130Z" fill="#bbbdbd" stroke="#bbbdbd" stroke-width="1.51"/><path d="M1078,1201L1995,1199L1346,1186Z" fill="#bbbdbd" stroke="#bbbdbd" stroke-width="1.51"/><path d="M-99,1235L1995,1199L1078,1201Z" fill="#c5c7c7" stroke="#c5c7c7" stroke-width="1.51"/></svg>