<svg id="svg" xmlns="http://www.w3.org/2000/svg" xmlns:xlink="http://www.w3.org/1999/xlink" width="400" height="400" viewBox="0, 0, 400,400"><g id="svgg"><path id="path0" d="M287.200 83.251 C 276.176 83.782,266.708 85.994,258.108 90.048 C 256.298 90.902,254.710 91.600,254.580 91.600 C 254.450 91.600,253.559 92.140,252.600 92.800 C 251.641 93.460,250.739 94.000,250.595 94.000 C 249.396 94.000,240.057 101.964,237.000 105.594 C 233.996 109.162,230.352 115.471,228.795 119.800 C 228.637 120.240,228.323 121.050,228.099 121.600 C 227.875 122.150,227.506 123.320,227.279 124.200 C 227.052 125.080,226.679 126.520,226.449 127.400 C 224.493 134.914,224.477 149.715,226.416 157.300 C 227.378 161.061,227.716 162.262,228.046 163.100 C 228.241 163.595,228.555 164.405,228.745 164.900 C 234.087 178.844,244.210 188.285,264.670 198.404 C 268.669 200.382,272.039 202.000,272.159 202.000 C 272.278 202.000,273.327 202.434,274.488 202.965 C 275.650 203.496,278.040 204.501,279.800 205.197 C 281.560 205.894,283.630 206.738,284.400 207.073 C 285.170 207.408,286.205 207.843,286.700 208.041 C 287.195 208.238,288.005 208.562,288.500 208.760 C 288.995 208.958,290.253 209.498,291.296 209.960 C 292.338 210.422,293.285 210.800,293.400 210.800 C 293.778 210.800,297.323 212.429,302.396 214.933 C 316.732 222.012,326.210 231.102,328.478 239.948 C 330.112 246.318,330.155 246.684,330.157 254.200 C 330.158 259.872,329.991 262.510,329.499 264.600 C 328.169 270.240,328.256 269.975,326.269 274.400 C 323.159 281.329,317.002 287.596,310.200 290.758 C 309.100 291.269,307.887 291.848,307.505 292.044 C 307.123 292.240,306.536 292.400,306.200 292.400 C 305.864 292.400,305.277 292.564,304.895 292.765 C 300.680 294.977,282.273 294.997,273.200 292.799 C 272.430 292.612,270.720 292.247,269.400 291.988 C 268.080 291.729,266.640 291.376,266.200 291.204 C 265.760 291.032,264.590 290.670,263.600 290.399 C 261.521 289.831,259.782 289.272,258.500 288.760 C 258.005 288.562,257.195 288.242,256.700 288.049 C 250.891 285.782,242.358 280.991,237.421 277.224 C 235.673 275.889,234.118 274.933,233.966 275.099 C 233.702 275.386,229.200 285.891,229.200 286.219 C 229.200 286.305,228.731 287.417,228.157 288.688 C 227.128 290.967,226.480 292.450,225.309 295.200 C 224.981 295.970,224.462 297.123,224.156 297.761 C 223.850 298.400,223.602 299.120,223.605 299.361 C 223.614 300.158,234.550 306.130,239.400 307.987 C 241.782 308.899,244.396 309.990,245.295 310.447 C 245.677 310.641,246.264 310.800,246.600 310.800 C 246.936 310.800,247.523 310.962,247.905 311.159 C 249.104 311.778,255.230 313.475,259.400 314.343 C 270.207 316.593,277.826 317.329,290.400 317.340 C 302.157 317.349,306.490 316.921,314.400 314.970 C 315.830 314.617,317.630 314.187,318.400 314.014 C 320.137 313.625,320.754 313.408,324.300 311.946 C 324.905 311.697,325.760 311.359,326.200 311.195 C 338.177 306.741,351.419 294.199,355.756 283.200 C 356.146 282.210,356.710 280.860,357.009 280.200 C 359.553 274.584,360.838 268.396,361.746 257.400 C 362.562 247.521,360.899 232.314,358.730 229.820 C 358.549 229.611,358.400 229.188,358.400 228.881 C 358.400 225.009,347.557 210.336,341.126 205.506 C 340.325 204.904,339.429 204.178,339.135 203.893 C 335.642 200.500,319.735 191.824,307.600 186.694 C 306.830 186.369,305.120 185.643,303.800 185.081 C 302.480 184.519,299.510 183.313,297.200 182.400 C 294.890 181.486,292.237 180.393,291.304 179.970 C 290.372 179.546,289.522 179.200,289.416 179.200 C 289.118 179.200,279.079 174.645,277.845 173.950 C 277.430 173.716,276.477 173.180,275.728 172.760 C 269.042 169.004,262.514 163.046,259.967 158.374 C 259.435 157.398,258.865 156.540,258.700 156.467 C 258.535 156.393,258.400 156.076,258.400 155.761 C 258.400 155.447,258.241 154.877,258.047 154.495 C 254.927 148.362,255.327 134.985,258.874 126.800 C 259.112 126.250,259.503 125.350,259.743 124.800 C 262.723 117.960,272.039 110.175,279.600 108.206 C 280.150 108.063,281.230 107.768,282.000 107.551 C 289.036 105.565,302.335 105.428,311.400 107.249 C 316.946 108.364,318.276 108.701,320.600 109.585 C 321.040 109.752,322.120 110.109,323.000 110.378 C 323.880 110.646,325.230 111.143,326.000 111.481 C 326.770 111.818,328.030 112.360,328.800 112.683 C 332.118 114.078,336.588 116.613,339.735 118.885 C 342.288 120.729,343.600 121.087,343.600 119.939 C 343.600 119.672,345.766 115.069,348.413 109.709 C 351.060 104.349,353.128 99.807,353.009 99.615 C 352.112 98.163,344.303 93.516,338.200 90.802 C 337.100 90.313,335.887 89.752,335.505 89.556 C 335.123 89.360,334.484 89.200,334.085 89.200 C 333.686 89.200,333.189 89.051,332.980 88.870 C 332.771 88.688,331.790 88.307,330.800 88.023 C 329.810 87.739,328.550 87.365,328.000 87.192 C 327.064 86.897,325.627 86.548,321.500 85.616 C 320.565 85.405,318.450 85.027,316.800 84.776 C 315.150 84.525,312.810 84.154,311.600 83.952 C 310.390 83.750,306.610 83.492,303.200 83.380 C 299.790 83.268,296.190 83.126,295.200 83.064 C 294.210 83.003,290.610 83.086,287.200 83.251 M38.400 200.405 L 38.400 314.064 71.300 313.841 C 105.315 313.610,111.765 313.348,121.600 311.799 C 125.371 311.205,131.538 309.996,132.800 309.604 C 133.350 309.433,134.610 309.064,135.600 308.785 C 145.093 306.105,158.905 299.772,160.800 297.230 C 160.910 297.082,161.630 296.537,162.400 296.018 C 170.761 290.381,179.216 276.764,181.535 265.200 C 181.778 263.990,182.161 262.100,182.386 261.000 C 184.394 251.212,183.259 236.115,179.906 228.000 C 179.679 227.450,179.360 226.640,179.197 226.200 C 175.723 216.805,165.743 205.423,155.800 199.516 C 151.007 196.669,143.069 193.200,141.346 193.200 C 140.852 193.200,140.336 193.020,140.200 192.800 C 140.064 192.580,139.434 192.400,138.800 192.400 C 138.166 192.400,137.550 192.243,137.432 192.052 C 137.314 191.860,136.358 191.612,135.308 191.501 C 134.259 191.390,132.860 191.077,132.200 190.806 C 130.806 190.233,130.588 190.361,136.000 188.589 C 164.390 179.298,176.619 157.370,169.902 127.800 C 168.453 121.422,164.323 112.842,161.022 109.354 C 160.790 109.109,159.769 108.029,158.754 106.954 C 152.381 100.207,144.203 95.374,134.800 92.800 C 133.810 92.529,132.550 92.163,132.000 91.987 C 131.450 91.811,130.370 91.544,129.600 91.393 C 128.830 91.241,127.480 90.944,126.600 90.731 C 123.812 90.057,117.127 88.988,111.800 88.364 C 103.121 87.348,96.475 87.131,68.300 86.944 L 38.400 86.746 38.400 200.405 M97.000 109.185 C 106.679 109.749,112.101 110.529,118.800 112.321 C 128.981 115.044,136.724 121.625,139.600 130.000 C 139.864 130.770,140.224 131.760,140.398 132.200 C 140.704 132.970,141.043 134.615,141.969 139.824 C 144.333 153.124,139.401 166.000,129.400 172.634 C 126.784 174.369,122.567 176.325,120.000 176.994 C 119.450 177.137,118.370 177.434,117.600 177.654 C 109.245 180.038,98.731 180.903,80.200 180.728 L 66.600 180.600 66.497 145.000 C 66.440 125.420,66.488 109.151,66.604 108.847 C 66.836 108.239,84.070 108.431,97.000 109.185 M112.800 205.570 C 114.230 205.826,116.570 206.226,118.000 206.457 C 120.522 206.866,122.065 207.205,125.400 208.086 C 128.214 208.829,129.790 209.355,130.180 209.682 C 130.389 209.857,130.806 210.000,131.107 210.000 C 133.449 210.000,141.667 215.112,145.016 218.652 C 155.181 229.400,157.106 255.204,148.943 271.312 C 145.258 278.584,136.757 284.902,127.000 287.621 C 126.340 287.804,125.080 288.159,124.200 288.408 C 117.659 290.258,111.873 291.051,99.600 291.777 C 89.759 292.360,68.216 292.611,67.033 292.157 C 66.461 291.938,66.400 287.703,66.400 248.313 L 66.400 204.713 88.300 204.908 C 102.363 205.033,111.130 205.270,112.800 205.570 " stroke="none" fill="#050505" fill-rule="evenodd"></path><path id="path1" d="M30.300 0.290 C 29.475 0.377,28.800 0.617,28.800 0.824 C 28.800 1.031,28.260 1.200,27.600 1.200 C 26.940 1.200,26.400 1.380,26.400 1.600 C 26.400 1.820,25.860 2.000,25.200 2.000 C 24.540 2.000,24.000 2.180,24.000 2.400 C 24.000 2.620,23.640 2.800,23.200 2.800 C 22.760 2.800,22.400 2.980,22.400 3.200 C 22.400 3.420,22.040 3.600,21.600 3.600 C 21.160 3.600,20.800 3.780,20.800 4.000 C 20.800 4.220,20.440 4.400,20.000 4.400 C 19.560 4.400,19.200 4.580,19.200 4.800 C 19.200 5.020,18.957 5.200,18.659 5.200 C 18.362 5.200,17.554 5.740,16.863 6.400 C 16.172 7.060,15.411 7.600,15.171 7.600 C 14.602 7.600,7.600 14.602,7.600 15.171 C 7.600 15.411,7.060 16.172,6.400 16.863 C 5.740 17.554,5.200 18.362,5.200 18.659 C 5.200 18.957,5.020 19.200,4.800 19.200 C 4.580 19.200,4.400 19.560,4.400 20.000 C 4.400 20.440,4.220 20.800,4.000 20.800 C 3.780 20.800,3.600 21.160,3.600 21.600 C 3.600 22.040,3.420 22.400,3.200 22.400 C 2.980 22.400,2.800 22.760,2.800 23.200 C 2.800 23.640,2.620 24.000,2.400 24.000 C 2.180 24.000,2.000 24.540,2.000 25.200 C 2.000 25.860,1.820 26.400,1.600 26.400 C 1.380 26.400,1.200 26.925,1.200 27.567 C 1.200 28.208,0.975 28.808,0.700 28.900 C -0.036 29.145,-0.036 370.524,0.700 371.260 C 0.975 371.535,1.200 372.163,1.200 372.656 C 1.200 373.149,1.380 373.664,1.600 373.800 C 1.820 373.936,2.000 374.487,2.000 375.024 C 2.000 375.561,2.180 376.000,2.400 376.000 C 2.620 376.000,2.800 376.360,2.800 376.800 C 2.800 377.240,2.980 377.600,3.200 377.600 C 3.420 377.600,3.600 377.960,3.600 378.400 C 3.600 378.840,3.780 379.200,4.000 379.200 C 4.220 379.200,4.400 379.560,4.400 380.000 C 4.400 380.440,4.580 380.800,4.800 380.800 C 5.020 380.800,5.200 381.043,5.200 381.341 C 5.200 381.638,5.740 382.446,6.400 383.137 C 7.060 383.828,7.600 384.583,7.600 384.815 C 7.600 385.421,14.501 392.395,15.104 392.398 C 15.381 392.399,16.172 392.940,16.863 393.600 C 17.554 394.260,18.362 394.800,18.659 394.800 C 18.957 394.800,19.200 394.980,19.200 395.200 C 19.200 395.420,19.560 395.600,20.000 395.600 C 20.440 395.600,20.800 395.780,20.800 396.000 C 20.800 396.220,21.160 396.400,21.600 396.400 C 22.040 396.400,22.400 396.580,22.400 396.800 C 22.400 397.020,22.760 397.200,23.200 397.200 C 23.640 397.200,24.000 397.380,24.000 397.600 C 24.000 397.820,24.540 398.000,25.200 398.000 C 25.860 398.000,26.400 398.180,26.400 398.400 C 26.400 398.620,26.925 398.800,27.567 398.800 C 28.208 398.800,28.808 399.025,28.900 399.300 C 29.145 400.036,370.524 400.036,371.260 399.300 C 371.535 399.025,372.163 398.800,372.656 398.800 C 373.149 398.800,373.664 398.620,373.800 398.400 C 373.936 398.180,374.487 398.000,375.024 398.000 C 375.561 398.000,376.000 397.820,376.000 397.600 C 376.000 397.380,376.360 397.200,376.800 397.200 C 377.240 397.200,377.600 397.020,377.600 396.800 C 377.600 396.580,377.960 396.400,378.400 396.400 C 378.840 396.400,379.200 396.220,379.200 396.000 C 379.200 395.780,379.560 395.600,380.000 395.600 C 380.440 395.600,380.800 395.420,380.800 395.200 C 380.800 394.980,381.043 394.800,381.341 394.800 C 381.638 394.800,382.446 394.260,383.137 393.600 C 383.828 392.940,384.579 392.400,384.807 392.400 C 385.738 392.400,392.400 385.738,392.400 384.807 C 392.400 384.579,392.940 383.828,393.600 383.137 C 394.260 382.446,394.800 381.638,394.800 381.341 C 394.800 381.043,394.980 380.800,395.200 380.800 C 395.420 380.800,395.600 380.440,395.600 380.000 C 395.600 379.560,395.780 379.200,396.000 379.200 C 396.220 379.200,396.400 378.840,396.400 378.400 C 396.400 377.960,396.580 377.600,396.800 377.600 C 397.020 377.600,397.200 377.240,397.200 376.800 C 397.200 376.360,397.380 376.000,397.600 376.000 C 397.820 376.000,398.000 375.561,398.000 375.024 C 398.000 374.487,398.180 373.936,398.400 373.800 C 398.620 373.664,398.800 373.149,398.800 372.656 C 398.800 372.163,399.025 371.535,399.300 371.260 C 399.698 370.862,399.800 336.057,399.800 199.913 C 399.800 63.592,399.699 29.033,399.300 28.900 C 399.025 28.808,398.800 28.208,398.800 27.567 C 398.800 26.925,398.620 26.400,398.400 26.400 C 398.180 26.400,398.000 25.860,398.000 25.200 C 398.000 24.540,397.820 24.000,397.600 24.000 C 397.380 24.000,397.200 23.640,397.200 23.200 C 397.200 22.760,397.020 22.400,396.800 22.400 C 396.580 22.400,396.400 22.040,396.400 21.600 C 396.400 21.160,396.220 20.800,396.000 20.800 C 395.780 20.800,395.600 20.440,395.600 20.000 C 395.600 19.560,395.420 19.200,395.200 19.200 C 394.980 19.200,394.800 18.957,394.800 18.659 C 394.800 18.362,394.260 17.554,393.600 16.863 C 392.940 16.172,392.399 15.381,392.398 15.104 C 392.395 14.501,385.421 7.600,384.815 7.600 C 384.583 7.600,383.828 7.060,383.137 6.400 C 382.446 5.740,381.638 5.200,381.341 5.200 C 381.043 5.200,380.800 5.020,380.800 4.800 C 380.800 4.580,380.440 4.400,380.000 4.400 C 379.560 4.400,379.200 4.220,379.200 4.000 C 379.200 3.780,378.840 3.600,378.400 3.600 C 377.960 3.600,377.600 3.420,377.600 3.200 C 377.600 2.980,377.240 2.800,376.800 2.800 C 376.360 2.800,376.000 2.620,376.000 2.400 C 376.000 2.180,375.561 2.000,375.024 2.000 C 374.487 2.000,373.936 1.820,373.800 1.600 C 373.664 1.380,373.149 1.200,372.656 1.200 C 372.163 1.200,371.535 0.975,371.260 0.700 C 370.787 0.227,34.721 -0.177,30.300 0.290 M312.400 83.403 C 316.961 84.029,323.892 85.330,326.200 85.993 C 333.607 88.121,336.046 89.035,342.000 91.919 C 345.821 93.769,354.000 98.953,354.000 99.524 C 354.000 99.693,352.903 102.074,351.563 104.815 C 342.236 123.889,343.451 122.260,340.258 119.973 C 337.880 118.270,332.265 114.964,330.000 113.932 C 328.614 113.301,326.145 112.228,324.600 111.586 C 324.160 111.403,323.080 111.039,322.200 110.777 C 321.320 110.516,320.287 110.144,319.905 109.951 C 319.523 109.758,318.859 109.600,318.429 109.600 C 317.999 109.600,317.551 109.444,317.433 109.253 C 317.315 109.062,316.449 108.795,315.509 108.659 C 314.569 108.524,312.900 108.225,311.800 107.995 C 303.825 106.327,290.133 106.140,284.300 107.620 C 279.523 108.831,279.397 108.870,276.500 110.047 C 272.196 111.794,267.925 114.928,264.500 118.850 C 263.345 120.172,262.400 121.409,262.400 121.599 C 262.400 121.788,262.173 122.181,261.895 122.471 C 261.268 123.128,258.963 127.848,258.608 129.200 C 258.464 129.750,258.162 130.830,257.937 131.600 C 256.350 137.029,256.175 148.422,257.625 151.900 C 257.831 152.395,258.201 153.295,258.447 153.900 C 258.692 154.505,259.084 155.360,259.317 155.800 C 259.549 156.240,260.113 157.317,260.570 158.193 C 263.799 164.391,275.232 172.957,285.400 176.797 C 285.840 176.963,287.010 177.463,288.000 177.909 C 292.554 179.958,293.619 180.400,294.001 180.400 C 294.226 180.400,294.723 180.565,295.105 180.767 C 296.204 181.348,299.568 182.800,299.816 182.800 C 300.180 182.800,308.814 186.487,313.600 188.686 C 332.640 197.436,341.562 203.556,350.126 213.741 C 354.181 218.563,358.800 226.237,358.800 228.151 C 358.800 228.482,358.980 228.864,359.200 229.000 C 359.420 229.136,359.600 229.676,359.600 230.200 C 359.600 230.724,359.760 231.252,359.956 231.373 C 360.151 231.494,360.408 232.179,360.527 232.896 C 360.645 233.613,360.940 235.010,361.182 236.000 C 363.094 243.832,363.107 259.270,361.208 268.100 C 360.984 269.145,360.645 270.765,360.456 271.700 C 360.082 273.545,358.278 279.069,357.419 281.000 C 357.125 281.660,356.488 283.100,356.004 284.200 C 352.396 292.393,344.966 300.732,336.000 306.652 C 331.931 309.338,324.872 312.737,320.800 313.971 C 307.622 317.965,291.974 319.147,275.200 317.416 C 264.111 316.271,250.766 313.492,247.105 311.566 C 246.723 311.365,246.136 311.200,245.800 311.200 C 245.464 311.200,244.877 311.041,244.495 310.847 C 243.563 310.373,240.649 309.160,238.600 308.394 C 236.350 307.552,228.620 303.580,225.888 301.862 C 222.455 299.703,222.537 299.953,224.092 296.400 C 224.525 295.410,225.019 294.240,225.189 293.800 C 225.359 293.360,225.863 292.190,226.309 291.200 C 228.146 287.116,228.800 285.599,228.800 285.416 C 228.800 285.310,229.230 284.273,229.756 283.112 C 230.282 281.950,231.274 279.650,231.961 278.000 C 233.777 273.634,233.684 273.724,235.259 274.824 C 235.996 275.340,236.690 275.869,236.800 276.000 C 236.910 276.131,237.630 276.671,238.400 277.200 C 239.170 277.729,239.890 278.266,240.000 278.393 C 241.268 279.861,252.108 285.441,259.400 288.378 C 259.840 288.555,260.703 288.903,261.319 289.150 C 261.934 289.398,262.869 289.600,263.395 289.600 C 263.922 289.600,264.451 289.759,264.571 289.954 C 264.692 290.149,265.287 290.410,265.895 290.536 C 266.503 290.661,267.900 290.961,269.000 291.200 C 277.722 293.103,280.083 293.337,290.400 293.321 C 300.037 293.306,303.428 293.070,304.180 292.359 C 304.389 292.162,304.886 292.000,305.285 292.000 C 305.684 292.000,306.323 291.842,306.705 291.649 C 307.087 291.455,308.533 290.788,309.917 290.167 C 314.820 287.965,323.200 280.591,323.200 278.478 C 323.200 278.252,323.336 278.007,323.502 277.933 C 323.790 277.806,326.058 273.306,326.896 271.200 C 327.114 270.650,327.452 269.887,327.647 269.505 C 327.841 269.123,328.000 268.369,328.000 267.829 C 328.000 267.289,328.157 266.750,328.350 266.631 C 328.977 266.243,329.322 261.945,329.349 254.200 C 329.382 244.443,328.989 242.195,326.240 236.400 C 323.928 231.526,320.913 227.810,316.830 224.800 C 316.084 224.250,315.277 223.609,315.037 223.376 C 313.621 222.002,304.585 216.494,301.199 214.942 C 296.447 212.763,293.396 211.422,291.800 210.813 C 291.360 210.645,290.505 210.303,289.900 210.054 C 289.295 209.804,288.350 209.420,287.800 209.200 C 287.250 208.980,286.395 208.638,285.900 208.440 C 285.405 208.242,284.147 207.702,283.104 207.240 C 282.062 206.778,281.115 206.400,281.000 206.400 C 280.885 206.400,279.938 206.019,278.896 205.553 C 276.506 204.487,275.251 203.947,272.000 202.593 C 268.140 200.984,257.238 195.616,255.400 194.418 C 254.520 193.845,253.305 193.126,252.700 192.820 C 252.095 192.515,251.600 192.115,251.600 191.932 C 251.600 191.750,251.330 191.600,251.000 191.600 C 250.670 191.600,250.400 191.459,250.400 191.286 C 250.400 191.114,249.873 190.661,249.229 190.281 C 240.721 185.255,232.185 175.184,228.311 165.600 C 228.089 165.050,227.748 164.287,227.553 163.905 C 227.359 163.523,227.200 162.859,227.200 162.429 C 227.200 161.999,227.040 161.548,226.844 161.427 C 226.649 161.306,226.388 160.621,226.266 159.904 C 226.144 159.187,225.846 157.700,225.602 156.600 C 223.706 148.017,223.712 137.147,225.618 128.200 C 225.853 127.100,226.144 125.613,226.266 124.896 C 226.388 124.179,226.649 123.494,226.844 123.373 C 227.040 123.252,227.200 122.801,227.200 122.371 C 227.200 121.941,227.359 121.277,227.553 120.895 C 227.748 120.513,228.086 119.750,228.304 119.200 C 231.479 111.218,238.255 102.081,244.200 97.766 C 245.080 97.127,245.890 96.502,246.000 96.376 C 246.483 95.823,249.985 93.600,250.372 93.600 C 250.607 93.600,250.801 93.465,250.803 93.300 C 250.805 93.135,251.210 92.799,251.703 92.554 C 252.196 92.309,254.006 91.372,255.724 90.471 C 269.213 83.396,291.816 80.578,312.400 83.403 M102.200 86.772 C 112.958 87.785,116.011 88.130,119.200 88.693 C 125.778 89.855,127.882 90.281,131.600 91.203 C 132.590 91.448,133.897 91.749,134.505 91.871 C 135.113 91.993,135.708 92.251,135.829 92.446 C 135.949 92.641,136.476 92.800,137.000 92.800 C 137.524 92.800,138.064 92.980,138.200 93.200 C 138.336 93.420,138.709 93.600,139.028 93.600 C 140.124 93.600,148.245 97.504,150.908 99.311 C 152.909 100.670,158.799 105.610,158.804 105.935 C 158.807 106.081,159.489 106.920,160.321 107.800 C 161.152 108.680,162.269 110.030,162.803 110.800 C 163.337 111.570,163.987 112.420,164.247 112.689 C 166.349 114.859,171.200 127.491,171.200 130.793 C 171.200 131.428,171.388 132.443,171.619 133.049 C 172.186 134.541,172.177 149.119,171.607 151.731 C 169.747 160.257,168.288 164.120,165.160 168.795 C 159.810 176.794,150.499 183.835,139.700 188.049 C 137.592 188.871,136.924 189.113,135.572 189.545 C 134.786 189.795,133.796 190.008,133.372 190.018 C 132.337 190.041,135.559 191.186,136.681 191.194 C 137.166 191.197,137.976 191.361,138.481 191.558 C 138.987 191.755,140.210 192.133,141.200 192.397 C 142.190 192.662,143.313 193.040,143.695 193.239 C 144.077 193.438,144.664 193.600,145.000 193.600 C 145.336 193.600,145.923 193.762,146.305 193.959 C 146.687 194.157,148.620 195.098,150.600 196.051 C 161.898 201.488,172.063 210.863,177.190 220.573 C 177.778 221.688,178.450 222.960,178.683 223.400 C 178.916 223.840,179.284 224.650,179.500 225.200 C 179.716 225.750,180.079 226.650,180.306 227.200 C 183.683 235.373,184.811 246.629,183.413 258.200 C 182.877 262.637,181.286 269.916,180.440 271.800 C 180.242 272.240,179.864 273.230,179.598 274.000 C 178.713 276.567,176.651 280.568,174.650 283.600 C 171.538 288.316,169.178 290.961,163.914 295.637 C 161.709 297.596,156.397 301.014,152.600 302.918 C 147.056 305.697,145.708 306.264,141.400 307.632 C 139.200 308.331,137.040 309.046,136.600 309.221 C 136.160 309.396,135.350 309.631,134.800 309.742 C 134.250 309.853,133.080 310.152,132.200 310.406 C 128.339 311.518,120.594 312.730,111.200 313.689 C 107.564 314.061,96.869 314.200,72.000 314.200 L 37.800 314.200 37.698 200.600 C 37.600 92.665,37.630 86.973,38.298 86.456 C 39.148 85.798,94.771 86.073,102.200 86.772 M66.800 144.600 L 66.800 180.000 81.100 179.977 C 98.506 179.948,107.111 179.421,113.400 178.000 C 114.500 177.752,116.076 177.451,116.903 177.332 C 117.729 177.213,118.505 176.955,118.626 176.758 C 118.748 176.561,119.276 176.400,119.800 176.400 C 120.324 176.400,120.864 176.220,121.000 176.000 C 121.136 175.780,121.582 175.600,121.990 175.600 C 122.786 175.600,127.784 173.086,128.831 172.159 C 129.179 171.851,129.589 171.600,129.742 171.600 C 130.098 171.600,132.640 169.363,134.062 167.800 C 136.458 165.163,137.053 164.318,138.345 161.713 C 139.085 160.221,139.850 158.687,140.045 158.305 C 140.240 157.923,140.400 157.306,140.400 156.934 C 140.400 156.561,140.567 155.704,140.771 155.028 C 142.341 149.821,141.668 137.967,139.428 131.400 C 136.415 122.566,131.768 118.022,121.600 113.969 C 119.517 113.139,118.705 112.912,114.400 111.957 C 106.824 110.276,92.490 109.326,73.300 109.232 L 66.800 109.200 66.800 144.600 M66.800 248.407 L 66.800 291.247 86.900 291.055 C 105.820 290.874,108.731 290.728,115.200 289.640 C 121.547 288.573,125.492 287.558,130.256 285.764 C 137.200 283.151,142.971 279.128,145.986 274.800 C 146.523 274.030,147.060 273.310,147.181 273.200 C 151.684 269.092,154.663 247.101,152.274 235.600 C 149.591 222.683,142.695 214.478,131.400 210.763 C 130.520 210.473,129.629 210.093,129.420 209.918 C 129.211 209.743,128.637 209.600,128.144 209.600 C 127.651 209.600,127.148 209.440,127.027 209.244 C 126.906 209.049,126.221 208.788,125.504 208.666 C 124.787 208.544,123.300 208.246,122.200 208.004 C 113.365 206.058,111.584 205.938,88.500 205.747 L 66.800 205.568 66.800 248.407 " stroke="none" fill="#fbfbfb" fill-rule="evenodd"></path><path id="path2" d="M290.522 82.699 C 292.899 82.770,296.679 82.769,298.922 82.698 C 301.165 82.627,299.220 82.569,294.600 82.569 C 289.980 82.570,288.145 82.628,290.522 82.699 M281.700 83.076 C 282.085 83.176,282.715 83.176,283.100 83.076 C 283.485 82.975,283.170 82.893,282.400 82.893 C 281.630 82.893,281.315 82.975,281.700 83.076 M306.705 83.083 C 307.202 83.179,307.922 83.175,308.305 83.075 C 308.687 82.975,308.280 82.896,307.400 82.901 C 306.520 82.905,306.207 82.987,306.705 83.083 M278.900 83.476 C 279.285 83.576,279.915 83.576,280.300 83.476 C 280.685 83.375,280.370 83.293,279.600 83.293 C 278.830 83.293,278.515 83.375,278.900 83.476 M309.900 83.482 C 310.395 83.578,311.205 83.578,311.700 83.482 C 312.195 83.387,311.790 83.309,310.800 83.309 C 309.810 83.309,309.405 83.387,309.900 83.482 M314.400 83.980 C 315.399 84.320,317.882 84.532,317.567 84.251 C 317.475 84.169,316.500 83.999,315.400 83.872 C 314.051 83.716,313.726 83.751,314.400 83.980 M271.000 84.800 C 270.496 85.017,270.422 85.144,270.800 85.144 C 271.130 85.144,271.760 84.989,272.200 84.800 C 272.704 84.583,272.778 84.456,272.400 84.456 C 272.070 84.456,271.440 84.611,271.000 84.800 M319.200 84.800 C 319.750 84.976,320.560 85.120,321.000 85.120 C 321.633 85.120,321.592 85.054,320.800 84.800 C 320.250 84.624,319.440 84.480,319.000 84.480 C 318.367 84.480,318.408 84.546,319.200 84.800 M268.000 85.600 C 267.176 85.864,267.141 85.926,267.800 85.954 C 268.240 85.973,268.870 85.813,269.200 85.600 C 269.901 85.147,269.414 85.147,268.000 85.600 M323.000 85.550 C 323.440 85.735,324.520 85.999,325.400 86.137 C 326.415 86.295,326.708 86.264,326.200 86.050 C 325.760 85.865,324.680 85.601,323.800 85.463 C 322.785 85.305,322.492 85.336,323.000 85.550 M49.928 86.300 C 56.159 86.362,66.239 86.362,72.328 86.300 C 78.418 86.238,73.320 86.187,61.000 86.187 C 48.680 86.187,43.698 86.238,49.928 86.300 M37.785 86.900 C 37.681 87.175,37.641 138.430,37.698 200.800 L 37.800 314.200 71.700 314.203 L 105.600 314.207 71.799 314.101 L 37.997 313.995 38.099 200.198 C 38.154 137.609,38.149 86.400,38.087 86.400 C 38.026 86.400,37.889 86.625,37.785 86.900 M89.300 86.698 C 91.225 86.771,94.375 86.771,96.300 86.698 C 98.225 86.625,96.650 86.565,92.800 86.565 C 88.950 86.565,87.375 86.625,89.300 86.698 M101.905 87.083 C 102.402 87.179,103.122 87.175,103.505 87.075 C 103.887 86.975,103.480 86.896,102.600 86.901 C 101.720 86.905,101.407 86.987,101.905 87.083 M105.900 87.489 C 106.615 87.578,107.785 87.578,108.500 87.489 C 109.215 87.401,108.630 87.328,107.200 87.328 C 105.770 87.328,105.185 87.401,105.900 87.489 M260.133 88.322 C 259.216 88.695,258.316 89.150,258.133 89.333 C 257.950 89.517,258.790 89.277,260.000 88.800 C 261.210 88.323,262.275 87.858,262.367 87.767 C 262.707 87.427,261.751 87.665,260.133 88.322 M114.105 88.287 C 114.714 88.379,115.614 88.377,116.105 88.282 C 116.597 88.187,116.100 88.111,115.000 88.114 C 113.900 88.117,113.497 88.195,114.105 88.287 M119.233 88.944 C 119.325 89.024,120.210 89.196,121.200 89.327 C 122.402 89.486,122.734 89.447,122.200 89.210 C 121.436 88.872,118.886 88.643,119.233 88.944 M124.033 89.743 C 124.125 89.821,124.830 90.001,125.600 90.142 C 126.585 90.323,126.822 90.282,126.400 90.006 C 125.858 89.650,123.637 89.403,124.033 89.743 M128.400 90.800 C 129.942 91.294,130.764 91.294,130.000 90.800 C 129.670 90.587,128.950 90.427,128.400 90.446 L 127.400 90.480 128.400 90.800 M131.233 91.344 C 131.325 91.423,131.940 91.608,132.600 91.756 C 133.476 91.952,133.638 91.915,133.200 91.618 C 132.660 91.253,130.832 90.998,131.233 91.344 M247.211 95.420 C 246.447 95.959,246.032 96.400,246.289 96.400 C 246.546 96.400,247.260 95.956,247.878 95.413 C 249.308 94.154,248.999 94.158,247.211 95.420 M148.000 97.711 C 148.510 98.269,153.677 101.647,153.443 101.270 C 153.298 101.035,152.376 100.300,151.393 99.637 C 149.586 98.418,147.633 97.309,148.000 97.711 M243.054 98.633 C 242.423 99.187,241.987 99.720,242.083 99.816 C 242.179 99.913,242.774 99.454,243.404 98.796 C 244.796 97.343,244.616 97.259,243.054 98.633 M352.558 98.528 C 353.324 99.186,353.630 99.745,353.462 100.182 C 353.314 100.569,353.373 100.740,353.605 100.597 C 354.357 100.132,353.995 99.251,352.700 98.394 L 351.400 97.534 352.558 98.528 M239.385 102.100 L 237.400 104.200 239.500 102.215 C 241.451 100.371,241.783 100.000,241.485 100.000 C 241.422 100.000,240.477 100.945,239.385 102.100 M351.472 104.219 C 350.532 106.189,350.664 106.524,351.647 104.662 C 352.093 103.816,352.387 103.054,352.301 102.967 C 352.214 102.881,351.841 103.444,351.472 104.219 M158.350 105.941 C 159.244 107.008,160.292 108.133,160.680 108.441 C 161.068 108.748,160.416 107.875,159.232 106.500 C 158.049 105.125,157.000 104.000,156.903 104.000 C 156.805 104.000,157.457 104.873,158.350 105.941 M236.175 105.700 L 235.000 107.000 236.300 105.825 C 237.015 105.179,237.600 104.594,237.600 104.525 C 237.600 104.216,237.270 104.488,236.175 105.700 M287.200 106.800 L 286.200 107.120 287.200 107.132 C 287.750 107.138,288.560 106.989,289.000 106.800 L 289.800 106.456 289.000 106.468 C 288.560 106.474,287.750 106.624,287.200 106.800 M302.600 106.823 C 303.480 107.005,304.740 107.144,305.400 107.131 C 306.444 107.111,306.392 107.065,305.000 106.777 C 304.120 106.595,302.860 106.456,302.200 106.469 C 301.156 106.489,301.208 106.535,302.600 106.823 M283.200 107.600 C 282.667 107.945,282.667 107.988,283.200 107.988 C 283.530 107.988,284.070 107.813,284.400 107.600 C 284.933 107.255,284.933 107.212,284.400 107.212 C 284.070 107.212,283.530 107.387,283.200 107.600 M309.800 107.600 C 310.240 107.789,310.960 107.938,311.400 107.932 C 312.043 107.923,312.004 107.857,311.200 107.600 C 309.832 107.162,308.781 107.162,309.800 107.600 M313.800 108.400 C 314.240 108.589,314.960 108.738,315.400 108.732 C 316.043 108.723,316.004 108.657,315.200 108.400 C 313.832 107.962,312.781 107.962,313.800 108.400 M66.833 108.947 C 66.925 109.027,73.030 109.182,80.400 109.291 C 88.373 109.408,91.532 109.369,88.200 109.193 C 82.264 108.880,66.552 108.699,66.833 108.947 M66.597 144.800 L 66.600 180.200 81.033 180.305 C 88.972 180.363,96.982 180.273,98.833 180.105 C 100.685 179.937,94.236 179.865,84.502 179.944 L 66.804 180.088 66.699 144.744 L 66.593 109.400 66.597 144.800 M100.200 110.001 C 101.794 110.353,105.484 110.536,105.167 110.249 C 105.075 110.165,103.560 109.996,101.800 109.873 C 99.450 109.708,99.025 109.742,100.200 110.001 M108.200 110.790 C 108.964 111.128,111.514 111.357,111.167 111.056 C 111.075 110.976,110.190 110.804,109.200 110.673 C 107.998 110.514,107.666 110.553,108.200 110.790 M273.400 111.200 C 272.740 111.637,272.380 111.992,272.600 111.988 C 273.001 111.982,275.176 110.423,274.800 110.412 C 274.690 110.408,274.060 110.763,273.400 111.200 M112.800 111.600 C 113.130 111.813,113.850 111.973,114.400 111.954 L 115.400 111.920 114.400 111.600 C 112.858 111.106,112.036 111.106,112.800 111.600 M116.400 112.394 C 116.730 112.611,117.435 112.791,117.967 112.794 C 119.251 112.802,118.925 112.575,117.200 112.258 C 116.215 112.077,115.978 112.118,116.400 112.394 M119.200 112.946 C 119.200 113.026,120.055 113.408,121.100 113.794 C 122.145 114.181,124.215 115.105,125.700 115.848 C 128.707 117.353,129.341 117.394,126.691 115.913 C 124.190 114.515,119.200 112.539,119.200 112.946 M268.200 114.773 C 266.880 115.842,265.191 117.500,264.448 118.458 C 263.250 120.000,263.342 119.946,265.248 117.987 C 266.431 116.770,268.210 115.113,269.200 114.305 C 270.190 113.497,270.910 112.835,270.800 112.833 C 270.690 112.831,269.520 113.704,268.200 114.773 M166.000 116.400 C 166.449 117.280,166.906 118.000,167.016 118.000 C 167.126 118.000,166.849 117.280,166.400 116.400 C 165.951 115.520,165.494 114.800,165.384 114.800 C 165.274 114.800,165.551 115.520,166.000 116.400 M334.800 116.456 C 335.570 116.919,337.280 118.001,338.600 118.860 C 339.991 119.765,340.538 120.004,339.900 119.430 C 338.777 118.418,334.183 115.595,333.679 115.607 C 333.525 115.610,334.030 115.993,334.800 116.456 M261.837 121.800 C 261.476 122.350,261.337 122.800,261.527 122.800 C 261.716 122.800,262.077 122.350,262.327 121.800 C 262.578 121.250,262.717 120.800,262.637 120.800 C 262.557 120.800,262.197 121.250,261.837 121.800 M225.873 126.553 C 225.723 126.945,225.611 127.566,225.625 127.933 C 225.642 128.375,225.781 128.274,226.037 127.634 C 226.249 127.103,226.361 126.482,226.285 126.254 C 226.209 126.027,226.024 126.161,225.873 126.553 M170.456 128.000 C 170.456 128.330,170.611 128.960,170.800 129.400 C 171.017 129.904,171.144 129.978,171.144 129.600 C 171.144 129.270,170.989 128.640,170.800 128.200 C 170.583 127.696,170.456 127.622,170.456 128.000 M225.056 130.484 C 224.921 130.988,224.828 131.850,224.849 132.400 C 224.872 132.989,225.031 132.671,225.236 131.625 C 225.603 129.752,225.473 128.927,225.056 130.484 M171.462 133.800 C 171.596 134.680,171.772 135.475,171.853 135.567 C 172.156 135.910,171.929 133.768,171.581 133.000 C 171.329 132.442,171.293 132.685,171.462 133.800 M140.406 135.233 C 140.409 135.765,140.589 136.470,140.806 136.800 C 141.082 137.222,141.123 136.985,140.942 136.000 C 140.625 134.275,140.398 133.949,140.406 135.233 M224.254 136.656 C 223.924 139.069,223.968 146.958,224.323 148.958 C 224.475 149.815,224.600 146.980,224.600 142.658 C 224.600 133.925,224.608 134.072,224.254 136.656 M256.849 135.200 C 256.816 135.530,256.689 136.250,256.567 136.800 C 256.375 137.664,256.407 137.703,256.799 137.088 C 257.048 136.697,257.175 135.977,257.081 135.488 C 256.986 135.000,256.882 134.870,256.849 135.200 M141.482 142.200 C 141.599 144.400,141.764 146.275,141.848 146.367 C 142.106 146.649,141.939 142.722,141.594 140.400 C 141.359 138.810,141.327 139.309,141.482 142.200 M256.434 148.000 C 256.446 148.330,256.611 148.960,256.800 149.400 L 257.144 150.200 257.166 149.400 C 257.178 148.960,257.013 148.330,256.800 148.000 C 256.455 147.467,256.415 147.467,256.434 148.000 M141.387 150.987 C 141.231 152.444,141.189 153.723,141.295 153.828 C 141.401 153.934,141.610 152.823,141.760 151.360 C 141.910 149.897,141.951 148.618,141.852 148.518 C 141.752 148.419,141.543 149.529,141.387 150.987 M171.450 150.450 C 171.117 152.117,171.440 152.440,171.800 150.800 C 171.952 150.109,171.993 149.459,171.891 149.358 C 171.789 149.256,171.591 149.747,171.450 150.450 M224.806 153.033 C 224.809 153.675,224.996 154.470,225.221 154.800 C 225.514 155.230,225.554 154.946,225.362 153.800 C 225.030 151.816,224.798 151.496,224.806 153.033 M170.650 154.850 C 170.317 156.517,170.640 156.840,171.000 155.200 C 171.152 154.509,171.193 153.859,171.091 153.758 C 170.989 153.656,170.791 154.147,170.650 154.850 M140.649 155.415 C 140.512 155.773,140.415 156.366,140.434 156.733 C 140.453 157.100,140.627 156.869,140.821 156.220 C 141.198 154.958,141.065 154.333,140.649 155.415 M259.386 156.700 C 259.735 157.415,260.106 158.000,260.210 158.000 C 260.608 158.000,260.352 157.363,259.567 156.400 L 258.752 155.400 259.386 156.700 M225.606 157.033 C 225.609 157.455,225.795 158.070,226.018 158.400 C 226.315 158.838,226.352 158.676,226.156 157.800 C 225.827 156.329,225.598 156.010,225.606 157.033 M138.425 161.700 C 137.637 163.267,137.632 163.322,138.364 162.400 C 139.071 161.509,139.724 160.000,139.403 160.000 C 139.336 160.000,138.896 160.765,138.425 161.700 M262.787 161.786 C 263.899 163.328,266.204 165.671,267.800 166.882 C 269.059 167.837,268.980 167.716,267.431 166.317 C 266.348 165.339,264.728 163.736,263.831 162.755 C 262.934 161.775,262.464 161.339,262.787 161.786 M167.266 164.500 C 166.602 165.875,165.667 167.630,165.190 168.400 C 164.714 169.170,164.624 169.440,164.992 169.000 C 165.934 167.872,167.446 165.268,168.184 163.500 C 169.178 161.120,168.592 161.758,167.266 164.500 M135.000 166.689 C 133.605 168.543,133.458 169.052,134.735 167.600 C 135.413 166.830,135.975 166.065,135.984 165.900 C 136.009 165.428,135.856 165.551,135.000 166.689 M270.073 168.626 C 270.443 169.052,271.343 169.741,272.073 170.157 C 273.639 171.050,273.226 170.607,271.000 169.004 C 270.069 168.334,269.682 168.176,270.073 168.626 M131.693 170.033 C 130.975 170.675,130.525 171.194,130.694 171.187 C 131.107 171.170,133.331 169.198,133.146 169.013 C 133.065 168.932,132.412 169.391,131.693 170.033 M162.463 171.972 C 161.548 173.056,160.800 174.052,160.800 174.186 C 160.800 174.396,161.662 173.439,163.942 170.700 C 164.262 170.315,164.434 170.000,164.325 170.000 C 164.215 170.000,163.377 170.887,162.463 171.972 M234.016 176.163 C 234.768 177.209,235.556 178.173,235.767 178.303 C 235.978 178.433,235.535 177.684,234.784 176.637 C 234.032 175.591,233.244 174.627,233.033 174.497 C 232.822 174.367,233.265 175.116,234.016 176.163 M158.378 176.250 C 157.620 177.047,156.298 178.217,155.440 178.850 C 154.582 179.482,154.025 180.000,154.202 180.000 C 154.379 180.000,155.101 179.560,155.807 179.022 C 157.668 177.602,160.525 174.800,160.111 174.800 C 159.916 174.800,159.137 175.452,158.378 176.250 M115.200 177.600 C 114.667 177.945,114.667 177.988,115.200 177.988 C 115.530 177.988,116.070 177.813,116.400 177.600 C 116.933 177.255,116.933 177.212,116.400 177.212 C 116.070 177.212,115.530 177.387,115.200 177.600 M111.600 178.406 C 111.178 178.682,111.415 178.723,112.400 178.542 C 114.125 178.225,114.451 177.998,113.167 178.006 C 112.635 178.009,111.930 178.189,111.600 178.406 M106.000 179.213 C 105.354 179.429,105.780 179.466,107.200 179.319 C 108.410 179.194,109.475 179.026,109.567 178.946 C 109.887 178.665,106.991 178.883,106.000 179.213 M238.600 181.600 C 239.683 182.700,240.660 183.600,240.770 183.600 C 240.880 183.600,240.083 182.700,239.000 181.600 C 237.917 180.500,236.940 179.600,236.830 179.600 C 236.720 179.600,237.517 180.500,238.600 181.600 M300.000 182.989 C 300.000 183.306,302.900 184.433,303.128 184.205 C 303.241 184.092,303.235 184.000,303.116 184.000 C 302.996 184.000,302.246 183.728,301.449 183.395 C 300.652 183.062,300.000 182.879,300.000 182.989 M246.140 187.903 C 246.296 188.156,246.991 188.767,247.684 189.260 C 248.377 189.754,248.817 189.950,248.660 189.697 C 248.504 189.444,247.809 188.833,247.116 188.340 C 246.423 187.846,245.983 187.650,246.140 187.903 M132.400 190.341 C 132.730 190.534,133.540 190.809,134.200 190.952 C 134.968 191.118,135.184 191.084,134.800 190.859 C 134.470 190.666,133.660 190.391,133.000 190.248 C 132.232 190.082,132.016 190.116,132.400 190.341 M136.033 191.343 C 136.125 191.421,136.830 191.601,137.600 191.742 C 138.585 191.923,138.822 191.882,138.400 191.606 C 137.858 191.250,135.637 191.003,136.033 191.343 M251.600 191.895 C 251.600 192.284,253.214 193.319,253.451 193.082 C 253.547 192.986,253.169 192.610,252.612 192.245 C 252.056 191.880,251.600 191.722,251.600 191.895 M256.000 194.764 C 256.550 195.214,257.180 195.583,257.400 195.585 C 257.828 195.588,257.105 195.034,255.800 194.360 C 255.269 194.085,255.336 194.221,256.000 194.764 M332.400 198.521 C 332.400 198.612,333.435 199.351,334.700 200.163 C 335.965 200.975,336.508 201.221,335.906 200.710 C 334.718 199.700,332.400 198.253,332.400 198.521 M157.800 200.265 C 158.822 201.233,161.333 202.871,160.727 202.174 C 160.357 201.748,159.457 201.059,158.727 200.643 C 157.997 200.227,157.580 200.057,157.800 200.265 M269.200 201.400 C 269.750 201.714,270.380 201.972,270.600 201.972 C 270.820 201.972,270.550 201.714,270.000 201.400 C 269.450 201.086,268.820 200.828,268.600 200.828 C 268.380 200.828,268.650 201.086,269.200 201.400 M339.446 203.667 C 340.081 204.144,341.152 204.999,341.826 205.567 C 342.500 206.135,342.151 205.745,341.049 204.700 C 339.948 203.655,338.878 202.800,338.670 202.800 C 338.462 202.800,338.811 203.190,339.446 203.667 M165.177 206.092 C 166.374 207.351,167.430 208.303,167.524 208.209 C 167.618 208.115,167.437 207.805,167.122 207.519 C 163.116 203.891,163.003 203.807,165.177 206.092 M66.584 205.700 C 66.480 205.975,66.440 225.370,66.497 248.800 L 66.600 291.400 84.500 291.406 L 102.400 291.412 84.600 291.302 L 66.800 291.192 66.800 248.400 L 66.800 205.608 85.500 205.500 L 104.200 205.392 85.487 205.296 C 70.814 205.221,66.734 205.308,66.584 205.700 M109.800 206.000 C 110.460 206.168,111.540 206.305,112.200 206.305 L 113.400 206.305 112.200 206.000 C 111.540 205.832,110.460 205.695,109.800 205.695 L 108.600 205.695 109.800 206.000 M116.400 206.800 C 116.730 207.013,117.450 207.173,118.000 207.154 L 119.000 207.120 118.000 206.800 C 116.458 206.306,115.636 206.306,116.400 206.800 M120.400 207.600 C 120.730 207.813,121.360 207.978,121.800 207.966 L 122.600 207.944 121.800 207.600 C 120.604 207.086,119.605 207.086,120.400 207.600 M168.800 209.458 C 168.800 209.674,169.385 210.379,170.100 211.025 L 171.400 212.200 170.200 210.802 C 169.540 210.033,168.955 209.328,168.900 209.235 C 168.845 209.143,168.800 209.243,168.800 209.458 M135.200 212.184 C 135.200 212.294,135.920 212.751,136.800 213.200 C 137.680 213.649,138.400 213.926,138.400 213.816 C 138.400 213.706,137.680 213.249,136.800 212.800 C 135.920 212.351,135.200 212.074,135.200 212.184 M172.073 213.500 C 172.636 214.105,173.929 215.858,174.948 217.396 C 175.967 218.933,176.800 220.050,176.800 219.878 C 176.800 219.584,173.500 214.648,172.269 213.100 C 171.962 212.715,171.563 212.400,171.381 212.400 C 171.199 212.400,171.511 212.895,172.073 213.500 M350.834 215.047 C 351.365 215.733,351.880 216.223,351.979 216.135 C 352.077 216.047,351.643 215.486,351.013 214.888 L 349.869 213.800 350.834 215.047 M142.088 216.613 C 142.686 217.243,143.247 217.677,143.335 217.579 C 143.423 217.480,142.933 216.965,142.247 216.434 L 141.000 215.469 142.088 216.613 M306.000 217.379 C 306.000 217.489,306.540 217.859,307.200 218.200 C 307.860 218.541,308.400 218.731,308.400 218.621 C 308.400 218.511,307.860 218.141,307.200 217.800 C 306.540 217.459,306.000 217.269,306.000 217.379 M146.974 222.200 C 148.367 224.252,148.652 224.495,147.877 222.971 C 147.534 222.295,146.949 221.490,146.578 221.182 C 146.207 220.874,146.385 221.332,146.974 222.200 M178.227 223.200 C 179.052 224.912,179.203 225.094,179.191 224.367 C 179.186 224.055,178.815 223.350,178.367 222.800 L 177.552 221.800 178.227 223.200 M320.794 228.300 C 321.828 229.345,322.869 230.559,323.107 230.997 C 323.345 231.435,323.643 231.690,323.769 231.564 C 324.027 231.307,319.707 226.400,319.224 226.400 C 319.053 226.400,319.760 227.255,320.794 228.300 M181.206 230.633 C 181.209 231.055,181.395 231.670,181.618 232.000 C 181.915 232.438,181.952 232.276,181.756 231.400 C 181.427 229.929,181.198 229.610,181.206 230.633 M324.009 232.246 C 324.021 232.713,325.580 234.700,325.591 234.263 C 325.596 234.078,325.240 233.469,324.800 232.909 C 324.360 232.350,324.004 232.051,324.009 232.246 M182.243 234.000 C 182.387 234.770,182.636 236.210,182.798 237.200 C 183.074 238.884,183.096 238.910,183.140 237.600 C 183.167 236.830,182.917 235.390,182.585 234.400 C 182.100 232.951,182.034 232.873,182.243 234.000 M360.644 235.000 C 360.973 236.471,361.202 236.790,361.194 235.767 C 361.191 235.345,361.005 234.730,360.782 234.400 C 360.485 233.962,360.448 234.124,360.644 235.000 M361.482 239.000 C 361.609 240.100,361.777 241.075,361.856 241.167 C 362.155 241.514,361.928 238.564,361.597 237.800 C 361.374 237.285,361.333 237.713,361.482 239.000 M152.914 239.800 C 152.917 240.900,152.995 241.303,153.087 240.695 C 153.179 240.086,153.177 239.186,153.082 238.695 C 152.987 238.203,152.911 238.700,152.914 239.800 M183.762 248.600 C 183.762 252.120,183.824 253.506,183.898 251.681 C 183.972 249.856,183.972 246.976,183.897 245.281 C 183.822 243.586,183.761 245.080,183.762 248.600 M328.828 244.433 C 328.844 244.965,329.019 245.760,329.219 246.200 C 329.471 246.758,329.507 246.515,329.338 245.400 C 329.055 243.543,328.787 243.036,328.828 244.433 M153.346 247.800 C 153.347 250.000,153.414 250.849,153.495 249.687 C 153.576 248.524,153.576 246.724,153.493 245.687 C 153.411 244.649,153.345 245.600,153.346 247.800 M362.565 251.400 C 362.566 255.360,362.626 256.926,362.698 254.880 C 362.771 252.834,362.771 249.594,362.698 247.680 C 362.624 245.766,362.565 247.440,362.565 251.400 M329.754 254.000 C 329.754 256.750,329.818 257.875,329.896 256.500 C 329.974 255.125,329.974 252.875,329.896 251.500 C 329.818 250.125,329.754 251.250,329.754 254.000 M152.914 255.400 C 152.917 256.500,152.995 256.903,153.087 256.295 C 153.179 255.686,153.177 254.786,153.082 254.295 C 152.987 253.803,152.911 254.300,152.914 255.400 M182.909 260.400 C 182.909 261.390,182.987 261.795,183.082 261.300 C 183.178 260.805,183.178 259.995,183.082 259.500 C 182.987 259.005,182.909 259.410,182.909 260.400 M152.049 260.200 C 152.016 260.640,151.896 261.450,151.783 262.000 L 151.577 263.000 152.006 262.019 C 152.242 261.479,152.361 260.669,152.272 260.219 C 152.113 259.421,152.107 259.421,152.049 260.200 M329.056 262.484 C 328.921 262.988,328.828 263.850,328.849 264.400 C 328.872 264.989,329.031 264.671,329.236 263.625 C 329.603 261.752,329.473 260.927,329.056 262.484 M361.664 263.400 C 361.623 264.280,361.496 265.450,361.383 266.000 L 361.177 267.000 361.608 266.014 C 361.844 265.472,361.971 264.302,361.889 263.414 L 361.740 261.800 361.664 263.400 M182.256 263.284 C 182.121 263.788,182.027 264.560,182.046 265.000 C 182.065 265.440,182.245 265.098,182.446 264.240 C 182.836 262.578,182.670 261.740,182.256 263.284 M360.854 268.267 C 360.825 268.744,360.696 269.464,360.570 269.867 C 360.352 270.561,360.364 270.562,360.796 269.888 C 361.047 269.497,361.175 268.777,361.081 268.288 C 360.909 267.401,360.909 267.401,360.854 268.267 M148.181 271.237 C 147.829 271.918,147.612 272.545,147.699 272.632 C 147.786 272.719,148.156 272.162,148.522 271.395 C 149.344 269.670,149.059 269.538,148.181 271.237 M240.400 278.979 C 240.400 279.089,240.940 279.459,241.600 279.800 C 242.260 280.141,242.800 280.331,242.800 280.221 C 242.800 280.111,242.260 279.741,241.600 279.400 C 240.940 279.059,240.400 278.869,240.400 278.979 M321.348 281.095 C 320.497 282.137,318.900 283.869,317.800 284.942 L 315.800 286.894 317.641 285.447 C 318.653 284.652,320.330 282.921,321.367 281.600 C 323.598 278.761,323.583 278.360,321.348 281.095 M251.400 285.230 C 254.040 286.531,256.380 287.591,256.600 287.586 C 256.820 287.581,254.770 286.502,252.045 285.188 C 249.320 283.875,246.980 282.814,246.845 282.832 C 246.710 282.849,248.760 283.928,251.400 285.230 M133.600 284.400 C 132.830 284.822,132.344 285.174,132.520 285.183 C 132.944 285.205,135.200 284.032,135.200 283.790 C 135.200 283.528,135.177 283.537,133.600 284.400 M129.600 286.000 C 128.610 286.415,128.070 286.752,128.400 286.748 C 129.072 286.740,132.428 285.263,131.800 285.252 C 131.580 285.248,130.590 285.585,129.600 286.000 M354.614 286.235 C 354.241 286.804,354.027 287.361,354.139 287.472 C 354.250 287.583,354.629 287.118,354.981 286.437 C 355.759 284.933,355.544 284.815,354.614 286.235 M171.568 287.500 C 169.209 290.143,168.674 290.800,168.882 290.800 C 169.003 290.800,169.949 289.810,170.982 288.600 C 172.896 286.360,173.355 285.498,171.568 287.500 M126.000 287.200 C 125.176 287.464,125.141 287.526,125.800 287.554 C 126.240 287.573,126.870 287.413,127.200 287.200 C 127.901 286.747,127.414 286.747,126.000 287.200 M257.200 287.734 C 257.200 287.837,257.781 288.124,258.491 288.372 C 259.201 288.619,259.606 288.657,259.391 288.456 C 258.935 288.029,257.200 287.458,257.200 287.734 M311.000 289.637 C 309.460 290.483,307.896 291.180,307.524 291.187 C 307.152 291.194,306.743 291.368,306.616 291.574 C 306.476 291.800,306.823 291.823,307.492 291.631 C 309.018 291.193,313.485 288.909,313.794 288.409 C 314.106 287.905,314.338 287.803,311.000 289.637 M117.800 289.210 C 117.266 289.447,117.598 289.486,118.800 289.327 C 119.790 289.196,120.675 289.024,120.767 288.944 C 121.114 288.643,118.564 288.872,117.800 289.210 M113.000 290.003 C 112.485 290.226,112.913 290.267,114.200 290.118 C 115.300 289.991,116.275 289.823,116.367 289.744 C 116.714 289.445,113.764 289.672,113.000 290.003 M263.400 290.000 C 264.501 290.473,264.892 290.473,264.600 290.000 C 264.464 289.780,263.958 289.613,263.476 289.628 C 262.631 289.655,262.629 289.669,263.400 290.000 M106.200 290.800 C 103.873 291.217,106.340 291.233,109.000 290.818 C 110.899 290.523,110.919 290.507,109.400 290.510 C 108.520 290.512,107.080 290.642,106.200 290.800 M268.433 291.343 C 268.525 291.421,269.230 291.601,270.000 291.742 C 270.985 291.923,271.222 291.882,270.800 291.606 C 270.258 291.250,268.037 291.003,268.433 291.343 M166.174 293.307 L 164.600 294.999 166.196 293.599 C 167.073 292.830,167.868 292.155,167.962 292.100 C 168.056 292.045,168.047 291.913,167.941 291.807 C 167.835 291.701,167.040 292.376,166.174 293.307 M273.200 292.400 C 274.742 292.894,275.564 292.894,274.800 292.400 C 274.470 292.187,273.750 292.027,273.200 292.046 L 272.200 292.080 273.200 292.400 M276.833 292.944 C 276.925 293.023,277.900 293.191,279.000 293.318 C 280.287 293.467,280.715 293.426,280.200 293.203 C 279.436 292.872,276.486 292.645,276.833 292.944 M300.400 293.206 C 299.978 293.482,300.215 293.523,301.200 293.342 C 302.925 293.025,303.251 292.798,301.967 292.806 C 301.435 292.809,300.730 292.989,300.400 293.206 M283.673 293.806 C 283.948 294.082,297.643 294.090,297.918 293.815 C 298.036 293.697,294.833 293.600,290.800 293.600 C 286.767 293.600,283.559 293.693,283.673 293.806 M346.023 298.126 C 342.867 301.559,342.823 301.629,345.353 299.200 C 347.639 297.005,349.975 294.333,349.527 294.426 C 349.457 294.441,347.880 296.106,346.023 298.126 M161.018 297.428 C 157.889 299.761,157.196 300.560,160.000 298.604 C 162.100 297.139,163.991 295.570,163.589 295.627 C 163.485 295.641,162.328 296.452,161.018 297.428 M222.800 299.525 C 222.800 299.736,223.250 300.199,223.800 300.554 C 224.350 300.909,225.250 301.491,225.800 301.846 C 226.350 302.201,226.800 302.396,226.800 302.279 C 226.800 302.161,226.165 301.673,225.389 301.193 C 224.614 300.714,223.714 300.056,223.389 299.732 C 223.065 299.408,222.800 299.315,222.800 299.525 M156.000 300.836 C 155.336 301.379,155.269 301.515,155.800 301.240 C 157.105 300.566,157.828 300.012,157.400 300.015 C 157.180 300.017,156.550 300.386,156.000 300.836 M151.600 303.200 C 150.830 303.622,150.344 303.974,150.520 303.983 C 150.944 304.005,153.200 302.832,153.200 302.590 C 153.200 302.328,153.177 302.337,151.600 303.200 M135.400 309.200 C 134.629 309.531,134.631 309.545,135.476 309.572 C 135.958 309.587,136.464 309.420,136.600 309.200 C 136.892 308.727,136.501 308.727,135.400 309.200 M129.200 310.800 C 127.816 311.091,127.814 311.095,129.000 311.141 C 129.660 311.167,130.470 311.013,130.800 310.800 C 131.466 310.370,131.245 310.370,129.200 310.800 M124.800 311.600 C 123.433 311.888,123.428 311.895,124.600 311.919 C 125.260 311.933,126.160 311.789,126.600 311.600 C 127.562 311.187,126.764 311.187,124.800 311.600 M118.505 312.687 C 119.114 312.779,120.014 312.777,120.505 312.682 C 120.997 312.587,120.500 312.511,119.400 312.514 C 118.300 312.517,117.897 312.595,118.505 312.687 M112.800 313.200 L 110.200 313.462 112.600 313.491 C 113.920 313.507,115.450 313.376,116.000 313.200 C 117.201 312.815,116.617 312.815,112.800 313.200 M106.700 313.882 C 107.195 313.978,108.005 313.978,108.500 313.882 C 108.995 313.787,108.590 313.709,107.600 313.709 C 106.610 313.709,106.205 313.787,106.700 313.882 M254.600 313.981 C 255.368 314.329,257.510 314.556,257.167 314.253 C 257.075 314.172,256.280 313.996,255.400 313.862 C 254.285 313.693,254.042 313.729,254.600 313.981 M263.505 315.883 C 264.002 315.979,264.722 315.975,265.105 315.875 C 265.487 315.775,265.080 315.696,264.200 315.701 C 263.320 315.705,263.007 315.787,263.505 315.883 M311.600 316.000 C 310.256 316.431,311.708 316.431,313.400 316.000 C 314.478 315.726,314.498 315.694,313.600 315.687 C 313.050 315.683,312.150 315.824,311.600 316.000 M268.705 316.683 C 269.202 316.779,269.922 316.775,270.305 316.675 C 270.687 316.575,270.280 316.496,269.400 316.501 C 268.520 316.505,268.207 316.587,268.705 316.683 M271.700 317.076 C 272.085 317.176,272.715 317.176,273.100 317.076 C 273.485 316.975,273.170 316.893,272.400 316.893 C 271.630 316.893,271.315 316.975,271.700 317.076 M277.400 317.615 C 278.720 317.779,280.610 317.906,281.600 317.898 C 283.235 317.884,283.180 317.855,281.000 317.585 C 279.680 317.421,277.790 317.294,276.800 317.302 C 275.165 317.316,275.220 317.345,277.400 317.615 M302.300 317.482 C 302.795 317.578,303.605 317.578,304.100 317.482 C 304.595 317.387,304.190 317.309,303.200 317.309 C 302.210 317.309,301.805 317.387,302.300 317.482 M298.700 317.882 C 299.195 317.978,300.005 317.978,300.500 317.882 C 300.995 317.787,300.590 317.709,299.600 317.709 C 298.610 317.709,298.205 317.787,298.700 317.882 M290.100 318.287 C 290.705 318.378,291.695 318.378,292.300 318.287 C 292.905 318.195,292.410 318.120,291.200 318.120 C 289.990 318.120,289.495 318.195,290.100 318.287 " stroke="none" fill="#9e9e9e" fill-rule="evenodd"></path><path id="path3" d="M50.329 86.700 C 56.999 86.761,67.799 86.761,74.329 86.700 C 80.858 86.638,75.400 86.588,62.200 86.588 C 49.000 86.588,43.658 86.638,50.329 86.700 M294.500 106.276 C 294.885 106.376,295.515 106.376,295.900 106.276 C 296.285 106.175,295.970 106.093,295.200 106.093 C 294.430 106.093,294.115 106.175,294.500 106.276 M84.500 109.076 C 84.885 109.176,85.515 109.176,85.900 109.076 C 86.285 108.975,85.970 108.893,85.200 108.893 C 84.430 108.893,84.115 108.975,84.500 109.076 M94.305 109.483 C 94.802 109.579,95.522 109.575,95.905 109.475 C 96.287 109.375,95.880 109.296,95.000 109.301 C 94.120 109.305,93.807 109.387,94.305 109.483 M74.500 205.100 C 78.845 205.164,85.955 205.164,90.300 205.100 C 94.645 205.035,91.090 204.982,82.400 204.982 C 73.710 204.982,70.155 205.035,74.500 205.100 M153.293 242.800 C 153.293 243.570,153.375 243.885,153.476 243.500 C 153.576 243.115,153.576 242.485,153.476 242.100 C 153.375 241.715,153.293 242.030,153.293 242.800 M73.500 291.899 C 76.855 291.966,82.345 291.966,85.700 291.899 C 89.055 291.832,86.310 291.778,79.600 291.778 C 72.890 291.778,70.145 291.832,73.500 291.899 M283.900 317.882 C 284.395 317.978,285.205 317.978,285.700 317.882 C 286.195 317.787,285.790 317.709,284.800 317.709 C 283.810 317.709,283.405 317.787,283.900 317.882 M296.100 317.876 C 296.485 317.976,297.115 317.976,297.500 317.876 C 297.885 317.775,297.570 317.693,296.800 317.693 C 296.030 317.693,295.715 317.775,296.100 317.876 " stroke="none" fill="#848484" fill-rule="evenodd"></path><path id="path4" d="M286.500 83.096 C 287.765 83.175,289.835 83.175,291.100 83.096 C 292.365 83.016,291.330 82.951,288.800 82.951 C 286.270 82.951,285.235 83.016,286.500 83.096 M296.882 83.096 C 298.358 83.173,300.878 83.173,302.482 83.097 C 304.087 83.021,302.880 82.958,299.800 82.958 C 296.720 82.957,295.407 83.019,296.882 83.096 M282.100 83.476 C 282.485 83.576,283.115 83.576,283.500 83.476 C 283.885 83.375,283.570 83.293,282.800 83.293 C 282.030 83.293,281.715 83.375,282.100 83.476 M306.100 83.476 C 306.485 83.576,307.115 83.576,307.500 83.476 C 307.885 83.375,307.570 83.293,306.800 83.293 C 306.030 83.293,305.715 83.375,306.100 83.476 M277.000 84.019 C 276.442 84.271,276.685 84.307,277.800 84.138 C 278.680 84.004,279.475 83.828,279.567 83.747 C 279.910 83.444,277.768 83.671,277.000 84.019 M310.433 83.749 C 310.525 83.831,311.500 84.001,312.600 84.128 C 313.949 84.284,314.274 84.249,313.600 84.020 C 312.601 83.680,310.118 83.468,310.433 83.749 M272.600 84.800 C 271.581 85.238,272.632 85.238,274.000 84.800 C 274.804 84.543,274.843 84.477,274.200 84.468 C 273.760 84.462,273.040 84.611,272.600 84.800 M317.000 84.800 C 318.692 85.231,320.144 85.231,318.800 84.800 C 318.250 84.624,317.350 84.483,316.800 84.487 C 315.902 84.494,315.922 84.526,317.000 84.800 M269.400 85.600 C 268.896 85.817,268.822 85.944,269.200 85.944 C 269.530 85.944,270.160 85.789,270.600 85.600 C 271.104 85.383,271.178 85.256,270.800 85.256 C 270.470 85.256,269.840 85.411,269.400 85.600 M321.400 85.600 C 321.840 85.789,322.470 85.944,322.800 85.944 C 323.178 85.944,323.104 85.817,322.600 85.600 C 322.160 85.411,321.530 85.256,321.200 85.256 C 320.822 85.256,320.896 85.383,321.400 85.600 M38.197 200.400 C 38.197 262.990,38.243 288.595,38.300 257.300 C 38.357 226.005,38.357 174.795,38.300 143.500 C 38.243 112.205,38.197 137.810,38.197 200.400 M94.033 86.953 C 94.125 87.037,96.360 87.201,99.000 87.317 C 102.287 87.461,103.043 87.427,101.400 87.207 C 98.871 86.870,93.749 86.693,94.033 86.953 M108.600 88.023 C 109.480 88.205,110.740 88.344,111.400 88.331 C 112.444 88.311,112.392 88.265,111.000 87.977 C 110.120 87.795,108.860 87.656,108.200 87.669 C 107.156 87.689,107.208 87.735,108.600 88.023 M115.400 88.800 C 116.060 88.968,117.140 89.106,117.800 89.107 C 118.809 89.108,118.745 89.055,117.400 88.777 C 115.374 88.358,113.737 88.377,115.400 88.800 M120.600 89.581 C 121.368 89.929,123.510 90.156,123.167 89.853 C 123.075 89.772,122.280 89.596,121.400 89.462 C 120.285 89.293,120.042 89.329,120.600 89.581 M125.200 90.382 C 125.530 90.605,126.145 90.791,126.567 90.794 C 127.590 90.802,127.271 90.573,125.800 90.244 C 124.924 90.048,124.762 90.085,125.200 90.382 M128.600 91.200 C 129.040 91.389,129.670 91.544,130.000 91.544 C 130.378 91.544,130.304 91.417,129.800 91.200 C 129.360 91.011,128.730 90.856,128.400 90.856 C 128.022 90.856,128.096 90.983,128.600 91.200 M132.000 91.982 C 132.330 92.205,132.945 92.391,133.367 92.394 C 134.390 92.402,134.071 92.173,132.600 91.844 C 131.724 91.648,131.562 91.685,132.000 91.982 M347.000 95.074 C 347.220 95.287,348.390 96.141,349.600 96.973 C 351.374 98.191,351.529 98.249,350.400 97.270 C 349.100 96.143,346.108 94.210,347.000 95.074 M245.800 97.035 L 244.600 98.066 245.900 97.206 C 246.615 96.733,247.200 96.268,247.200 96.173 C 247.200 95.873,247.031 95.978,245.800 97.035 M242.894 99.212 C 242.175 99.865,241.737 100.400,241.919 100.400 C 242.101 100.400,242.768 99.860,243.400 99.200 C 244.870 97.665,244.586 97.672,242.894 99.212 M151.200 100.125 C 151.200 100.224,151.861 100.809,152.668 101.425 C 153.476 102.041,154.011 102.341,153.856 102.091 C 153.540 101.579,151.200 99.847,151.200 100.125 M239.578 102.300 L 238.200 103.800 239.796 102.400 C 240.673 101.630,241.468 100.955,241.562 100.900 C 241.656 100.845,241.559 100.800,241.345 100.800 C 241.132 100.800,240.337 101.475,239.578 102.300 M156.088 104.213 C 156.686 104.843,157.247 105.277,157.335 105.179 C 157.423 105.080,156.933 104.565,156.247 104.034 L 155.000 103.069 156.088 104.213 M235.876 106.509 C 233.764 109.244,232.211 111.600,232.519 111.600 C 232.628 111.600,233.266 110.744,233.937 109.699 C 234.608 108.653,235.557 107.348,236.045 106.799 C 236.534 106.249,237.295 105.395,237.736 104.900 C 238.178 104.405,238.373 104.004,238.170 104.009 C 237.966 104.014,236.934 105.139,235.876 106.509 M159.000 107.200 C 159.859 108.080,160.652 108.800,160.762 108.800 C 160.872 108.800,160.259 108.080,159.400 107.200 C 158.541 106.320,157.748 105.600,157.638 105.600 C 157.528 105.600,158.141 106.320,159.000 107.200 M289.700 106.291 C 290.525 106.378,291.875 106.378,292.700 106.291 C 293.525 106.205,292.850 106.134,291.200 106.134 C 289.550 106.134,288.875 106.205,289.700 106.291 M298.313 106.295 C 299.476 106.376,301.276 106.376,302.313 106.293 C 303.351 106.211,302.400 106.145,300.200 106.146 C 298.000 106.147,297.151 106.214,298.313 106.295 M283.200 107.206 C 282.778 107.482,283.015 107.523,284.000 107.342 C 285.725 107.025,286.051 106.798,284.767 106.806 C 284.235 106.809,283.530 106.989,283.200 107.206 M307.633 106.944 C 307.725 107.023,308.790 107.189,310.000 107.312 C 311.369 107.451,311.898 107.408,311.400 107.196 C 310.633 106.870,307.289 106.647,307.633 106.944 M312.433 107.747 C 312.525 107.828,313.320 108.004,314.200 108.138 C 315.315 108.307,315.558 108.271,315.000 108.019 C 314.232 107.671,312.090 107.444,312.433 107.747 M66.664 108.700 C 66.564 108.865,72.268 109.003,79.341 109.006 C 86.697 109.010,90.745 108.898,88.800 108.746 C 84.034 108.372,66.886 108.337,66.664 108.700 M316.433 108.544 C 316.525 108.623,317.140 108.808,317.800 108.956 C 318.676 109.152,318.838 109.115,318.400 108.818 C 317.860 108.453,316.032 108.198,316.433 108.544 M96.433 109.346 C 96.525 109.426,98.400 109.579,100.600 109.685 C 102.800 109.792,104.060 109.747,103.400 109.587 C 102.178 109.289,96.130 109.080,96.433 109.346 M106.433 110.144 C 106.525 110.223,107.500 110.391,108.600 110.518 C 109.887 110.667,110.315 110.626,109.800 110.403 C 109.036 110.072,106.086 109.845,106.433 110.144 M112.033 110.943 C 112.125 111.021,112.830 111.201,113.600 111.342 C 114.585 111.523,114.822 111.482,114.400 111.206 C 113.858 110.850,111.637 110.603,112.033 110.943 M272.000 111.636 C 271.336 112.179,271.269 112.315,271.800 112.040 C 273.105 111.366,273.828 110.812,273.400 110.815 C 273.180 110.817,272.550 111.186,272.000 111.636 M115.633 111.744 C 115.725 111.823,116.340 112.008,117.000 112.156 C 117.876 112.352,118.038 112.315,117.600 112.018 C 117.060 111.653,115.232 111.398,115.633 111.744 M229.980 116.039 C 229.520 116.940,229.213 117.746,229.297 117.830 C 229.381 117.914,229.841 117.176,230.319 116.191 C 231.409 113.947,231.115 113.815,229.980 116.039 M265.600 116.600 C 264.628 117.590,263.923 118.400,264.033 118.400 C 264.143 118.400,265.028 117.590,266.000 116.600 C 266.972 115.610,267.677 114.800,267.567 114.800 C 267.457 114.800,266.572 115.610,265.600 116.600 M336.000 116.524 C 336.000 116.617,336.765 117.198,337.700 117.815 C 338.635 118.432,339.189 118.680,338.931 118.368 C 338.434 117.767,336.000 116.236,336.000 116.524 M133.400 120.400 C 134.259 121.280,135.052 122.000,135.162 122.000 C 135.272 122.000,134.659 121.280,133.800 120.400 C 132.941 119.520,132.148 118.800,132.038 118.800 C 131.928 118.800,132.541 119.520,133.400 120.400 M227.246 122.867 C 227.221 123.234,227.096 123.864,226.970 124.267 C 226.752 124.962,226.763 124.963,227.197 124.287 C 227.448 123.896,227.573 123.266,227.473 122.887 C 227.311 122.268,227.288 122.266,227.246 122.867 M226.446 126.067 C 226.421 126.434,226.296 127.064,226.170 127.467 C 225.952 128.162,225.963 128.163,226.397 127.487 C 226.648 127.096,226.773 126.466,226.673 126.087 C 226.511 125.468,226.488 125.466,226.446 126.067 M169.668 126.400 C 169.688 127.439,170.318 129.146,170.332 128.200 C 170.338 127.760,170.189 127.040,170.000 126.600 C 169.789 126.110,169.661 126.032,169.668 126.400 M225.654 129.600 C 225.619 130.150,225.496 131.050,225.383 131.600 L 225.177 132.600 225.607 131.615 C 225.843 131.074,225.965 130.174,225.878 129.615 L 225.720 128.600 225.654 129.600 M170.909 132.400 C 170.909 133.390,170.987 133.795,171.082 133.300 C 171.178 132.805,171.178 131.995,171.082 131.500 C 170.987 131.005,170.909 131.410,170.909 132.400 M257.049 131.815 C 256.912 132.173,256.818 132.856,256.841 133.333 C 256.867 133.881,257.003 133.686,257.210 132.803 C 257.560 131.316,257.465 130.733,257.049 131.815 M224.924 136.200 C 224.926 137.520,225.001 138.012,225.090 137.293 C 225.179 136.574,225.177 135.494,225.086 134.893 C 224.995 134.292,224.922 134.880,224.924 136.200 M140.868 135.200 C 140.888 136.239,141.518 137.946,141.532 137.000 C 141.538 136.560,141.389 135.840,141.200 135.400 C 140.989 134.910,140.861 134.832,140.868 135.200 M256.134 139.600 C 256.134 141.250,256.205 141.925,256.291 141.100 C 256.378 140.275,256.378 138.925,256.291 138.100 C 256.205 137.275,256.134 137.950,256.134 139.600 M171.757 142.400 C 171.757 145.370,171.820 146.585,171.897 145.100 C 171.974 143.615,171.974 141.185,171.897 139.700 C 171.820 138.215,171.757 139.430,171.757 142.400 M224.546 142.600 C 224.547 144.800,224.614 145.649,224.695 144.487 C 224.776 143.324,224.776 141.524,224.693 140.487 C 224.611 139.449,224.545 140.400,224.546 142.600 M141.800 146.395 C 141.800 150.160,141.917 152.827,142.060 152.321 C 142.203 151.814,142.320 149.150,142.320 146.400 C 142.320 143.650,142.203 140.984,142.060 140.475 C 141.917 139.966,141.800 142.630,141.800 146.395 M256.124 146.200 C 256.126 147.520,256.201 148.012,256.290 147.293 C 256.379 146.574,256.377 145.494,256.286 144.893 C 256.195 144.292,256.122 144.880,256.124 146.200 M224.924 149.000 C 224.926 150.320,225.001 150.812,225.090 150.093 C 225.179 149.374,225.177 148.294,225.086 147.693 C 224.995 147.092,224.922 147.680,224.924 149.000 M170.901 151.800 C 170.905 152.680,170.987 152.993,171.083 152.495 C 171.179 151.998,171.175 151.278,171.075 150.895 C 170.975 150.513,170.896 150.920,170.901 151.800 M225.473 154.000 C 225.604 154.990,225.776 155.875,225.856 155.967 C 226.157 156.314,225.928 153.764,225.590 153.000 C 225.353 152.466,225.314 152.798,225.473 154.000 M141.246 154.867 C 141.221 155.234,141.096 155.864,140.970 156.267 C 140.752 156.962,140.763 156.963,141.197 156.287 C 141.448 155.896,141.573 155.266,141.473 154.887 C 141.311 154.268,141.288 154.266,141.246 154.867 M170.046 155.667 C 170.021 156.034,169.896 156.664,169.770 157.067 C 169.552 157.762,169.563 157.763,169.997 157.087 C 170.248 156.696,170.373 156.066,170.273 155.687 C 170.111 155.068,170.088 155.066,170.046 155.667 M226.244 157.800 C 226.573 159.271,226.802 159.590,226.794 158.567 C 226.791 158.145,226.605 157.530,226.382 157.200 C 226.085 156.762,226.048 156.924,226.244 157.800 M227.044 161.000 C 227.373 162.471,227.602 162.790,227.594 161.767 C 227.591 161.345,227.405 160.730,227.182 160.400 C 226.885 159.962,226.848 160.124,227.044 161.000 M264.800 164.600 C 266.217 166.030,267.467 167.200,267.577 167.200 C 267.687 167.200,266.617 166.030,265.200 164.600 C 263.783 163.170,262.533 162.000,262.423 162.000 C 262.313 162.000,263.383 163.170,264.800 164.600 M165.400 167.200 C 165.059 167.860,164.869 168.400,164.979 168.400 C 165.089 168.400,165.459 167.860,165.800 167.200 C 166.141 166.540,166.331 166.000,166.221 166.000 C 166.111 166.000,165.741 166.540,165.400 167.200 M133.578 169.100 L 132.200 170.600 133.700 169.222 C 134.525 168.463,135.200 167.788,135.200 167.722 C 135.200 167.416,134.862 167.704,133.578 169.100 M127.500 173.429 C 126.895 173.757,126.400 174.110,126.400 174.213 C 126.400 174.599,127.032 174.357,128.000 173.600 C 129.189 172.670,129.011 172.609,127.500 173.429 M235.200 177.325 C 235.200 177.394,235.785 177.979,236.500 178.625 L 237.800 179.800 236.625 178.500 C 235.530 177.288,235.200 177.016,235.200 177.325 M115.200 178.000 C 114.376 178.264,114.341 178.326,115.000 178.354 C 115.440 178.373,116.070 178.213,116.400 178.000 C 117.101 177.547,116.614 177.547,115.200 178.000 M111.200 178.800 C 109.833 179.088,109.828 179.095,111.000 179.119 C 111.660 179.133,112.560 178.989,113.000 178.800 C 113.962 178.387,113.164 178.387,111.200 178.800 M104.105 179.887 C 104.714 179.979,105.614 179.977,106.105 179.882 C 106.597 179.787,106.100 179.711,105.000 179.714 C 103.900 179.717,103.497 179.795,104.105 179.887 M99.705 180.287 C 100.314 180.379,101.214 180.377,101.705 180.282 C 102.197 180.187,101.700 180.111,100.600 180.114 C 99.500 180.117,99.097 180.195,99.705 180.287 M292.000 180.231 C 292.000 180.501,294.078 181.256,294.276 181.057 C 294.367 180.967,293.892 180.701,293.220 180.467 C 292.549 180.233,292.000 180.127,292.000 180.231 M74.274 180.699 C 78.494 180.764,85.514 180.764,89.874 180.700 C 94.233 180.635,90.780 180.582,82.200 180.582 C 73.620 180.582,70.053 180.635,74.274 180.699 M147.900 183.429 C 146.405 184.240,146.496 184.578,148.000 183.800 C 148.660 183.459,149.200 183.094,149.200 182.990 C 149.200 182.732,149.157 182.747,147.900 183.429 M240.833 183.300 C 240.925 183.355,241.540 183.850,242.200 184.400 L 243.400 185.400 242.430 184.300 C 241.897 183.695,241.282 183.200,241.064 183.200 C 240.845 183.200,240.742 183.245,240.833 183.300 M142.400 186.200 C 141.850 186.514,141.580 186.772,141.800 186.772 C 142.020 186.772,142.650 186.514,143.200 186.200 C 143.750 185.886,144.020 185.628,143.800 185.628 C 143.580 185.628,142.950 185.886,142.400 186.200 M246.000 187.325 C 246.000 187.424,246.661 188.009,247.468 188.625 C 248.276 189.241,248.811 189.541,248.656 189.291 C 248.340 188.779,246.000 187.047,246.000 187.325 M137.400 188.214 C 136.400 188.696,136.366 188.751,137.200 188.548 C 138.333 188.271,139.607 187.621,139.000 187.630 C 138.780 187.633,138.060 187.896,137.400 188.214 M131.614 189.983 C 130.952 190.401,132.411 191.111,134.600 191.436 C 135.260 191.534,134.900 191.319,133.800 190.957 C 132.127 190.407,131.931 190.247,132.600 189.978 C 133.116 189.770,133.187 189.648,132.800 189.634 C 132.470 189.622,131.936 189.779,131.614 189.983 M249.200 189.782 C 249.200 189.885,250.235 190.666,251.500 191.515 C 254.301 193.398,254.800 193.695,254.800 193.482 C 254.800 193.392,253.540 192.480,252.000 191.455 C 250.460 190.431,249.200 189.678,249.200 189.782 M140.200 192.800 C 140.336 193.020,140.842 193.187,141.324 193.172 C 142.169 193.145,142.171 193.131,141.400 192.800 C 140.299 192.327,139.908 192.327,140.200 192.800 M142.800 193.316 C 142.910 193.434,144.411 194.091,146.135 194.775 C 147.860 195.460,150.020 196.395,150.935 196.854 C 151.851 197.313,152.403 197.480,152.161 197.225 C 151.920 196.971,150.120 196.075,148.161 195.234 C 144.539 193.679,142.439 192.928,142.800 193.316 M255.200 193.790 C 255.200 193.894,255.785 194.265,256.500 194.614 L 257.800 195.248 256.800 194.433 C 255.837 193.648,255.200 193.392,255.200 193.790 M326.800 195.741 C 326.800 196.008,330.490 198.043,330.663 197.871 C 330.740 197.793,329.903 197.239,328.802 196.640 C 327.701 196.040,326.800 195.636,326.800 195.741 M331.633 198.523 C 333.715 200.065,336.021 201.558,335.821 201.234 C 335.505 200.723,332.178 198.400,331.761 198.400 C 331.599 198.400,331.542 198.456,331.633 198.523 M158.400 200.925 C 158.400 201.024,159.061 201.609,159.868 202.225 C 160.676 202.841,161.211 203.141,161.056 202.891 C 160.740 202.379,158.400 200.647,158.400 200.925 M272.054 202.187 C 272.390 202.523,275.200 203.616,275.200 203.411 C 275.200 203.301,274.548 202.938,273.751 202.605 C 272.275 201.989,271.718 201.851,272.054 202.187 M338.800 203.436 C 338.800 203.711,339.224 204.084,341.300 205.633 C 343.014 206.913,342.594 206.331,340.600 204.665 C 339.610 203.837,338.800 203.284,338.800 203.436 M99.500 205.093 C 100.435 205.177,101.965 205.177,102.900 205.093 C 103.835 205.009,103.070 204.940,101.200 204.940 C 99.330 204.940,98.565 205.009,99.500 205.093 M165.400 206.800 C 166.483 207.900,167.460 208.800,167.570 208.800 C 167.680 208.800,166.883 207.900,165.800 206.800 C 164.717 205.700,163.740 204.800,163.630 204.800 C 163.520 204.800,164.317 205.700,165.400 206.800 M278.800 205.016 C 278.800 205.128,279.205 205.377,279.700 205.569 C 280.195 205.761,281.545 206.294,282.700 206.753 C 283.855 207.213,284.800 207.496,284.800 207.384 C 284.800 207.272,284.395 207.023,283.900 206.831 C 283.405 206.639,282.055 206.106,280.900 205.647 C 279.745 205.187,278.800 204.904,278.800 205.016 M106.900 205.491 C 107.725 205.578,109.075 205.578,109.900 205.491 C 110.725 205.405,110.050 205.334,108.400 205.334 C 106.750 205.334,106.075 205.405,106.900 205.491 M114.700 206.282 C 115.195 206.378,116.005 206.378,116.500 206.282 C 116.995 206.187,116.590 206.109,115.600 206.109 C 114.610 206.109,114.205 206.187,114.700 206.282 M119.233 206.947 C 119.325 207.028,120.120 207.204,121.000 207.338 C 122.115 207.507,122.358 207.471,121.800 207.219 C 121.032 206.871,118.890 206.644,119.233 206.947 M123.233 207.744 C 123.325 207.823,123.940 208.008,124.600 208.156 C 125.476 208.352,125.638 208.315,125.200 208.018 C 124.660 207.653,122.832 207.398,123.233 207.744 M348.955 213.319 C 349.803 214.353,350.580 215.200,350.682 215.200 C 350.955 215.200,348.421 212.060,347.877 211.724 C 347.622 211.566,348.107 212.284,348.955 213.319 M138.033 213.323 C 140.115 214.865,142.421 216.358,142.221 216.034 C 141.905 215.523,138.578 213.200,138.161 213.200 C 137.999 213.200,137.942 213.256,138.033 213.323 M173.422 215.900 C 175.559 219.195,176.124 220.000,176.299 220.000 C 176.405 220.000,176.171 219.505,175.778 218.900 C 173.641 215.605,173.076 214.800,172.901 214.800 C 172.795 214.800,173.029 215.295,173.422 215.900 M351.214 215.822 C 351.230 216.224,353.195 218.755,353.198 218.378 C 353.199 218.255,352.750 217.545,352.200 216.800 C 351.650 216.055,351.206 215.615,351.214 215.822 M307.400 217.810 C 308.615 218.795,309.755 219.374,309.423 218.837 C 309.272 218.594,308.576 218.117,307.875 217.778 C 306.691 217.206,306.657 217.208,307.400 217.810 M353.600 219.089 C 353.600 219.321,353.971 219.936,354.424 220.456 L 355.247 221.400 354.545 220.200 C 353.620 218.621,353.600 218.597,353.600 219.089 M146.604 221.000 C 148.207 223.226,148.650 223.639,147.757 222.073 C 147.341 221.343,146.652 220.443,146.226 220.073 C 145.776 219.682,145.934 220.069,146.604 221.000 M313.600 221.725 C 313.600 221.824,314.261 222.409,315.068 223.025 C 315.876 223.641,316.411 223.941,316.256 223.691 C 315.940 223.179,313.600 221.447,313.600 221.725 M355.200 221.650 C 355.200 221.998,356.437 224.400,356.617 224.400 C 356.704 224.400,356.661 224.085,356.521 223.700 C 356.233 222.906,355.200 221.303,355.200 221.650 M320.850 227.801 C 322.088 229.120,323.753 231.188,324.550 232.395 C 325.348 233.602,326.000 234.447,326.000 234.273 C 326.000 233.540,322.715 229.251,320.737 227.401 L 318.600 225.402 320.850 227.801 M151.656 231.200 C 151.656 231.530,151.811 232.160,152.000 232.600 C 152.217 233.104,152.344 233.178,152.344 232.800 C 152.344 232.470,152.189 231.840,152.000 231.400 C 151.783 230.896,151.656 230.822,151.656 231.200 M152.662 235.800 C 152.796 236.680,152.972 237.475,153.053 237.567 C 153.356 237.910,153.129 235.768,152.781 235.000 C 152.529 234.442,152.493 234.685,152.662 235.800 M182.046 235.200 C 182.065 235.530,182.224 236.250,182.400 236.800 L 182.720 237.800 182.754 236.800 C 182.773 236.250,182.613 235.530,182.400 235.200 C 182.055 234.667,182.016 234.667,182.046 235.200 M360.880 237.800 C 360.880 238.240,361.024 239.050,361.200 239.600 C 361.454 240.392,361.520 240.433,361.520 239.800 C 361.520 239.360,361.376 238.550,361.200 238.000 C 360.946 237.208,360.880 237.167,360.880 237.800 M153.400 247.546 C 153.400 252.002,153.517 255.232,153.660 254.724 C 153.993 253.543,153.987 242.179,153.653 240.623 C 153.514 239.975,153.400 243.091,153.400 247.546 M183.328 244.000 C 183.328 245.430,183.401 246.015,183.489 245.300 C 183.578 244.585,183.578 243.415,183.489 242.700 C 183.401 241.985,183.328 242.570,183.328 244.000 M361.693 243.400 C 361.690 244.280,361.821 246.080,361.985 247.400 L 362.282 249.800 362.312 247.600 C 362.328 246.390,362.197 244.590,362.020 243.600 L 361.700 241.800 361.693 243.400 M329.693 246.800 C 329.693 247.570,329.775 247.885,329.876 247.500 C 329.976 247.115,329.976 246.485,329.876 246.100 C 329.775 245.715,329.693 246.030,329.693 246.800 M330.120 250.800 C 330.120 252.010,330.195 252.505,330.287 251.900 C 330.378 251.295,330.378 250.305,330.287 249.700 C 330.195 249.095,330.120 249.590,330.120 250.800 M183.275 252.200 C 183.229 253.740,183.106 255.720,183.002 256.600 L 182.812 258.200 183.221 256.600 C 183.446 255.720,183.569 253.740,183.495 252.200 L 183.359 249.400 183.275 252.200 M361.862 256.342 C 361.691 258.841,361.635 260.968,361.736 261.070 C 361.994 261.327,362.515 254.016,362.327 252.796 C 362.242 252.248,362.033 253.844,361.862 256.342 M330.124 257.000 C 330.126 258.320,330.201 258.812,330.290 258.093 C 330.379 257.374,330.377 256.294,330.286 255.693 C 330.195 255.092,330.122 255.680,330.124 257.000 M152.650 259.250 C 152.317 260.917,152.640 261.240,153.000 259.600 C 153.152 258.909,153.193 258.259,153.091 258.158 C 152.989 258.056,152.791 258.547,152.650 259.250 M182.222 261.422 C 182.072 262.225,182.038 262.972,182.148 263.082 C 182.258 263.192,182.472 262.625,182.622 261.822 C 182.773 261.019,182.806 260.273,182.696 260.163 C 182.586 260.053,182.373 260.619,182.222 261.422 M329.709 261.600 C 329.709 262.590,329.787 262.995,329.882 262.500 C 329.978 262.005,329.978 261.195,329.882 260.700 C 329.787 260.205,329.709 260.610,329.709 261.600 M151.849 262.615 C 151.712 262.973,151.615 263.566,151.634 263.933 C 151.653 264.300,151.827 264.069,152.021 263.420 C 152.398 262.158,152.265 261.533,151.849 262.615 M360.982 264.982 C 360.829 266.002,360.794 266.927,360.904 267.037 C 361.014 267.147,361.229 266.402,361.382 265.382 C 361.535 264.361,361.570 263.437,361.460 263.327 C 361.350 263.217,361.135 263.961,360.982 264.982 M181.429 265.429 C 181.281 266.015,181.238 266.572,181.332 266.666 C 181.427 266.760,181.624 266.358,181.771 265.771 C 181.919 265.185,181.962 264.628,181.868 264.534 C 181.773 264.440,181.576 264.842,181.429 265.429 M328.846 266.067 C 328.821 266.434,328.696 267.064,328.570 267.467 C 328.352 268.162,328.363 268.163,328.797 267.487 C 329.048 267.096,329.173 266.466,329.073 266.087 C 328.911 265.468,328.888 265.466,328.846 266.067 M327.539 270.413 C 327.175 271.506,326.947 272.400,327.033 272.400 C 327.332 272.400,328.427 269.434,328.314 268.931 C 328.251 268.653,327.902 269.320,327.539 270.413 M360.249 269.015 C 360.112 269.373,360.018 270.056,360.041 270.533 C 360.067 271.081,360.203 270.886,360.410 270.003 C 360.760 268.516,360.665 267.933,360.249 269.015 M148.162 272.100 C 147.800 272.815,147.210 273.757,146.852 274.193 C 146.235 274.943,146.240 274.955,146.929 274.420 C 147.641 273.867,149.411 270.800,149.018 270.800 C 148.910 270.800,148.524 271.385,148.162 272.100 M235.344 275.509 C 235.660 276.021,238.000 277.753,238.000 277.475 C 238.000 277.376,237.339 276.791,236.532 276.175 C 235.724 275.559,235.189 275.259,235.344 275.509 M324.200 277.600 C 323.859 278.260,323.669 278.800,323.779 278.800 C 323.889 278.800,324.259 278.260,324.600 277.600 C 324.941 276.940,325.131 276.400,325.021 276.400 C 324.911 276.400,324.541 276.940,324.200 277.600 M231.800 279.061 C 231.464 279.865,231.282 280.615,231.395 280.728 C 231.508 280.841,231.600 280.835,231.600 280.716 C 231.600 280.596,231.872 279.846,232.205 279.049 C 232.538 278.252,232.721 277.600,232.611 277.600 C 232.501 277.600,232.136 278.258,231.800 279.061 M239.470 278.683 C 240.168 279.297,241.338 280.141,242.070 280.557 C 243.877 281.585,243.074 280.862,240.400 279.054 C 238.810 277.979,238.552 277.876,239.470 278.683 M141.170 280.268 L 140.200 281.336 141.287 280.568 C 141.886 280.146,142.381 279.665,142.387 279.500 C 142.408 279.007,142.189 279.146,141.170 280.268 M356.790 280.600 C 356.576 281.150,356.209 282.095,355.975 282.700 C 355.741 283.305,355.714 283.620,355.915 283.400 C 356.386 282.883,357.658 279.600,357.387 279.600 C 357.273 279.600,357.005 280.050,356.790 280.600 M319.627 283.709 C 318.155 285.396,317.941 285.748,318.962 284.800 C 320.304 283.554,322.260 281.185,321.927 281.209 C 321.857 281.214,320.822 282.339,319.627 283.709 M245.000 282.207 C 245.440 282.566,246.160 283.035,246.600 283.251 L 247.400 283.644 246.600 282.993 C 246.160 282.634,245.440 282.165,245.000 281.949 L 244.200 281.556 245.000 282.207 M229.579 284.255 C 229.358 284.836,229.252 285.385,229.343 285.476 C 229.433 285.567,229.699 285.092,229.933 284.420 C 230.453 282.928,230.139 282.782,229.579 284.255 M228.800 286.084 C 228.800 286.204,228.528 286.954,228.195 287.751 C 227.862 288.548,227.679 289.200,227.789 289.200 C 228.106 289.200,229.233 286.300,229.005 286.072 C 228.892 285.959,228.800 285.965,228.800 286.084 M168.600 290.216 C 166.620 292.304,165.095 294.010,165.212 294.006 C 165.421 294.000,169.131 290.209,171.383 287.700 C 173.847 284.955,172.035 286.593,168.600 290.216 M353.152 288.100 C 352.890 288.595,352.415 289.450,352.096 290.000 C 351.539 290.959,351.543 290.967,352.188 290.200 C 352.986 289.252,354.105 287.200,353.824 287.200 C 353.716 287.200,353.414 287.605,353.152 288.100 M117.800 289.600 C 116.693 289.882,116.677 289.909,117.600 289.947 C 118.150 289.969,118.870 289.813,119.200 289.600 C 119.881 289.160,119.529 289.160,117.800 289.600 M113.200 290.400 C 111.833 290.688,111.828 290.695,113.000 290.719 C 113.660 290.733,114.560 290.589,115.000 290.400 C 115.962 289.987,115.164 289.987,113.200 290.400 M106.200 291.200 L 103.800 291.466 106.000 291.493 C 107.210 291.508,108.650 291.376,109.200 291.200 C 110.414 290.811,109.713 290.811,106.200 291.200 M66.400 291.543 C 66.400 292.433,83.560 292.720,95.600 292.032 C 98.130 291.887,92.995 291.848,84.188 291.945 C 72.294 292.077,67.948 292.000,67.288 291.647 C 66.800 291.386,66.400 291.339,66.400 291.543 M350.175 292.668 C 349.559 293.476,349.259 294.011,349.509 293.856 C 350.021 293.540,351.753 291.200,351.475 291.200 C 351.376 291.200,350.791 291.861,350.175 292.668 M269.400 291.981 C 270.168 292.329,272.310 292.556,271.967 292.253 C 271.875 292.172,271.080 291.996,270.200 291.862 C 269.085 291.693,268.842 291.729,269.400 291.981 M273.200 292.800 C 273.530 293.013,274.250 293.173,274.800 293.154 L 275.800 293.120 274.800 292.800 C 273.258 292.306,272.436 292.306,273.200 292.800 M303.800 292.800 C 303.029 293.131,303.031 293.145,303.876 293.172 C 304.358 293.187,304.864 293.020,305.000 292.800 C 305.292 292.327,304.901 292.327,303.800 292.800 M300.000 293.600 C 298.633 293.888,298.628 293.895,299.800 293.919 C 300.460 293.933,301.360 293.789,301.800 293.600 C 302.762 293.187,301.964 293.187,300.000 293.600 M280.105 293.887 C 280.714 293.979,281.614 293.977,282.105 293.882 C 282.597 293.787,282.100 293.711,281.000 293.714 C 279.900 293.717,279.497 293.795,280.105 293.887 M285.300 294.291 C 286.125 294.378,287.475 294.378,288.300 294.291 C 289.125 294.205,288.450 294.134,286.800 294.134 C 285.150 294.134,284.475 294.205,285.300 294.291 M294.500 294.287 C 295.105 294.378,296.095 294.378,296.700 294.287 C 297.305 294.195,296.810 294.120,295.600 294.120 C 294.390 294.120,293.895 294.195,294.500 294.287 M291.105 294.683 C 291.602 294.779,292.322 294.775,292.705 294.675 C 293.087 294.575,292.680 294.496,291.800 294.501 C 290.920 294.505,290.607 294.587,291.105 294.683 M346.024 297.722 C 343.422 300.589,343.338 300.724,345.355 298.800 C 347.325 296.922,349.540 294.351,349.127 294.422 C 349.057 294.434,347.661 295.919,346.024 297.722 M155.500 300.629 C 154.005 301.440,154.096 301.778,155.600 301.000 C 156.260 300.659,156.800 300.294,156.800 300.190 C 156.800 299.932,156.757 299.947,155.500 300.629 M224.600 300.607 C 225.040 300.966,225.760 301.435,226.200 301.651 L 227.000 302.044 226.200 301.393 C 225.760 301.034,225.040 300.565,224.600 300.349 L 223.800 299.956 224.600 300.607 M228.800 303.164 C 229.350 303.614,229.980 303.983,230.200 303.985 C 230.628 303.988,229.905 303.434,228.600 302.760 C 228.069 302.485,228.136 302.621,228.800 303.164 M337.400 305.050 C 336.681 305.662,336.534 305.905,337.033 305.657 C 337.766 305.293,339.141 303.976,338.749 304.014 C 338.667 304.022,338.060 304.488,337.400 305.050 M146.800 305.000 C 146.250 305.314,145.980 305.572,146.200 305.572 C 146.420 305.572,147.050 305.314,147.600 305.000 C 148.150 304.686,148.420 304.428,148.200 304.428 C 147.980 304.428,147.350 304.686,146.800 305.000 M129.400 310.400 C 128.381 310.838,129.432 310.838,130.800 310.400 C 131.604 310.143,131.643 310.077,131.000 310.068 C 130.560 310.062,129.840 310.211,129.400 310.400 M125.000 311.200 C 123.981 311.638,125.032 311.638,126.400 311.200 C 127.204 310.943,127.243 310.877,126.600 310.868 C 126.160 310.862,125.440 311.011,125.000 311.200 M120.200 312.000 L 119.400 312.344 120.200 312.325 C 120.640 312.314,121.540 312.168,122.200 312.000 L 123.400 311.695 122.200 311.675 C 121.540 311.665,120.640 311.811,120.200 312.000 M113.600 312.800 L 112.600 313.120 113.600 313.113 C 114.150 313.109,115.140 312.968,115.800 312.800 L 117.000 312.495 115.800 312.487 C 115.140 312.483,114.150 312.624,113.600 312.800 M101.600 313.600 L 98.200 313.851 101.200 313.879 C 102.850 313.894,105.370 313.775,106.800 313.614 L 109.400 313.322 107.200 313.336 C 105.990 313.343,103.470 313.462,101.600 313.600 M254.033 313.344 C 254.125 313.423,254.740 313.608,255.400 313.756 C 256.276 313.952,256.438 313.915,256.000 313.618 C 255.460 313.253,253.632 312.998,254.033 313.344 M258.400 314.400 C 259.768 314.838,260.819 314.838,259.800 314.400 C 259.360 314.211,258.640 314.062,258.200 314.068 C 257.557 314.077,257.596 314.143,258.400 314.400 M262.200 315.200 C 262.640 315.389,263.360 315.538,263.800 315.532 C 264.443 315.523,264.404 315.457,263.600 315.200 C 262.232 314.762,261.181 314.762,262.200 315.200 M313.800 315.200 C 313.296 315.417,313.222 315.544,313.600 315.544 C 313.930 315.544,314.560 315.389,315.000 315.200 C 315.504 314.983,315.578 314.856,315.200 314.856 C 314.870 314.856,314.240 315.011,313.800 315.200 M267.000 316.000 C 268.692 316.431,270.144 316.431,268.800 316.000 C 268.250 315.824,267.350 315.683,266.800 315.687 C 265.902 315.694,265.922 315.726,267.000 316.000 M309.800 316.000 C 308.781 316.438,309.832 316.438,311.200 316.000 C 312.004 315.743,312.043 315.677,311.400 315.668 C 310.960 315.662,310.240 315.811,309.800 316.000 M271.905 316.683 C 272.402 316.779,273.122 316.775,273.505 316.675 C 273.887 316.575,273.480 316.496,272.600 316.501 C 271.720 316.505,271.407 316.587,271.905 316.683 M275.100 317.082 C 275.595 317.178,276.405 317.178,276.900 317.082 C 277.395 316.987,276.990 316.909,276.000 316.909 C 275.010 316.909,274.605 316.987,275.100 317.082 M303.505 317.083 C 304.002 317.179,304.722 317.175,305.105 317.075 C 305.487 316.975,305.080 316.896,304.200 316.901 C 303.320 316.905,303.007 316.987,303.505 317.083 M281.511 317.493 C 282.451 317.578,283.891 317.577,284.711 317.491 C 285.530 317.405,284.760 317.336,283.000 317.337 C 281.240 317.339,280.570 317.409,281.511 317.493 M291.000 317.600 L 286.200 317.839 290.600 317.870 C 293.020 317.887,296.260 317.771,297.800 317.613 L 300.600 317.326 298.200 317.343 C 296.880 317.353,293.640 317.469,291.000 317.600 " stroke="none" fill="#747474" fill-rule="evenodd"></path></g></svg>