<svg xmlns="http://www.w3.org/2000/svg"><path d="M2156,983L2381,899L2055,782Z" fill="#c3c6c5" stroke="#c3c6c5" stroke-width="1.51"/><path d="M2381,899L2217,557L2055,782Z" fill="#c7cac8" stroke="#c7cac8" stroke-width="1.51"/><path d="M2381,899L2422,631L2217,557Z" fill="#c8cbc9" stroke="#c8cbc9" stroke-width="1.51"/><path d="M2496,794L2422,631L2381,899Z" fill="#c6c9c7" stroke="#c6c9c7" stroke-width="1.51"/><path d="M2381,899L2592,922L2496,794Z" fill="#c3c6c4" stroke="#c3c6c4" stroke-width="1.51"/><path d="M2496,794L2632,485L2422,631Z" fill="#c9ccc9" stroke="#c9ccc9" stroke-width="1.51"/><path d="M2673,1203L2592,922L2381,899Z" fill="#bfc2c1" stroke="#bfc2c1" stroke-width="1.51"/><path d="M2217,557L1977,467L2055,782Z" fill="#cccfcd" stroke="#cccfcd" stroke-width="1.51"/><path d="M2095,215L1977,467L2217,557Z" fill="#d1d3d0" stroke="#d1d3d0" stroke-width="1.51"/><path d="M1977,467L1823,624L2055,782Z" fill="#cdd0ce" stroke="#cdd0ce" stroke-width="1.51"/><path d="M1734,1051L1946,1222L2156,983Z" fill="#c2c4c3" stroke="#c2c4c3" stroke-width="1.51"/><path d="M1977,467L1840,548L1823,624Z" fill="#d0d4d0" stroke="#d0d4d0" stroke-width="1.51"/><path d="M2156,983L2318,1333L2381,899Z" fill="#bfc1c0" stroke="#bfc1c0" stroke-width="1.51"/><path d="M1734,1051L2156,983L2055,782Z" fill="#c5c8c6" stroke="#c5c8c6" stroke-width="1.51"/><path d="M1946,1222L2318,1333L2156,983Z" fill="#bec0bf" stroke="#bec0bf" stroke-width="1.51"/><path d="M2422,631L2371,167L2217,557Z" fill="#ced0ce" stroke="#ced0ce" stroke-width="1.51"/><path d="M2866,701L2632,485L2496,794Z" fill="#c8cbc8" stroke="#c8cbc8" stroke-width="1.51"/><path d="M1823,624L1734,1051L2055,782Z" fill="#cacdcb" stroke="#cacdcb" stroke-width="1.51"/><path d="M2318,1333L2673,1203L2381,899Z" fill="#bcbebe" stroke="#bcbebe" stroke-width="1.51"/><path d="M2866,701L2758,448L2632,485Z" fill="#cacecb" stroke="#cacecb" stroke-width="1.51"/><path d="M2371,167L2095,215L2217,557Z" fill="#d2d3d1" stroke="#d2d3d1" stroke-width="1.51"/><path d="M1977,467L1696,280L1840,548Z" fill="#d4d6d3" stroke="#d4d6d3" stroke-width="1.51"/><path d="M2318,1333L2377,1436L2673,1203Z" fill="#bcbebd" stroke="#bcbebd" stroke-width="1.51"/><path d="M1974,1600L2377,1436L2318,1333Z" fill="#bbbdbd" stroke="#bbbdbd" stroke-width="1.51"/><path d="M2632,485L2371,167L2422,631Z" fill="#ced0ce" stroke="#ced0ce" stroke-width="1.51"/><path d="M2866,701L2496,794L2592,922Z" fill="#c5c8c5" stroke="#c5c8c5" stroke-width="1.51"/><path d="M2863,1090L2866,701L2592,922Z" fill="#c1c4c3" stroke="#c1c4c3" stroke-width="1.51"/><path d="M2685,267L2371,167L2632,485Z" fill="#d1d2d0" stroke="#d1d2d0" stroke-width="1.51"/><path d="M1734,1051L1692,1234L1946,1222Z" fill="#c2c5c4" stroke="#c2c5c4" stroke-width="1.51"/><path d="M1946,1222L1974,1600L2318,1333Z" fill="#bdc0bf" stroke="#bdc0bf" stroke-width="1.51"/><path d="M1619,1190L1692,1234L1734,1051Z" fill="#c4c7c5" stroke="#c4c7c5" stroke-width="1.51"/><path d="M2673,1203L2863,1090L2592,922Z" fill="#bdc0bf" stroke="#bdc0bf" stroke-width="1.51"/><path d="M2787,1249L2863,1090L2673,1203Z" fill="#bbbdbd" stroke="#bbbdbd" stroke-width="1.51"/><path d="M2518,1596L2787,1249L2673,1203Z" fill="#babdbc" stroke="#babdbc" stroke-width="1.51"/><path d="M1467,898L1734,1051L1461,767Z" fill="#cbcfcd" stroke="#cbcfcd" stroke-width="1.51"/><path d="M1467,898L1619,1190L1734,1051Z" fill="#c7cbc9" stroke="#c7cbc9" stroke-width="1.51"/><path d="M2758,448L2685,267L2632,485Z" fill="#ced0ce" stroke="#ced0ce" stroke-width="1.51"/><path d="M2795,122L2685,267L2758,448Z" fill="#d1d2d0" stroke="#d1d2d0" stroke-width="1.51"/><path d="M1512,443L1461,767L1823,624Z" fill="#d2d6d2" stroke="#d2d6d2" stroke-width="1.51"/><path d="M2095,215L1696,280L1977,467Z" fill="#d5d7d4" stroke="#d5d7d4" stroke-width="1.51"/><path d="M1724,-117L1696,280L2095,215Z" fill="#dddedc" stroke="#dddedc" stroke-width="1.51"/><path d="M1461,767L1734,1051L1823,624Z" fill="#ccd0cd" stroke="#ccd0cd" stroke-width="1.51"/><path d="M1512,443L1823,624L1840,548Z" fill="#d3d6d2" stroke="#d3d6d2" stroke-width="1.51"/><path d="M3024,955L3027,737L2866,701Z" fill="#c2c6c3" stroke="#c2c6c3" stroke-width="1.51"/><path d="M2866,701L3185,505L2758,448Z" fill="#c8ccc9" stroke="#c8ccc9" stroke-width="1.51"/><path d="M1696,280L1512,443L1840,548Z" fill="#d6d9d5" stroke="#d6d9d5" stroke-width="1.51"/><path d="M2863,1090L3024,955L2866,701Z" fill="#c0c3c1" stroke="#c0c3c1" stroke-width="1.51"/><path d="M3218,1297L3024,955L2863,1090Z" fill="#babcbb" stroke="#babcbb" stroke-width="1.51"/><path d="M1705,1513L1946,1222L1692,1234Z" fill="#c1c5c3" stroke="#c1c5c3" stroke-width="1.51"/><path d="M1705,1513L1974,1600L1946,1222Z" fill="#bfc2c1" stroke="#bfc2c1" stroke-width="1.51"/><path d="M2377,1436L2518,1596L2673,1203Z" fill="#babdbc" stroke="#babdbc" stroke-width="1.51"/><path d="M2787,1249L3218,1297L2863,1090Z" fill="#b9bcbb" stroke="#b9bcbb" stroke-width="1.51"/><path d="M2335,1783L2518,1596L2377,1436Z" fill="#b8bab9" stroke="#b8bab9" stroke-width="1.51"/><path d="M2371,167L2136,-17L2095,215Z" fill="#d8d9d8" stroke="#d8d9d8" stroke-width="1.51"/><path d="M2360,-165L2136,-17L2371,167Z" fill="#dbdddc" stroke="#dbdddc" stroke-width="1.51"/><path d="M1500,1534L1692,1234L1619,1190Z" fill="#c4c7c5" stroke="#c4c7c5" stroke-width="1.51"/><path d="M1500,1534L1705,1513L1692,1234Z" fill="#c3c6c4" stroke="#c3c6c4" stroke-width="1.51"/><path d="M2685,267L2795,122L2371,167Z" fill="#d5d6d4" stroke="#d5d6d4" stroke-width="1.51"/><path d="M3185,505L2795,122L2758,448Z" fill="#cdcfcd" stroke="#cdcfcd" stroke-width="1.51"/><path d="M1696,280L1562,205L1512,443Z" fill="#dadcd8" stroke="#dadcd8" stroke-width="1.51"/><path d="M1724,-117L1562,205L1696,280Z" fill="#dfe1df" stroke="#dfe1df" stroke-width="1.51"/><path d="M1467,898L1290,1246L1619,1190Z" fill="#c8cbc9" stroke="#c8cbc9" stroke-width="1.51"/><path d="M1461,767L1304,917L1467,898Z" fill="#cfd3cf" stroke="#cfd3cf" stroke-width="1.51"/><path d="M1195,837L1304,917L1461,767Z" fill="#d0d4d1" stroke="#d0d4d1" stroke-width="1.51"/><path d="M1329,487L1461,767L1512,443Z" fill="#d5d9d5" stroke="#d5d9d5" stroke-width="1.51"/><path d="M2518,1596L2901,1462L2787,1249Z" fill="#babdbc" stroke="#babdbc" stroke-width="1.51"/><path d="M1562,205L1329,487L1512,443Z" fill="#daddd8" stroke="#daddd8" stroke-width="1.51"/><path d="M2518,1596L2658,1793L2901,1462Z" fill="#b6b9b8" stroke="#b6b9b8" stroke-width="1.51"/><path d="M1974,1600L2335,1783L2377,1436Z" fill="#b8bbba" stroke="#b8bbba" stroke-width="1.51"/><path d="M2151,1906L2335,1783L1974,1600Z" fill="#b4b6b6" stroke="#b4b6b6" stroke-width="1.51"/><path d="M2583,-178L2360,-165L2371,167Z" fill="#dbdcdc" stroke="#dbdcdc" stroke-width="1.51"/><path d="M2136,-17L1724,-117L2095,215Z" fill="#dedfde" stroke="#dedfde" stroke-width="1.51"/><path d="M3027,737L3185,505L2866,701Z" fill="#c5c9c6" stroke="#c5c9c6" stroke-width="1.51"/><path d="M3289,653L3185,505L3027,737Z" fill="#c4c8c4" stroke="#c4c8c4" stroke-width="1.51"/><path d="M3289,653L3027,737L3024,955Z" fill="#c1c5c2" stroke="#c1c5c2" stroke-width="1.51"/><path d="M1290,1246L1500,1534L1619,1190Z" fill="#c5c9c7" stroke="#c5c9c7" stroke-width="1.51"/><path d="M1705,1513L1872,1836L1974,1600Z" fill="#bcbfbd" stroke="#bcbfbd" stroke-width="1.51"/><path d="M1304,917L1290,1246L1467,898Z" fill="#cbcecc" stroke="#cbcecc" stroke-width="1.51"/><path d="M1304,917L957,972L1290,1246Z" fill="#cdd0cd" stroke="#cdd0cd" stroke-width="1.51"/><path d="M1329,487L1195,837L1461,767Z" fill="#d4d8d4" stroke="#d4d8d4" stroke-width="1.51"/><path d="M2795,122L2583,-178L2371,167Z" fill="#dadbda" stroke="#dadbda" stroke-width="1.51"/><path d="M3179,88L2780,-75L2795,122Z" fill="#d7d9d7" stroke="#d7d9d7" stroke-width="1.51"/><path d="M2335,1783L2658,1793L2518,1596Z" fill="#b5b8b6" stroke="#b5b8b6" stroke-width="1.51"/><path d="M2780,-75L2583,-178L2795,122Z" fill="#dadcdb" stroke="#dadcdb" stroke-width="1.51"/><path d="M2056,-246L1724,-117L2136,-17Z" fill="#dfe0e0" stroke="#dfe0e0" stroke-width="1.51"/><path d="M1193,105L1085,536L1329,487Z" fill="#dde0dc" stroke="#dde0dc" stroke-width="1.51"/><path d="M1465,1719L1872,1836L1705,1513Z" fill="#bec1bf" stroke="#bec1bf" stroke-width="1.51"/><path d="M2335,1783L2379,2101L2658,1793Z" fill="#acaeae" stroke="#acaeae" stroke-width="1.51"/><path d="M3185,505L3179,88L2795,122Z" fill="#cfd1cf" stroke="#cfd1cf" stroke-width="1.51"/><path d="M3489,1049L3289,653L3024,955Z" fill="#bdc0be" stroke="#bdc0be" stroke-width="1.51"/><path d="M2360,-165L2056,-246L2136,-17Z" fill="#dcdddd" stroke="#dcdddd" stroke-width="1.51"/><path d="M2218,-449L2056,-246L2360,-165Z" fill="#dcdddd" stroke="#dcdddd" stroke-width="1.51"/><path d="M1872,1836L2151,1906L1974,1600Z" fill="#b5b8b7" stroke="#b5b8b7" stroke-width="1.51"/><path d="M1724,-117L1598,-78L1562,205Z" fill="#e3e5e4" stroke="#e3e5e4" stroke-width="1.51"/><path d="M1282,-40L1598,-78L1448,-389Z" fill="#e6e8e6" stroke="#e6e8e6" stroke-width="1.51"/><path d="M2901,1462L3218,1297L2787,1249Z" fill="#b8bbba" stroke="#b8bbba" stroke-width="1.51"/><path d="M3229,1493L3218,1297L2901,1462Z" fill="#b6b9b8" stroke="#b6b9b8" stroke-width="1.51"/><path d="M2658,1793L2916,1759L2901,1462Z" fill="#b4b7b6" stroke="#b4b7b6" stroke-width="1.51"/><path d="M2651,2093L2916,1759L2658,1793Z" fill="#abaead" stroke="#abaead" stroke-width="1.51"/><path d="M1195,1575L1465,1719L1500,1534Z" fill="#c3c7c4" stroke="#c3c7c4" stroke-width="1.51"/><path d="M1500,1534L1465,1719L1705,1513Z" fill="#c1c4c2" stroke="#c1c4c2" stroke-width="1.51"/><path d="M1329,487L1085,536L1195,837Z" fill="#d8dbd7" stroke="#d8dbd7" stroke-width="1.51"/><path d="M946,1368L1195,1575L1290,1246Z" fill="#c9cdca" stroke="#c9cdca" stroke-width="1.51"/><path d="M1193,105L1329,487L1562,205Z" fill="#dee0dc" stroke="#dee0dc" stroke-width="1.51"/><path d="M3289,653L3360,510L3185,505Z" fill="#c5c9c5" stroke="#c5c9c5" stroke-width="1.51"/><path d="M3767,644L3360,510L3289,653Z" fill="#bec2bf" stroke="#bec2bf" stroke-width="1.51"/><path d="M2681,-426L2360,-165L2583,-178Z" fill="#dbdcdc" stroke="#dbdcdc" stroke-width="1.51"/><path d="M3338,212L3179,88L3185,505Z" fill="#cdcecb" stroke="#cdcecb" stroke-width="1.51"/><path d="M3137,1707L3229,1493L2901,1462Z" fill="#b5b8b6" stroke="#b5b8b6" stroke-width="1.51"/><path d="M3218,1297L3489,1049L3024,955Z" fill="#b8bbb9" stroke="#b8bbb9" stroke-width="1.51"/><path d="M1465,1719L1797,1974L1872,1836Z" fill="#b5b9b7" stroke="#b5b9b7" stroke-width="1.51"/><path d="M1872,1836L1797,1974L2151,1906Z" fill="#afb2b0" stroke="#afb2b0" stroke-width="1.51"/><path d="M1282,-40L1193,105L1562,205Z" fill="#e4e6e4" stroke="#e4e6e4" stroke-width="1.51"/><path d="M3360,510L3338,212L3185,505Z" fill="#c9cbc8" stroke="#c9cbc8" stroke-width="1.51"/><path d="M2916,1759L3137,1707L2901,1462Z" fill="#b4b7b5" stroke="#b4b7b5" stroke-width="1.51"/><path d="M2056,-246L1684,-366L1724,-117Z" fill="#e1e3e1" stroke="#e1e3e1" stroke-width="1.51"/><path d="M1598,-78L1282,-40L1562,205Z" fill="#e4e6e5" stroke="#e4e6e5" stroke-width="1.51"/><path d="M2681,-426L2218,-449L2360,-165Z" fill="#dbdcdc" stroke="#dbdcdc" stroke-width="1.51"/><path d="M2681,-426L2583,-178L2780,-75Z" fill="#dadcdb" stroke="#dadcdb" stroke-width="1.51"/><path d="M1290,1246L1195,1575L1500,1534Z" fill="#c6cac7" stroke="#c6cac7" stroke-width="1.51"/><path d="M1465,1719L1470,2130L1797,1974Z" fill="#b2b5b3" stroke="#b2b5b3" stroke-width="1.51"/><path d="M957,972L1304,917L1195,837Z" fill="#d1d5d1" stroke="#d1d5d1" stroke-width="1.51"/><path d="M932,815L957,972L1195,837Z" fill="#d3d7d3" stroke="#d3d7d3" stroke-width="1.51"/><path d="M932,815L1195,837L1085,536Z" fill="#d6dad6" stroke="#d6dad6" stroke-width="1.51"/><path d="M1684,-366L1598,-78L1724,-117Z" fill="#e3e5e3" stroke="#e3e5e3" stroke-width="1.51"/><path d="M3422,1326L3218,1297L3364,1494Z" fill="#b4b6b6" stroke="#b4b6b6" stroke-width="1.51"/><path d="M3422,1326L3489,1049L3218,1297Z" fill="#b3b6b5" stroke="#b3b6b5" stroke-width="1.51"/><path d="M3360,510L3755,506L3338,212Z" fill="#c3c5c2" stroke="#c3c5c2" stroke-width="1.51"/><path d="M2151,1906L2379,2101L2335,1783Z" fill="#aaacab" stroke="#aaacab" stroke-width="1.51"/><path d="M2916,1759L3084,2015L3137,1707Z" fill="#abaead" stroke="#abaead" stroke-width="1.51"/><path d="M2110,2162L2379,2101L2151,1906Z" fill="#a6a8a8" stroke="#a6a8a8" stroke-width="1.51"/><path d="M777,528L932,815L1085,536Z" fill="#daded9" stroke="#daded9" stroke-width="1.51"/><path d="M3364,1494L3218,1297L3229,1493Z" fill="#b5b8b6" stroke="#b5b8b6" stroke-width="1.51"/><path d="M2218,-449L1684,-366L2056,-246Z" fill="#dfe0df" stroke="#dfe0df" stroke-width="1.51"/><path d="M3434,1702L3364,1494L3229,1493Z" fill="#b1b4b2" stroke="#b1b4b2" stroke-width="1.51"/><path d="M2884,-393L2681,-426L2780,-75Z" fill="#dadbdb" stroke="#dadbdb" stroke-width="1.51"/><path d="M3138,-153L2780,-75L3179,88Z" fill="#d7d9d8" stroke="#d7d9d8" stroke-width="1.51"/><path d="M3441,-154L3138,-153L3179,88Z" fill="#d5d7d6" stroke="#d5d7d6" stroke-width="1.51"/><path d="M2379,2101L2651,2093L2658,1793Z" fill="#a5a8a7" stroke="#a5a8a7" stroke-width="1.51"/><path d="M1797,1974L2110,2162L2151,1906Z" fill="#a9abaa" stroke="#a9abaa" stroke-width="1.51"/><path d="M2379,2101L2508,2260L2651,2093Z" fill="#a5a8a7" stroke="#a5a8a7" stroke-width="1.51"/><path d="M3138,-153L2884,-393L2780,-75Z" fill="#d9dad9" stroke="#d9dad9" stroke-width="1.51"/><path d="M792,1181L946,1368L957,972Z" fill="#ced0ce" stroke="#ced0ce" stroke-width="1.51"/><path d="M957,972L946,1368L1290,1246Z" fill="#cbcfcc" stroke="#cbcfcc" stroke-width="1.51"/><path d="M931,1790L1196,1803L1195,1575Z" fill="#c4c8c4" stroke="#c4c8c4" stroke-width="1.51"/><path d="M1195,1575L1196,1803L1465,1719Z" fill="#c3c6c3" stroke="#c3c6c3" stroke-width="1.51"/><path d="M1797,1974L1791,2315L2110,2162Z" fill="#aaadac" stroke="#aaadac" stroke-width="1.51"/><path d="M3647,1198L3489,1049L3422,1326Z" fill="#afb2b1" stroke="#afb2b1" stroke-width="1.51"/><path d="M3647,1198L3640,1022L3489,1049Z" fill="#afb1b1" stroke="#afb1b1" stroke-width="1.51"/><path d="M3489,1049L3640,1022L3289,653Z" fill="#b7bab8" stroke="#b7bab8" stroke-width="1.51"/><path d="M946,1368L959,1507L1195,1575Z" fill="#cacdca" stroke="#cacdca" stroke-width="1.51"/><path d="M1684,-366L1448,-389L1598,-78Z" fill="#e4e6e5" stroke="#e4e6e5" stroke-width="1.51"/><path d="M884,137L1085,536L1193,105Z" fill="#e2e4e0" stroke="#e2e4e0" stroke-width="1.51"/><path d="M2218,-449L1448,-389L1684,-366Z" fill="#e1e3e2" stroke="#e1e3e2" stroke-width="1.51"/><path d="M2262,2419L2508,2260L2379,2101Z" fill="#a6a8a8" stroke="#a6a8a8" stroke-width="1.51"/><path d="M2908,2164L3084,2015L2916,1759Z" fill="#a4a6a5" stroke="#a4a6a5" stroke-width="1.51"/><path d="M3137,1707L3434,1702L3229,1493Z" fill="#b1b4b2" stroke="#b1b4b2" stroke-width="1.51"/><path d="M3715,1485L3647,1198L3422,1326Z" fill="#acafae" stroke="#acafae" stroke-width="1.51"/><path d="M2908,2164L2916,1759L2651,2093Z" fill="#a4a6a6" stroke="#a4a6a6" stroke-width="1.51"/><path d="M3715,1485L3422,1326L3364,1494Z" fill="#afb1b0" stroke="#afb1b0" stroke-width="1.51"/><path d="M749,1073L792,1181L957,972Z" fill="#d1d3d0" stroke="#d1d3d0" stroke-width="1.51"/><path d="M946,1368L808,1482L959,1507Z" fill="#cccfcc" stroke="#cccfcc" stroke-width="1.51"/><path d="M741,786L957,972L932,815Z" fill="#d6d9d5" stroke="#d6d9d5" stroke-width="1.51"/><path d="M884,137L777,528L1085,536Z" fill="#e0e2de" stroke="#e0e2de" stroke-width="1.51"/><path d="M950,23L1193,105L1282,-40Z" fill="#e9ebe8" stroke="#e9ebe8" stroke-width="1.51"/><path d="M777,528L741,786L932,815Z" fill="#daddd9" stroke="#daddd9" stroke-width="1.51"/><path d="M3084,2015L3434,1702L3137,1707Z" fill="#abaeac" stroke="#abaeac" stroke-width="1.51"/><path d="M741,786L749,1073L957,972Z" fill="#d4d7d4" stroke="#d4d7d4" stroke-width="1.51"/><path d="M1207,-321L950,23L1282,-40Z" fill="#eaece9" stroke="#eaece9" stroke-width="1.51"/><path d="M2943,2262L2908,2164L2651,2093Z" fill="#a4a6a6" stroke="#a4a6a6" stroke-width="1.51"/><path d="M950,23L884,137L1193,105Z" fill="#e8eae7" stroke="#e8eae7" stroke-width="1.51"/><path d="M1196,1803L1470,2130L1465,1719Z" fill="#b8bbb8" stroke="#b8bbb8" stroke-width="1.51"/><path d="M2110,2162L2262,2419L2379,2101Z" fill="#a6a8a8" stroke="#a6a8a8" stroke-width="1.51"/><path d="M1448,-389L1207,-321L1282,-40Z" fill="#e7e9e7" stroke="#e7e9e7" stroke-width="1.51"/><path d="M3138,-153L3215,-363L2884,-393Z" fill="#d7d8d7" stroke="#d7d8d7" stroke-width="1.51"/><path d="M2884,-393L3215,-363L2681,-426Z" fill="#d9dad9" stroke="#d9dad9" stroke-width="1.51"/><path d="M3376,-302L3215,-363L3138,-153Z" fill="#d5d7d6" stroke="#d5d7d6" stroke-width="1.51"/><path d="M3441,-154L3179,88L3338,212Z" fill="#d2d4d2" stroke="#d2d4d2" stroke-width="1.51"/><path d="M3640,1022L3767,644L3289,653Z" fill="#b8bbb9" stroke="#b8bbb9" stroke-width="1.51"/><path d="M3876,1063L3767,644L3640,1022Z" fill="#afb2b0" stroke="#afb2b0" stroke-width="1.51"/><path d="M1470,2130L1791,2315L1797,1974Z" fill="#adb0af" stroke="#adb0af" stroke-width="1.51"/><path d="M3739,128L3441,-154L3338,212Z" fill="#cccecd" stroke="#cccecd" stroke-width="1.51"/><path d="M1196,1803L1324,2147L1470,2130Z" fill="#b1b4b2" stroke="#b1b4b2" stroke-width="1.51"/><path d="M959,1507L931,1790L1195,1575Z" fill="#c7cac7" stroke="#c7cac7" stroke-width="1.51"/><path d="M792,1181L808,1482L946,1368Z" fill="#cdd0cd" stroke="#cdd0cd" stroke-width="1.51"/><path d="M355,1282L808,1482L792,1181Z" fill="#d0d2cf" stroke="#d0d2cf" stroke-width="1.51"/><path d="M3767,644L3755,506L3360,510Z" fill="#bbbebc" stroke="#bbbebc" stroke-width="1.51"/><path d="M1791,2315L1954,2376L2110,2162Z" fill="#aaacab" stroke="#aaacab" stroke-width="1.51"/><path d="M1954,2376L2262,2419L2110,2162Z" fill="#a7aaa9" stroke="#a7aaa9" stroke-width="1.51"/><path d="M2508,2260L2943,2262L2651,2093Z" fill="#a5a7a7" stroke="#a5a7a7" stroke-width="1.51"/><path d="M1791,2315L1460,2367L1954,2376Z" fill="#adafae" stroke="#adafae" stroke-width="1.51"/><path d="M1470,2130L1460,2367L1791,2315Z" fill="#aeb1b0" stroke="#aeb1b0" stroke-width="1.51"/><path d="M989,2174L1324,2147L1196,1803Z" fill="#b3b6b4" stroke="#b3b6b4" stroke-width="1.51"/><path d="M2262,2419L2943,2262L2508,2260Z" fill="#a5a8a7" stroke="#a5a8a7" stroke-width="1.51"/><path d="M2908,2164L2943,2262L3084,2015Z" fill="#a3a5a4" stroke="#a3a5a4" stroke-width="1.51"/><path d="M3467,2077L3633,1730L3434,1702Z" fill="#a3a5a4" stroke="#a3a5a4" stroke-width="1.51"/><path d="M3441,-154L3376,-302L3138,-153Z" fill="#d4d5d4" stroke="#d4d5d4" stroke-width="1.51"/><path d="M3584,-361L3376,-302L3441,-154Z" fill="#d0d1d0" stroke="#d0d1d0" stroke-width="1.51"/><path d="M808,1482L931,1790L959,1507Z" fill="#c9ccc9" stroke="#c9ccc9" stroke-width="1.51"/><path d="M3647,1198L3876,1063L3640,1022Z" fill="#abadad" stroke="#abadad" stroke-width="1.51"/><path d="M3434,1702L3715,1485L3364,1494Z" fill="#acafae" stroke="#acafae" stroke-width="1.51"/><path d="M3633,1730L3715,1485L3434,1702Z" fill="#a8abaa" stroke="#a8abaa" stroke-width="1.51"/><path d="M3755,506L3739,128L3338,212Z" fill="#c2c3c1" stroke="#c2c3c1" stroke-width="1.51"/><path d="M3918,439L3739,128L3755,506Z" fill="#babcba" stroke="#babcba" stroke-width="1.51"/><path d="M3767,644L3918,439L3755,506Z" fill="#b6b9b6" stroke="#b6b9b6" stroke-width="1.51"/><path d="M4006,1171L3876,1063L3647,1198Z" fill="#a6a8a8" stroke="#a6a8a8" stroke-width="1.51"/><path d="M3715,1485L3863,1439L3647,1198Z" fill="#a8aaaa" stroke="#a8aaaa" stroke-width="1.51"/><path d="M3467,2077L3434,1702L3084,2015Z" fill="#a3a5a4" stroke="#a3a5a4" stroke-width="1.51"/><path d="M749,1073L355,1282L792,1181Z" fill="#d1d2d0" stroke="#d1d2d0" stroke-width="1.51"/><path d="M773,2101L989,2174L931,1790Z" fill="#b7b9b7" stroke="#b7b9b7" stroke-width="1.51"/><path d="M741,786L525,825L749,1073Z" fill="#d7dad6" stroke="#d7dad6" stroke-width="1.51"/><path d="M777,528L525,825L741,786Z" fill="#dcdeda" stroke="#dcdeda" stroke-width="1.51"/><path d="M429,473L525,825L777,528Z" fill="#dfe1dd" stroke="#dfe1dd" stroke-width="1.51"/><path d="M884,137L603,170L777,528Z" fill="#e5e6e2" stroke="#e5e6e2" stroke-width="1.51"/><path d="M950,23L793,-117L884,137Z" fill="#edeeeb" stroke="#edeeeb" stroke-width="1.51"/><path d="M978,-361L793,-117L950,23Z" fill="#edeeec" stroke="#edeeec" stroke-width="1.51"/><path d="M1207,-321L978,-361L950,23Z" fill="#ebedea" stroke="#ebedea" stroke-width="1.51"/><path d="M1448,-389L978,-361L1207,-321Z" fill="#e9ebe8" stroke="#e9ebe8" stroke-width="1.51"/><path d="M787,-445L978,-361L1448,-389Z" fill="#ebecea" stroke="#ebecea" stroke-width="1.51"/><path d="M1324,2147L1460,2367L1470,2130Z" fill="#b0b3b1" stroke="#b0b3b1" stroke-width="1.51"/><path d="M1954,2376L1259,2444L2262,2419Z" fill="#abaead" stroke="#abaead" stroke-width="1.51"/><path d="M1259,2444L1460,2367L1324,2147Z" fill="#b1b4b2" stroke="#b1b4b2" stroke-width="1.51"/><path d="M4006,660L3918,439L3767,644Z" fill="#b4b7b5" stroke="#b4b7b5" stroke-width="1.51"/><path d="M793,-117L603,170L884,137Z" fill="#ededeb" stroke="#ededeb" stroke-width="1.51"/><path d="M3989,-70L3687,-137L3739,128Z" fill="#c5c6c6" stroke="#c5c6c6" stroke-width="1.51"/><path d="M3739,128L3687,-137L3441,-154Z" fill="#cbcccc" stroke="#cbcccc" stroke-width="1.51"/><path d="M3875,1731L3863,1439L3715,1485Z" fill="#a3a6a5" stroke="#a3a6a5" stroke-width="1.51"/><path d="M3876,1063L4006,660L3767,644Z" fill="#afb2b0" stroke="#afb2b0" stroke-width="1.51"/><path d="M3170,2321L3467,2077L3084,2015Z" fill="#a0a3a2" stroke="#a0a3a2" stroke-width="1.51"/><path d="M3633,1730L3875,1731L3715,1485Z" fill="#a4a6a6" stroke="#a4a6a6" stroke-width="1.51"/><path d="M2262,2419L3170,2321L2943,2262Z" fill="#a4a7a6" stroke="#a4a7a6" stroke-width="1.51"/><path d="M2943,2262L3170,2321L3084,2015Z" fill="#a2a4a4" stroke="#a2a4a4" stroke-width="1.51"/><path d="M4151,893L4006,660L3876,1063Z" fill="#adb0af" stroke="#adb0af" stroke-width="1.51"/><path d="M3376,-302L3584,-361L3215,-363Z" fill="#d2d3d2" stroke="#d2d3d2" stroke-width="1.51"/><path d="M3215,-363L3584,-361L2681,-426Z" fill="#d6d7d7" stroke="#d6d7d7" stroke-width="1.51"/><path d="M3687,-137L3584,-361L3441,-154Z" fill="#cdcecd" stroke="#cdcecd" stroke-width="1.51"/><path d="M3863,1439L4006,1171L3647,1198Z" fill="#a6a8a8" stroke="#a6a8a8" stroke-width="1.51"/><path d="M603,170L429,473L777,528Z" fill="#e5e5e1" stroke="#e5e5e1" stroke-width="1.51"/><path d="M931,1790L989,2174L1196,1803Z" fill="#b9bcb9" stroke="#b9bcb9" stroke-width="1.51"/><path d="M645,1831L931,1790L808,1482Z" fill="#c9cbc8" stroke="#c9cbc8" stroke-width="1.51"/><path d="M525,825L365,973L749,1073Z" fill="#d7d9d6" stroke="#d7d9d6" stroke-width="1.51"/><path d="M150,655L365,973L525,825Z" fill="#dee0dd" stroke="#dee0dd" stroke-width="1.51"/><path d="M504,1778L645,1831L808,1482Z" fill="#cbcdca" stroke="#cbcdca" stroke-width="1.51"/><path d="M3863,1439L4145,1636L4006,1171Z" fill="#a5a7a7" stroke="#a5a7a7" stroke-width="1.51"/><path d="M3723,2049L3875,1731L3633,1730Z" fill="#9c9e9d" stroke="#9c9e9d" stroke-width="1.51"/><path d="M1460,2367L1259,2444L1954,2376Z" fill="#aeb1b0" stroke="#aeb1b0" stroke-width="1.51"/><path d="M989,2174L1259,2444L1324,2147Z" fill="#b3b6b4" stroke="#b3b6b4" stroke-width="1.51"/><path d="M972,2432L1259,2444L989,2174Z" fill="#b5b7b5" stroke="#b5b7b5" stroke-width="1.51"/><path d="M150,655L189,1067L365,973Z" fill="#dee0de" stroke="#dee0de" stroke-width="1.51"/><path d="M603,170L433,204L429,473Z" fill="#e9e9e5" stroke="#e9e9e5" stroke-width="1.51"/><path d="M427,-183L433,204L603,170Z" fill="#f0f0ee" stroke="#f0f0ee" stroke-width="1.51"/><path d="M427,-183L603,170L793,-117Z" fill="#f0f1ef" stroke="#f0f1ef" stroke-width="1.51"/><path d="M3687,-137L3836,-324L3584,-361Z" fill="#c8c9c9" stroke="#c8c9c9" stroke-width="1.51"/><path d="M3918,439L3986,121L3739,128Z" fill="#bdbebd" stroke="#bdbebd" stroke-width="1.51"/><path d="M4169,381L3986,121L3918,439Z" fill="#bbbcba" stroke="#bbbcba" stroke-width="1.51"/><path d="M3467,2077L3723,2049L3633,1730Z" fill="#999b9b" stroke="#999b9b" stroke-width="1.51"/><path d="M3170,2321L3358,2368L3467,2077Z" fill="#9fa1a0" stroke="#9fa1a0" stroke-width="1.51"/><path d="M2262,2419L3358,2368L3170,2321Z" fill="#a3a6a5" stroke="#a3a6a5" stroke-width="1.51"/><path d="M978,-361L787,-445L793,-117Z" fill="#edeeec" stroke="#edeeec" stroke-width="1.51"/><path d="M2218,-449L787,-445L1448,-389Z" fill="#e5e7e6" stroke="#e5e7e6" stroke-width="1.51"/><path d="M365,973L355,1282L749,1073Z" fill="#d4d5d3" stroke="#d4d5d3" stroke-width="1.51"/><path d="M4006,660L4169,381L3918,439Z" fill="#b6b9b6" stroke="#b6b9b6" stroke-width="1.51"/><path d="M4006,1171L4151,893L3876,1063Z" fill="#a9abab" stroke="#a9abab" stroke-width="1.51"/><path d="M4308,1189L4151,893L4006,1171Z" fill="#a8aaaa" stroke="#a8aaaa" stroke-width="1.51"/><path d="M645,1831L773,2101L931,1790Z" fill="#bdc0bd" stroke="#bdc0bd" stroke-width="1.51"/><path d="M479,2043L773,2101L645,1831Z" fill="#bbbcba" stroke="#bbbcba" stroke-width="1.51"/><path d="M3854,2173L3723,2049L3837,2287Z" fill="#919393" stroke="#919393" stroke-width="1.51"/><path d="M4151,893L4189,797L4006,660Z" fill="#afb2b0" stroke="#afb2b0" stroke-width="1.51"/><path d="M4308,1189L4189,797L4151,893Z" fill="#abaead" stroke="#abaead" stroke-width="1.51"/><path d="M350,1553L504,1778L808,1482Z" fill="#cecfcc" stroke="#cecfcc" stroke-width="1.51"/><path d="M3986,121L3989,-70L3739,128Z" fill="#c2c3c3" stroke="#c2c3c3" stroke-width="1.51"/><path d="M4131,-60L3989,-70L3986,121Z" fill="#c4c5c5" stroke="#c4c5c5" stroke-width="1.51"/><path d="M3989,-70L3836,-324L3687,-137Z" fill="#c4c5c5" stroke="#c4c5c5" stroke-width="1.51"/><path d="M4189,797L4169,381L4006,660Z" fill="#b3b6b4" stroke="#b3b6b4" stroke-width="1.51"/><path d="M355,1282L350,1553L808,1482Z" fill="#d2d3d1" stroke="#d2d3d1" stroke-width="1.51"/><path d="M645,2408L972,2432L773,2101Z" fill="#b8bab8" stroke="#b8bab8" stroke-width="1.51"/><path d="M773,2101L972,2432L989,2174Z" fill="#b7b9b7" stroke="#b7b9b7" stroke-width="1.51"/><path d="M433,204L254,289L429,473Z" fill="#eaeae7" stroke="#eaeae7" stroke-width="1.51"/><path d="M365,973L189,1067L355,1282Z" fill="#d7d8d7" stroke="#d7d8d7" stroke-width="1.51"/><path d="M355,1282L258,1531L350,1553Z" fill="#d4d6d4" stroke="#d4d6d4" stroke-width="1.51"/><path d="M178,-113L254,289L433,204Z" fill="#f2f2f0" stroke="#f2f2f0" stroke-width="1.51"/><path d="M150,655L525,825L429,473Z" fill="#e2e4e1" stroke="#e2e4e1" stroke-width="1.51"/><path d="M787,-445L427,-183L793,-117Z" fill="#f0f0ee" stroke="#f0f0ee" stroke-width="1.51"/><path d="M4169,381L4209,204L3986,121Z" fill="#bcbebc" stroke="#bcbebc" stroke-width="1.51"/><path d="M3989,-70L4222,-311L3836,-324Z" fill="#c4c5c5" stroke="#c4c5c5" stroke-width="1.51"/><path d="M4189,797L4209,204L4169,381Z" fill="#b7b9b7" stroke="#b7b9b7" stroke-width="1.51"/><path d="M86,397L150,655L429,473Z" fill="#e8e9e6" stroke="#e8e9e6" stroke-width="1.51"/><path d="M3875,1731L4145,1636L3863,1439Z" fill="#a2a4a3" stroke="#a2a4a3" stroke-width="1.51"/><path d="M4254,1908L4145,1636L3875,1731Z" fill="#9da09f" stroke="#9da09f" stroke-width="1.51"/><path d="M90,1198L258,1531L355,1282Z" fill="#d7d8d7" stroke="#d7d8d7" stroke-width="1.51"/><path d="M350,1553L268,1717L504,1778Z" fill="#cfd1ce" stroke="#cfd1ce" stroke-width="1.51"/><path d="M504,1778L479,2043L645,1831Z" fill="#c2c3c0" stroke="#c2c3c0" stroke-width="1.51"/><path d="M4209,204L4131,-60L3986,121Z" fill="#c1c2c2" stroke="#c1c2c2" stroke-width="1.51"/><path d="M4145,1636L4308,1189L4006,1171Z" fill="#a5a8a7" stroke="#a5a8a7" stroke-width="1.51"/><path d="M4189,797L4308,1189L4209,204Z" fill="#b0b3b1" stroke="#b0b3b1" stroke-width="1.51"/><path d="M3723,2049L3854,2173L3875,1731Z" fill="#919393" stroke="#919393" stroke-width="1.51"/><path d="M3837,2287L3723,2049L3709,2420Z" fill="#929494" stroke="#929494" stroke-width="1.51"/><path d="M268,1717L479,2043L504,1778Z" fill="#c6c8c5" stroke="#c6c8c5" stroke-width="1.51"/><path d="M-115,1528L268,1717L258,1531Z" fill="#d5d6d5" stroke="#d5d6d5" stroke-width="1.51"/><path d="M258,1531L268,1717L350,1553Z" fill="#d2d4d2" stroke="#d2d4d2" stroke-width="1.51"/><path d="M189,1067L90,1198L355,1282Z" fill="#d8d9d8" stroke="#d8d9d8" stroke-width="1.51"/><path d="M-171,1064L90,1198L189,1067Z" fill="#dcdddd" stroke="#dcdddd" stroke-width="1.51"/><path d="M3709,2420L3723,2049L3467,2077Z" fill="#969898" stroke="#969898" stroke-width="1.51"/><path d="M3854,2173L4254,1908L3875,1731Z" fill="#939595" stroke="#939595" stroke-width="1.51"/><path d="M150,655L-135,693L189,1067Z" fill="#e4e6e3" stroke="#e4e6e3" stroke-width="1.51"/><path d="M254,289L86,397L429,473Z" fill="#eaebe8" stroke="#eaebe8" stroke-width="1.51"/><path d="M-22,16L86,397L254,289Z" fill="#f1f1ef" stroke="#f1f1ef" stroke-width="1.51"/><path d="M3358,2368L3709,2420L3467,2077Z" fill="#999c9b" stroke="#999c9b" stroke-width="1.51"/><path d="M2262,2419L3709,2420L3358,2368Z" fill="#a1a4a3" stroke="#a1a4a3" stroke-width="1.51"/><path d="M1259,2444L3709,2420L2262,2419Z" fill="#a6a8a8" stroke="#a6a8a8" stroke-width="1.51"/><path d="M427,-183L178,-113L433,204Z" fill="#f5f5f3" stroke="#f5f5f3" stroke-width="1.51"/><path d="M787,-445L426,-429L427,-183Z" fill="#f1f1ef" stroke="#f1f1ef" stroke-width="1.51"/><path d="M364,2430L645,2408L479,2043Z" fill="#bcbdbb" stroke="#bcbdbb" stroke-width="1.51"/><path d="M479,2043L645,2408L773,2101Z" fill="#babbb9" stroke="#babbb9" stroke-width="1.51"/><path d="M227,-315L178,-113L427,-183Z" fill="#f6f6f5" stroke="#f6f6f5" stroke-width="1.51"/><path d="M86,397L-19,533L150,655Z" fill="#eaece9" stroke="#eaece9" stroke-width="1.51"/><path d="M-158,186L-19,533L86,397Z" fill="#eff0ee" stroke="#eff0ee" stroke-width="1.51"/><path d="M4209,204L4222,-311L4131,-60Z" fill="#c4c5c5" stroke="#c4c5c5" stroke-width="1.51"/><path d="M4131,-60L4222,-311L3989,-70Z" fill="#c4c5c5" stroke="#c4c5c5" stroke-width="1.51"/><path d="M3836,-324L4222,-311L3584,-361Z" fill="#c4c5c5" stroke="#c4c5c5" stroke-width="1.51"/><path d="M4308,1189L4222,-311L4209,204Z" fill="#b9bbb9" stroke="#b9bbb9" stroke-width="1.51"/><path d="M-295,729L-135,693L-403,421Z" fill="#e9ebe9" stroke="#e9ebe9" stroke-width="1.51"/><path d="M426,-429L227,-315L427,-183Z" fill="#f5f4f3" stroke="#f5f4f3" stroke-width="1.51"/><path d="M4310,2076L3854,2173L4255,2402Z" fill="#909292" stroke="#909292" stroke-width="1.51"/><path d="M4310,2076L4254,1908L3854,2173Z" fill="#909292" stroke="#909292" stroke-width="1.51"/><path d="M4145,1636L4254,1908L4308,1189Z" fill="#a2a5a4" stroke="#a2a5a4" stroke-width="1.51"/><path d="M90,1198L-26,1341L258,1531Z" fill="#d9dad9" stroke="#d9dad9" stroke-width="1.51"/><path d="M268,1717L186,2117L479,2043Z" fill="#c2c3c1" stroke="#c2c3c1" stroke-width="1.51"/><path d="M-171,1064L-26,1341L90,1198Z" fill="#dbdddc" stroke="#dbdddc" stroke-width="1.51"/><path d="M-19,533L-135,693L150,655Z" fill="#e9ebe9" stroke="#e9ebe9" stroke-width="1.51"/><path d="M-22,16L254,289L178,-113Z" fill="#f6f6f5" stroke="#f6f6f5" stroke-width="1.51"/><path d="M-177,-265L-22,16L178,-113Z" fill="#fbfbfb" stroke="#fbfbfb" stroke-width="1.51"/><path d="M-135,693L-171,1064L189,1067Z" fill="#e1e3e2" stroke="#e1e3e2" stroke-width="1.51"/><path d="M-115,1528L258,1531L-26,1341Z" fill="#d9dbda" stroke="#d9dbda" stroke-width="1.51"/><path d="M-192,1776L186,2117L268,1717Z" fill="#cacccb" stroke="#cacccb" stroke-width="1.51"/><path d="M4254,1908L4310,2076L4308,1189Z" fill="#9fa2a1" stroke="#9fa2a1" stroke-width="1.51"/><path d="M4255,2402L3854,2173L3837,2287Z" fill="#909292" stroke="#909292" stroke-width="1.51"/><path d="M-383,1214L-115,1528L-26,1341Z" fill="#dbdcdc" stroke="#dbdcdc" stroke-width="1.51"/><path d="M240,2364L364,2430L479,2043Z" fill="#bebfbe" stroke="#bebfbe" stroke-width="1.51"/><path d="M645,2408L364,2430L972,2432Z" fill="#babbb9" stroke="#babbb9" stroke-width="1.51"/><path d="M972,2432L364,2430L1259,2444Z" fill="#b7b9b7" stroke="#b7b9b7" stroke-width="1.51"/><path d="M-135,693L-295,729L-171,1064Z" fill="#e4e6e4" stroke="#e4e6e4" stroke-width="1.51"/><path d="M-22,16L-158,186L86,397Z" fill="#f4f4f3" stroke="#f4f4f3" stroke-width="1.51"/><path d="M-318,104L-158,186L-22,16Z" fill="#f7f7f7" stroke="#f7f7f7" stroke-width="1.51"/><path d="M186,2117L240,2364L479,2043Z" fill="#bfc0bf" stroke="#bfc0bf" stroke-width="1.51"/><path d="M-85,2443L240,2364L186,2117Z" fill="#c2c3c3" stroke="#c2c3c3" stroke-width="1.51"/><path d="M-403,421L-135,693L-19,533Z" fill="#ebedea" stroke="#ebedea" stroke-width="1.51"/><path d="M-391,1537L-192,1776L-115,1528Z" fill="#d7d8d7" stroke="#d7d8d7" stroke-width="1.51"/><path d="M3709,2420L4255,2402L3837,2287Z" fill="#909292" stroke="#909292" stroke-width="1.51"/><path d="M-383,1214L-26,1341L-171,1064Z" fill="#dbdddc" stroke="#dbdddc" stroke-width="1.51"/><path d="M-115,1528L-192,1776L268,1717Z" fill="#d5d7d6" stroke="#d5d7d6" stroke-width="1.51"/><path d="M-295,729L-381,1016L-171,1064Z" fill="#e1e3e2" stroke="#e1e3e2" stroke-width="1.51"/><path d="M-403,421L-381,1016L-295,729Z" fill="#e7e9e7" stroke="#e7e9e7" stroke-width="1.51"/><path d="M227,-315L-177,-265L178,-113Z" fill="#f9f9f9" stroke="#f9f9f9" stroke-width="1.51"/><path d="M-158,186L-403,421L-19,533Z" fill="#eff0ed" stroke="#eff0ed" stroke-width="1.51"/><path d="M426,-429L-177,-265L227,-315Z" fill="#f8f8f7" stroke="#f8f8f7" stroke-width="1.51"/><path d="M-381,1016L-383,1214L-171,1064Z" fill="#dddede" stroke="#dddede" stroke-width="1.51"/><path d="M-360,-30L-318,104L-22,16Z" fill="#fafafa" stroke="#fafafa" stroke-width="1.51"/><path d="M-318,104L-403,421L-158,186Z" fill="#f3f3f1" stroke="#f3f3f1" stroke-width="1.51"/><path d="M-381,1016L-403,421L-383,1214Z" fill="#e3e4e3" stroke="#e3e4e3" stroke-width="1.51"/><path d="M-192,1776L-126,2090L186,2117Z" fill="#c5c6c6" stroke="#c5c6c6" stroke-width="1.51"/><path d="M-312,1897L-126,2090L-192,1776Z" fill="#c9cac9" stroke="#c9cac9" stroke-width="1.51"/><path d="M-383,1214L-391,1537L-115,1528Z" fill="#dadcdb" stroke="#dadcdb" stroke-width="1.51"/><path d="M-403,421L-391,1537L-383,1214Z" fill="#dedfdf" stroke="#dedfdf" stroke-width="1.51"/><path d="M-177,-265L-360,-30L-22,16Z" fill="#fbfbfb" stroke="#fbfbfb" stroke-width="1.51"/><path d="M-318,104L-360,-30L-403,421Z" fill="#f5f5f4" stroke="#f5f5f4" stroke-width="1.51"/><path d="M-391,1537L-312,1897L-192,1776Z" fill="#d3d5d4" stroke="#d3d5d4" stroke-width="1.51"/><path d="M-177,-265L-300,-286L-360,-30Z" fill="#fbfbfb" stroke="#fbfbfb" stroke-width="1.51"/><path d="M426,-429L-300,-286L-177,-265Z" fill="#fbfbfb" stroke="#fbfbfb" stroke-width="1.51"/><path d="M-285,2325L-85,2443L-126,2090Z" fill="#c4c5c5" stroke="#c4c5c5" stroke-width="1.51"/><path d="M-126,2090L-85,2443L186,2117Z" fill="#c4c5c5" stroke="#c4c5c5" stroke-width="1.51"/><path d="M240,2364L-85,2443L364,2430Z" fill="#c1c2c2" stroke="#c1c2c2" stroke-width="1.51"/><path d="M364,2430L-85,2443L1259,2444Z" fill="#bcbdbb" stroke="#bcbdbb" stroke-width="1.51"/><path d="M-312,1897L-397,2085L-126,2090Z" fill="#c4c5c5" stroke="#c4c5c5" stroke-width="1.51"/><path d="M-391,1537L-397,2085L-312,1897Z" fill="#cecfce" stroke="#cecfce" stroke-width="1.51"/><path d="M-403,421L-397,2085L-391,1537Z" fill="#dbdcdc" stroke="#dbdcdc" stroke-width="1.51"/><path d="M-397,2085L-285,2325L-126,2090Z" fill="#c4c5c5" stroke="#c4c5c5" stroke-width="1.51"/></svg>